%TF.GenerationSoftware,KiCad,Pcbnew,8.0.2*%
%TF.CreationDate,2024-12-11T18:52:05+01:00*%
%TF.ProjectId,Driver_Lampy_Dozymetrycznej,44726976-6572-45f4-9c61-6d70795f446f,rev?*%
%TF.SameCoordinates,Original*%
%TF.FileFunction,Copper,L1,Top*%
%TF.FilePolarity,Positive*%
%FSLAX46Y46*%
G04 Gerber Fmt 4.6, Leading zero omitted, Abs format (unit mm)*
G04 Created by KiCad (PCBNEW 8.0.2) date 2024-12-11 18:52:05*
%MOMM*%
%LPD*%
G01*
G04 APERTURE LIST*
%TA.AperFunction,ComponentPad*%
%ADD10R,1.700000X1.700000*%
%TD*%
%TA.AperFunction,ComponentPad*%
%ADD11C,1.600000*%
%TD*%
%TA.AperFunction,ComponentPad*%
%ADD12O,1.600000X1.600000*%
%TD*%
%TA.AperFunction,ComponentPad*%
%ADD13R,1.500000X1.050000*%
%TD*%
%TA.AperFunction,ComponentPad*%
%ADD14O,1.500000X1.050000*%
%TD*%
%TA.AperFunction,ComponentPad*%
%ADD15R,2.800000X2.800000*%
%TD*%
%TA.AperFunction,ComponentPad*%
%ADD16O,2.800000X2.800000*%
%TD*%
%TA.AperFunction,ComponentPad*%
%ADD17C,1.400000*%
%TD*%
%TA.AperFunction,ComponentPad*%
%ADD18O,1.700000X1.700000*%
%TD*%
%TA.AperFunction,ComponentPad*%
%ADD19R,1.050000X1.500000*%
%TD*%
%TA.AperFunction,ComponentPad*%
%ADD20O,1.050000X1.500000*%
%TD*%
%TA.AperFunction,ComponentPad*%
%ADD21C,2.340000*%
%TD*%
%TA.AperFunction,ComponentPad*%
%ADD22R,1.600000X1.600000*%
%TD*%
%TA.AperFunction,Conductor*%
%ADD23C,0.500000*%
%TD*%
G04 APERTURE END LIST*
D10*
%TO.P,L_GND1,1,Pin_1*%
%TO.N,GND*%
X190080000Y-30670000D03*
%TD*%
D11*
%TO.P,R6,1*%
%TO.N,Net-(Q2-C)*%
X195860000Y-92480000D03*
D12*
%TO.P,R6,2*%
%TO.N,Net-(R2-Pad2)*%
X195860000Y-82320000D03*
%TD*%
D13*
%TO.P,Q5,1,C*%
%TO.N,PULSE_ISO*%
X233500000Y-95210000D03*
D14*
%TO.P,Q5,2,B*%
%TO.N,Net-(Q5-B)*%
X233500000Y-96480000D03*
%TO.P,Q5,3,E*%
%TO.N,GND*%
X233500000Y-97750000D03*
%TD*%
D11*
%TO.P,R12,1*%
%TO.N,Net-(C1-Pad1)*%
X177250000Y-47330000D03*
D12*
%TO.P,R12,2*%
%TO.N,Net-(L_+1-Pin_1)*%
X177250000Y-37170000D03*
%TD*%
D15*
%TO.P,D2,1,K*%
%TO.N,Net-(D2-K)*%
X208420000Y-46500000D03*
D16*
%TO.P,D2,2,A*%
%TO.N,+3.3V*%
X218580000Y-46500000D03*
%TD*%
D11*
%TO.P,R1,1*%
%TO.N,Net-(Q1-E)*%
X185030000Y-100980000D03*
D12*
%TO.P,R1,2*%
%TO.N,Net-(Q2-B)*%
X195190000Y-100980000D03*
%TD*%
D11*
%TO.P,R8,1*%
%TO.N,PULSE*%
X208860000Y-71060000D03*
D12*
%TO.P,R8,2*%
%TO.N,Net-(D2-K)*%
X208860000Y-60900000D03*
%TD*%
D11*
%TO.P,C2,1*%
%TO.N,Net-(D2-K)*%
X203250000Y-50750000D03*
%TO.P,C2,2*%
%TO.N,GND*%
X203250000Y-55750000D03*
%TD*%
D10*
%TO.P,L_+1,1,Pin_1*%
%TO.N,Net-(L_+1-Pin_1)*%
X177255000Y-30670000D03*
%TD*%
D17*
%TO.P,C5,1*%
%TO.N,+3.3V*%
X241500000Y-43750000D03*
%TO.P,C5,2*%
%TO.N,GND*%
X244000000Y-43750000D03*
%TD*%
D11*
%TO.P,R15,1*%
%TO.N,PULSE_ISO*%
X244580000Y-79250000D03*
D12*
%TO.P,R15,2*%
%TO.N,+3.3V*%
X234420000Y-79250000D03*
%TD*%
D10*
%TO.P,GLED1,1,Pin_1*%
%TO.N,Net-(GLED1-Pin_1)*%
X213250000Y-28875000D03*
%TD*%
D11*
%TO.P,R3,1*%
%TO.N,Net-(Q1-C)*%
X181750000Y-85810000D03*
D12*
%TO.P,R3,2*%
%TO.N,Net-(R2-Pad2)*%
X181750000Y-75650000D03*
%TD*%
D11*
%TO.P,R13,1*%
%TO.N,Net-(C1-Pad1)*%
X176830000Y-55080000D03*
D12*
%TO.P,R13,2*%
%TO.N,+400V*%
X166670000Y-55080000D03*
%TD*%
D10*
%TO.P,+3.3V1,1,Pin_1*%
%TO.N,Net-(+3.3V1-Pin_1)*%
X251125000Y-35475000D03*
D18*
%TO.P,+3.3V1,2,Pin_2*%
X251125000Y-38015000D03*
%TD*%
D10*
%TO.P,+400V1,1,Pin_1*%
%TO.N,+400V*%
X165500000Y-36790000D03*
D18*
%TO.P,+400V1,2,Pin_2*%
X165500000Y-34250000D03*
%TD*%
D10*
%TO.P,G400V1,1,Pin_1*%
%TO.N,GND*%
X165500000Y-46500000D03*
D18*
%TO.P,G400V1,2,Pin_2*%
X165500000Y-43960000D03*
%TD*%
D10*
%TO.P,PULSE1,1,Pin_1*%
%TO.N,PULSE*%
X218610000Y-71190000D03*
D18*
%TO.P,PULSE1,2,Pin_2*%
X218610000Y-73730000D03*
%TD*%
D11*
%TO.P,R2,1*%
%TO.N,L_SIGNAL*%
X188360000Y-85810000D03*
D12*
%TO.P,R2,2*%
%TO.N,Net-(R2-Pad2)*%
X188360000Y-75650000D03*
%TD*%
D10*
%TO.P,+SPEAK1,1,Pin_1*%
%TO.N,+3.3V*%
X232250000Y-28875000D03*
%TD*%
%TO.P,GSPEAK1,1,Pin_1*%
%TO.N,Net-(GSPEAK1-Pin_1)*%
X208750000Y-28875000D03*
%TD*%
D13*
%TO.P,Q4,1,C*%
%TO.N,PULSE*%
X210610000Y-80980000D03*
D14*
%TO.P,Q4,2,B*%
%TO.N,Net-(Q4-B)*%
X210610000Y-82250000D03*
%TO.P,Q4,3,E*%
%TO.N,GND*%
X210610000Y-83520000D03*
%TD*%
D11*
%TO.P,R7,1*%
%TO.N,Net-(Q3-C)*%
X233000000Y-51330000D03*
D12*
%TO.P,R7,2*%
%TO.N,Net-(GLED1-Pin_1)*%
X233000000Y-41170000D03*
%TD*%
D17*
%TO.P,C4,1*%
%TO.N,Net-(+3.3V1-Pin_1)*%
X241500000Y-29500000D03*
%TO.P,C4,2*%
%TO.N,GND*%
X244000000Y-29500000D03*
%TD*%
D11*
%TO.P,R10,1*%
%TO.N,Net-(GSPEAK1-Pin_1)*%
X226610000Y-51285000D03*
D12*
%TO.P,R10,2*%
%TO.N,+3.3V*%
X226610000Y-41125000D03*
%TD*%
D13*
%TO.P,Q3,1,C*%
%TO.N,Net-(Q3-C)*%
X238860000Y-55770000D03*
D14*
%TO.P,Q3,2,B*%
%TO.N,Net-(Q3-B)*%
X238860000Y-54500000D03*
%TO.P,Q3,3,E*%
%TO.N,GND*%
X238860000Y-53230000D03*
%TD*%
D19*
%TO.P,U2,1,GND*%
%TO.N,GND*%
X244020000Y-36890000D03*
D20*
%TO.P,U2,2,VI*%
%TO.N,Net-(+3.3V1-Pin_1)*%
X242750000Y-36890000D03*
%TO.P,U2,3,VO*%
%TO.N,+3.3V*%
X241480000Y-36890000D03*
%TD*%
D10*
%TO.P,+LED1,1,Pin_1*%
%TO.N,+3.3V*%
X226250000Y-28875000D03*
%TD*%
%TO.P,IPULSE1,1,Pin_1*%
%TO.N,PULSE_ISO*%
X250000000Y-85225000D03*
D18*
%TO.P,IPULSE1,2,Pin_2*%
X250000000Y-87765000D03*
%TD*%
D10*
%TO.P,G3.3V1,1,Pin_1*%
%TO.N,GND*%
X251125000Y-45225000D03*
D18*
%TO.P,G3.3V1,2,Pin_2*%
X251125000Y-47765000D03*
%TD*%
D19*
%TO.P,Q1,1,C*%
%TO.N,Net-(Q1-C)*%
X182340000Y-93840000D03*
D20*
%TO.P,Q1,2,B*%
%TO.N,L_SIGNAL*%
X183610000Y-93840000D03*
%TO.P,Q1,3,E*%
%TO.N,Net-(Q1-E)*%
X184880000Y-93840000D03*
%TD*%
D21*
%TO.P,RV1,1,1*%
%TO.N,Net-(Q3-B)*%
X237135000Y-60230000D03*
%TO.P,RV1,2,2*%
%TO.N,PULSE_ISO*%
X239635000Y-70230000D03*
%TO.P,RV1,3,3*%
X242135000Y-60230000D03*
%TD*%
D11*
%TO.P,R11,1*%
%TO.N,Net-(R11-Pad1)*%
X218610000Y-91060000D03*
D12*
%TO.P,R11,2*%
%TO.N,PULSE*%
X218610000Y-80900000D03*
%TD*%
D11*
%TO.P,R16,1*%
%TO.N,GND*%
X241500000Y-101830000D03*
D12*
%TO.P,R16,2*%
%TO.N,PULSE_ISO*%
X241500000Y-91670000D03*
%TD*%
D11*
%TO.P,C1,1*%
%TO.N,Net-(C1-Pad1)*%
X171250000Y-70750000D03*
%TO.P,C1,2*%
%TO.N,L_SIGNAL*%
X171250000Y-75750000D03*
%TD*%
D13*
%TO.P,Q2,1,C*%
%TO.N,Net-(Q2-C)*%
X202890000Y-99730000D03*
D14*
%TO.P,Q2,2,B*%
%TO.N,Net-(Q2-B)*%
X202890000Y-101000000D03*
%TO.P,Q2,3,E*%
%TO.N,GND*%
X202890000Y-102270000D03*
%TD*%
D22*
%TO.P,C3,1*%
%TO.N,Net-(D2-K)*%
X195250000Y-52544888D03*
D11*
%TO.P,C3,2*%
%TO.N,GND*%
X195250000Y-54544888D03*
%TD*%
%TO.P,R9,1*%
%TO.N,Net-(Q3-C)*%
X226610000Y-67060000D03*
D12*
%TO.P,R9,2*%
%TO.N,Net-(GSPEAK1-Pin_1)*%
X226610000Y-56900000D03*
%TD*%
D11*
%TO.P,R4,1*%
%TO.N,Net-(R2-Pad2)*%
X200250000Y-71080000D03*
D12*
%TO.P,R4,2*%
%TO.N,Net-(D2-K)*%
X200250000Y-60920000D03*
%TD*%
D22*
%TO.P,U1,1*%
%TO.N,Net-(R11-Pad1)*%
X218560000Y-95705000D03*
D12*
%TO.P,U1,2*%
%TO.N,GND*%
X218560000Y-98245000D03*
%TO.P,U1,3*%
%TO.N,Net-(Q5-B)*%
X226180000Y-98245000D03*
%TO.P,U1,4*%
%TO.N,Net-(R14-Pad1)*%
X226180000Y-95705000D03*
%TD*%
D11*
%TO.P,R5,1*%
%TO.N,Net-(Q2-C)*%
X202860000Y-92480000D03*
D12*
%TO.P,R5,2*%
%TO.N,Net-(Q4-B)*%
X202860000Y-82320000D03*
%TD*%
D11*
%TO.P,R14,1*%
%TO.N,Net-(R14-Pad1)*%
X226360000Y-89310000D03*
D12*
%TO.P,R14,2*%
%TO.N,+3.3V*%
X226360000Y-79150000D03*
%TD*%
D23*
%TO.N,+3.3V*%
X224250000Y-63500000D02*
X229500000Y-58250000D01*
X240265000Y-36890000D02*
X241480000Y-36890000D01*
X234320000Y-79150000D02*
X234420000Y-79250000D01*
X229500000Y-58250000D02*
X229500000Y-49000000D01*
X238750000Y-46500000D02*
X241500000Y-43750000D01*
X232750000Y-46500000D02*
X238750000Y-46500000D01*
X232000000Y-46500000D02*
X232750000Y-46500000D01*
X226610000Y-41125000D02*
X226610000Y-43610000D01*
X229500000Y-49000000D02*
X232000000Y-46500000D01*
X241480000Y-36890000D02*
X241480000Y-43730000D01*
X226360000Y-79150000D02*
X234320000Y-79150000D01*
X226360000Y-73860000D02*
X224250000Y-71750000D01*
X226360000Y-79150000D02*
X226360000Y-73860000D01*
X232250000Y-28875000D02*
X240265000Y-36890000D01*
X218580000Y-46500000D02*
X229500000Y-46500000D01*
X224250000Y-71750000D02*
X224250000Y-63500000D01*
X229500000Y-46500000D02*
X232750000Y-46500000D01*
X241480000Y-43730000D02*
X241500000Y-43750000D01*
X226250000Y-28875000D02*
X232250000Y-28875000D01*
X226610000Y-43610000D02*
X229500000Y-46500000D01*
%TO.N,+400V*%
X166670000Y-55080000D02*
X169750000Y-52000000D01*
X169750000Y-41040000D02*
X165500000Y-36790000D01*
X165500000Y-34250000D02*
X165500000Y-36790000D01*
X169750000Y-52000000D02*
X169750000Y-41040000D01*
%TO.N,Net-(C1-Pad1)*%
X171250000Y-60660000D02*
X176830000Y-55080000D01*
X177250000Y-47330000D02*
X177250000Y-54660000D01*
X177250000Y-54660000D02*
X176830000Y-55080000D01*
X171250000Y-70750000D02*
X171250000Y-60660000D01*
%TO.N,L_SIGNAL*%
X188360000Y-85810000D02*
X183610000Y-90560000D01*
X171250000Y-75750000D02*
X176250000Y-75750000D01*
X176250000Y-75750000D02*
X186310000Y-85810000D01*
X183610000Y-90560000D02*
X183610000Y-93840000D01*
X186310000Y-85810000D02*
X188360000Y-85810000D01*
%TO.N,Net-(D2-K)*%
X200250000Y-53750000D02*
X200250000Y-57000000D01*
X200270000Y-60900000D02*
X200250000Y-60920000D01*
X200250000Y-53750000D02*
X197000000Y-53750000D01*
X208420000Y-46500000D02*
X207500000Y-46500000D01*
X195794888Y-52544888D02*
X195250000Y-52544888D01*
X196500000Y-53250000D02*
X195794888Y-52544888D01*
X200250000Y-60920000D02*
X200250000Y-57000000D01*
X203250000Y-50750000D02*
X200250000Y-53750000D01*
X208860000Y-60900000D02*
X200270000Y-60900000D01*
X207500000Y-46500000D02*
X203250000Y-50750000D01*
X197000000Y-53750000D02*
X196500000Y-53250000D01*
%TO.N,Net-(L_+1-Pin_1)*%
X177250000Y-37170000D02*
X177250000Y-30675000D01*
X177250000Y-30675000D02*
X177255000Y-30670000D01*
%TO.N,Net-(GSPEAK1-Pin_1)*%
X213750000Y-46750000D02*
X213750000Y-38250000D01*
X218285000Y-51285000D02*
X213750000Y-46750000D01*
X226610000Y-51285000D02*
X226610000Y-56900000D01*
X226610000Y-51285000D02*
X218285000Y-51285000D01*
X213750000Y-38250000D02*
X208750000Y-33250000D01*
X208750000Y-33250000D02*
X208750000Y-28875000D01*
%TO.N,Net-(Q1-C)*%
X181750000Y-85810000D02*
X181750000Y-93250000D01*
X181750000Y-93250000D02*
X182340000Y-93840000D01*
%TO.N,Net-(Q1-E)*%
X184880000Y-93840000D02*
X184880000Y-100830000D01*
X184880000Y-100830000D02*
X185030000Y-100980000D01*
%TO.N,Net-(Q2-C)*%
X202890000Y-99730000D02*
X202890000Y-92510000D01*
X195860000Y-92480000D02*
X202860000Y-92480000D01*
X202890000Y-92510000D02*
X202860000Y-92480000D01*
%TO.N,Net-(Q2-B)*%
X202870000Y-100980000D02*
X202890000Y-101000000D01*
X195190000Y-100980000D02*
X202870000Y-100980000D01*
X202840000Y-100980000D02*
X202860000Y-101000000D01*
%TO.N,Net-(Q3-C)*%
X226610000Y-67060000D02*
X226610000Y-65140000D01*
X235980000Y-55770000D02*
X238860000Y-55770000D01*
X237440000Y-55770000D02*
X238860000Y-55770000D01*
X233000000Y-51330000D02*
X237440000Y-55770000D01*
X226610000Y-65140000D02*
X235980000Y-55770000D01*
%TO.N,Net-(Q3-B)*%
X237520000Y-60230000D02*
X237135000Y-60230000D01*
X240750000Y-57000000D02*
X237520000Y-60230000D01*
X240750000Y-55000000D02*
X240750000Y-57000000D01*
X240250000Y-54500000D02*
X240750000Y-55000000D01*
X238860000Y-54500000D02*
X240250000Y-54500000D01*
%TO.N,Net-(Q4-B)*%
X202860000Y-82320000D02*
X210540000Y-82320000D01*
X210540000Y-82320000D02*
X210610000Y-82250000D01*
%TO.N,Net-(Q5-B)*%
X233500000Y-96480000D02*
X227945000Y-96480000D01*
X227945000Y-96480000D02*
X226180000Y-98245000D01*
%TO.N,Net-(R2-Pad2)*%
X188360000Y-75650000D02*
X181750000Y-75650000D01*
X195860000Y-82320000D02*
X189190000Y-75650000D01*
X189190000Y-75650000D02*
X188360000Y-75650000D01*
X200250000Y-77930000D02*
X195860000Y-82320000D01*
X200250000Y-71080000D02*
X200250000Y-77930000D01*
%TO.N,Net-(R11-Pad1)*%
X218610000Y-95655000D02*
X218560000Y-95705000D01*
X218610000Y-91060000D02*
X218610000Y-95655000D01*
%TO.N,Net-(R14-Pad1)*%
X226180000Y-95705000D02*
X226180000Y-89490000D01*
X226180000Y-89490000D02*
X226360000Y-89310000D01*
%TO.N,PULSE_ISO*%
X244580000Y-79250000D02*
X244580000Y-75175000D01*
X244580000Y-79250000D02*
X250000000Y-84670000D01*
X243555000Y-91670000D02*
X250000000Y-85225000D01*
X250000000Y-84670000D02*
X250000000Y-85225000D01*
X242135000Y-60230000D02*
X242135000Y-64615000D01*
X233540000Y-95210000D02*
X233500000Y-95210000D01*
X239635000Y-67115000D02*
X239635000Y-70230000D01*
X250000000Y-85225000D02*
X250000000Y-87765000D01*
X241500000Y-91670000D02*
X237080000Y-91670000D01*
X244580000Y-75175000D02*
X239635000Y-70230000D01*
X237080000Y-91670000D02*
X233540000Y-95210000D01*
X242135000Y-64615000D02*
X239635000Y-67115000D01*
X241500000Y-91670000D02*
X243555000Y-91670000D01*
%TO.N,PULSE*%
X208860000Y-71060000D02*
X218480000Y-71060000D01*
X218610000Y-73730000D02*
X218610000Y-71190000D01*
X218480000Y-71060000D02*
X218610000Y-71190000D01*
X218610000Y-80900000D02*
X210690000Y-80900000D01*
X210690000Y-80900000D02*
X210610000Y-80980000D01*
X218610000Y-73730000D02*
X218610000Y-80900000D01*
%TO.N,Net-(+3.3V1-Pin_1)*%
X242750000Y-30750000D02*
X241500000Y-29500000D01*
X243820000Y-38865000D02*
X242750000Y-37795000D01*
X251125000Y-38015000D02*
X250275000Y-38865000D01*
X251125000Y-38015000D02*
X251125000Y-35475000D01*
X242750000Y-36890000D02*
X242750000Y-30750000D01*
X242750000Y-37795000D02*
X242750000Y-36890000D01*
X250275000Y-38865000D02*
X243820000Y-38865000D01*
%TO.N,Net-(GLED1-Pin_1)*%
X220705000Y-28875000D02*
X213250000Y-28875000D01*
X233000000Y-41170000D02*
X220705000Y-28875000D01*
%TD*%
M02*
