%TF.GenerationSoftware,KiCad,Pcbnew,8.0.2*%
%TF.CreationDate,2024-12-11T18:52:05+01:00*%
%TF.ProjectId,Driver_Lampy_Dozymetrycznej,44726976-6572-45f4-9c61-6d70795f446f,rev?*%
%TF.SameCoordinates,Original*%
%TF.FileFunction,Copper,L2,Bot*%
%TF.FilePolarity,Positive*%
%FSLAX46Y46*%
G04 Gerber Fmt 4.6, Leading zero omitted, Abs format (unit mm)*
G04 Created by KiCad (PCBNEW 8.0.2) date 2024-12-11 18:52:05*
%MOMM*%
%LPD*%
G01*
G04 APERTURE LIST*
%TA.AperFunction,ComponentPad*%
%ADD10R,1.700000X1.700000*%
%TD*%
%TA.AperFunction,ComponentPad*%
%ADD11C,1.600000*%
%TD*%
%TA.AperFunction,ComponentPad*%
%ADD12O,1.600000X1.600000*%
%TD*%
%TA.AperFunction,ComponentPad*%
%ADD13R,1.500000X1.050000*%
%TD*%
%TA.AperFunction,ComponentPad*%
%ADD14O,1.500000X1.050000*%
%TD*%
%TA.AperFunction,ComponentPad*%
%ADD15R,2.800000X2.800000*%
%TD*%
%TA.AperFunction,ComponentPad*%
%ADD16O,2.800000X2.800000*%
%TD*%
%TA.AperFunction,ComponentPad*%
%ADD17C,1.400000*%
%TD*%
%TA.AperFunction,ComponentPad*%
%ADD18O,1.700000X1.700000*%
%TD*%
%TA.AperFunction,ComponentPad*%
%ADD19R,1.050000X1.500000*%
%TD*%
%TA.AperFunction,ComponentPad*%
%ADD20O,1.050000X1.500000*%
%TD*%
%TA.AperFunction,ComponentPad*%
%ADD21C,2.340000*%
%TD*%
%TA.AperFunction,ComponentPad*%
%ADD22R,1.600000X1.600000*%
%TD*%
G04 APERTURE END LIST*
D10*
%TO.P,L_GND1,1,Pin_1*%
%TO.N,GND*%
X190080000Y-30670000D03*
%TD*%
D11*
%TO.P,R6,1*%
%TO.N,Net-(Q2-C)*%
X195860000Y-92480000D03*
D12*
%TO.P,R6,2*%
%TO.N,Net-(R2-Pad2)*%
X195860000Y-82320000D03*
%TD*%
D13*
%TO.P,Q5,1,C*%
%TO.N,PULSE_ISO*%
X233500000Y-95210000D03*
D14*
%TO.P,Q5,2,B*%
%TO.N,Net-(Q5-B)*%
X233500000Y-96480000D03*
%TO.P,Q5,3,E*%
%TO.N,GND*%
X233500000Y-97750000D03*
%TD*%
D11*
%TO.P,R12,1*%
%TO.N,Net-(C1-Pad1)*%
X177250000Y-47330000D03*
D12*
%TO.P,R12,2*%
%TO.N,Net-(L_+1-Pin_1)*%
X177250000Y-37170000D03*
%TD*%
D15*
%TO.P,D2,1,K*%
%TO.N,Net-(D2-K)*%
X208420000Y-46500000D03*
D16*
%TO.P,D2,2,A*%
%TO.N,+3.3V*%
X218580000Y-46500000D03*
%TD*%
D11*
%TO.P,R1,1*%
%TO.N,Net-(Q1-E)*%
X185030000Y-100980000D03*
D12*
%TO.P,R1,2*%
%TO.N,Net-(Q2-B)*%
X195190000Y-100980000D03*
%TD*%
D11*
%TO.P,R8,1*%
%TO.N,PULSE*%
X208860000Y-71060000D03*
D12*
%TO.P,R8,2*%
%TO.N,Net-(D2-K)*%
X208860000Y-60900000D03*
%TD*%
D11*
%TO.P,C2,1*%
%TO.N,Net-(D2-K)*%
X203250000Y-50750000D03*
%TO.P,C2,2*%
%TO.N,GND*%
X203250000Y-55750000D03*
%TD*%
D10*
%TO.P,L_+1,1,Pin_1*%
%TO.N,Net-(L_+1-Pin_1)*%
X177255000Y-30670000D03*
%TD*%
D17*
%TO.P,C5,1*%
%TO.N,+3.3V*%
X241500000Y-43750000D03*
%TO.P,C5,2*%
%TO.N,GND*%
X244000000Y-43750000D03*
%TD*%
D11*
%TO.P,R15,1*%
%TO.N,PULSE_ISO*%
X244580000Y-79250000D03*
D12*
%TO.P,R15,2*%
%TO.N,+3.3V*%
X234420000Y-79250000D03*
%TD*%
D10*
%TO.P,GLED1,1,Pin_1*%
%TO.N,Net-(GLED1-Pin_1)*%
X213250000Y-28875000D03*
%TD*%
D11*
%TO.P,R3,1*%
%TO.N,Net-(Q1-C)*%
X181750000Y-85810000D03*
D12*
%TO.P,R3,2*%
%TO.N,Net-(R2-Pad2)*%
X181750000Y-75650000D03*
%TD*%
D11*
%TO.P,R13,1*%
%TO.N,Net-(C1-Pad1)*%
X176830000Y-55080000D03*
D12*
%TO.P,R13,2*%
%TO.N,+400V*%
X166670000Y-55080000D03*
%TD*%
D10*
%TO.P,+3.3V1,1,Pin_1*%
%TO.N,Net-(+3.3V1-Pin_1)*%
X251125000Y-35475000D03*
D18*
%TO.P,+3.3V1,2,Pin_2*%
X251125000Y-38015000D03*
%TD*%
D10*
%TO.P,+400V1,1,Pin_1*%
%TO.N,+400V*%
X165500000Y-36790000D03*
D18*
%TO.P,+400V1,2,Pin_2*%
X165500000Y-34250000D03*
%TD*%
D10*
%TO.P,G400V1,1,Pin_1*%
%TO.N,GND*%
X165500000Y-46500000D03*
D18*
%TO.P,G400V1,2,Pin_2*%
X165500000Y-43960000D03*
%TD*%
D10*
%TO.P,PULSE1,1,Pin_1*%
%TO.N,PULSE*%
X218610000Y-71190000D03*
D18*
%TO.P,PULSE1,2,Pin_2*%
X218610000Y-73730000D03*
%TD*%
D11*
%TO.P,R2,1*%
%TO.N,L_SIGNAL*%
X188360000Y-85810000D03*
D12*
%TO.P,R2,2*%
%TO.N,Net-(R2-Pad2)*%
X188360000Y-75650000D03*
%TD*%
D10*
%TO.P,+SPEAK1,1,Pin_1*%
%TO.N,+3.3V*%
X232250000Y-28875000D03*
%TD*%
%TO.P,GSPEAK1,1,Pin_1*%
%TO.N,Net-(GSPEAK1-Pin_1)*%
X208750000Y-28875000D03*
%TD*%
D13*
%TO.P,Q4,1,C*%
%TO.N,PULSE*%
X210610000Y-80980000D03*
D14*
%TO.P,Q4,2,B*%
%TO.N,Net-(Q4-B)*%
X210610000Y-82250000D03*
%TO.P,Q4,3,E*%
%TO.N,GND*%
X210610000Y-83520000D03*
%TD*%
D11*
%TO.P,R7,1*%
%TO.N,Net-(Q3-C)*%
X233000000Y-51330000D03*
D12*
%TO.P,R7,2*%
%TO.N,Net-(GLED1-Pin_1)*%
X233000000Y-41170000D03*
%TD*%
D17*
%TO.P,C4,1*%
%TO.N,Net-(+3.3V1-Pin_1)*%
X241500000Y-29500000D03*
%TO.P,C4,2*%
%TO.N,GND*%
X244000000Y-29500000D03*
%TD*%
D11*
%TO.P,R10,1*%
%TO.N,Net-(GSPEAK1-Pin_1)*%
X226610000Y-51285000D03*
D12*
%TO.P,R10,2*%
%TO.N,+3.3V*%
X226610000Y-41125000D03*
%TD*%
D13*
%TO.P,Q3,1,C*%
%TO.N,Net-(Q3-C)*%
X238860000Y-55770000D03*
D14*
%TO.P,Q3,2,B*%
%TO.N,Net-(Q3-B)*%
X238860000Y-54500000D03*
%TO.P,Q3,3,E*%
%TO.N,GND*%
X238860000Y-53230000D03*
%TD*%
D19*
%TO.P,U2,1,GND*%
%TO.N,GND*%
X244020000Y-36890000D03*
D20*
%TO.P,U2,2,VI*%
%TO.N,Net-(+3.3V1-Pin_1)*%
X242750000Y-36890000D03*
%TO.P,U2,3,VO*%
%TO.N,+3.3V*%
X241480000Y-36890000D03*
%TD*%
D10*
%TO.P,+LED1,1,Pin_1*%
%TO.N,+3.3V*%
X226250000Y-28875000D03*
%TD*%
%TO.P,IPULSE1,1,Pin_1*%
%TO.N,PULSE_ISO*%
X250000000Y-85225000D03*
D18*
%TO.P,IPULSE1,2,Pin_2*%
X250000000Y-87765000D03*
%TD*%
D10*
%TO.P,G3.3V1,1,Pin_1*%
%TO.N,GND*%
X251125000Y-45225000D03*
D18*
%TO.P,G3.3V1,2,Pin_2*%
X251125000Y-47765000D03*
%TD*%
D19*
%TO.P,Q1,1,C*%
%TO.N,Net-(Q1-C)*%
X182340000Y-93840000D03*
D20*
%TO.P,Q1,2,B*%
%TO.N,L_SIGNAL*%
X183610000Y-93840000D03*
%TO.P,Q1,3,E*%
%TO.N,Net-(Q1-E)*%
X184880000Y-93840000D03*
%TD*%
D21*
%TO.P,RV1,1,1*%
%TO.N,Net-(Q3-B)*%
X237135000Y-60230000D03*
%TO.P,RV1,2,2*%
%TO.N,PULSE_ISO*%
X239635000Y-70230000D03*
%TO.P,RV1,3,3*%
X242135000Y-60230000D03*
%TD*%
D11*
%TO.P,R11,1*%
%TO.N,Net-(R11-Pad1)*%
X218610000Y-91060000D03*
D12*
%TO.P,R11,2*%
%TO.N,PULSE*%
X218610000Y-80900000D03*
%TD*%
D11*
%TO.P,R16,1*%
%TO.N,GND*%
X241500000Y-101830000D03*
D12*
%TO.P,R16,2*%
%TO.N,PULSE_ISO*%
X241500000Y-91670000D03*
%TD*%
D11*
%TO.P,C1,1*%
%TO.N,Net-(C1-Pad1)*%
X171250000Y-70750000D03*
%TO.P,C1,2*%
%TO.N,L_SIGNAL*%
X171250000Y-75750000D03*
%TD*%
D13*
%TO.P,Q2,1,C*%
%TO.N,Net-(Q2-C)*%
X202890000Y-99730000D03*
D14*
%TO.P,Q2,2,B*%
%TO.N,Net-(Q2-B)*%
X202890000Y-101000000D03*
%TO.P,Q2,3,E*%
%TO.N,GND*%
X202890000Y-102270000D03*
%TD*%
D22*
%TO.P,C3,1*%
%TO.N,Net-(D2-K)*%
X195250000Y-52544888D03*
D11*
%TO.P,C3,2*%
%TO.N,GND*%
X195250000Y-54544888D03*
%TD*%
%TO.P,R9,1*%
%TO.N,Net-(Q3-C)*%
X226610000Y-67060000D03*
D12*
%TO.P,R9,2*%
%TO.N,Net-(GSPEAK1-Pin_1)*%
X226610000Y-56900000D03*
%TD*%
D11*
%TO.P,R4,1*%
%TO.N,Net-(R2-Pad2)*%
X200250000Y-71080000D03*
D12*
%TO.P,R4,2*%
%TO.N,Net-(D2-K)*%
X200250000Y-60920000D03*
%TD*%
D22*
%TO.P,U1,1*%
%TO.N,Net-(R11-Pad1)*%
X218560000Y-95705000D03*
D12*
%TO.P,U1,2*%
%TO.N,GND*%
X218560000Y-98245000D03*
%TO.P,U1,3*%
%TO.N,Net-(Q5-B)*%
X226180000Y-98245000D03*
%TO.P,U1,4*%
%TO.N,Net-(R14-Pad1)*%
X226180000Y-95705000D03*
%TD*%
D11*
%TO.P,R5,1*%
%TO.N,Net-(Q2-C)*%
X202860000Y-92480000D03*
D12*
%TO.P,R5,2*%
%TO.N,Net-(Q4-B)*%
X202860000Y-82320000D03*
%TD*%
D11*
%TO.P,R14,1*%
%TO.N,Net-(R14-Pad1)*%
X226360000Y-89310000D03*
D12*
%TO.P,R14,2*%
%TO.N,+3.3V*%
X226360000Y-79150000D03*
%TD*%
%TA.AperFunction,Conductor*%
%TO.N,GND*%
G36*
X251375000Y-47331988D02*
G01*
X251317993Y-47299075D01*
X251190826Y-47265000D01*
X251059174Y-47265000D01*
X250932007Y-47299075D01*
X250875000Y-47331988D01*
X250875000Y-45658012D01*
X250932007Y-45690925D01*
X251059174Y-45725000D01*
X251190826Y-45725000D01*
X251317993Y-45690925D01*
X251375000Y-45658012D01*
X251375000Y-47331988D01*
G37*
%TD.AperFunction*%
%TA.AperFunction,Conductor*%
G36*
X165750000Y-46066988D02*
G01*
X165692993Y-46034075D01*
X165565826Y-46000000D01*
X165434174Y-46000000D01*
X165307007Y-46034075D01*
X165250000Y-46066988D01*
X165250000Y-44393012D01*
X165307007Y-44425925D01*
X165434174Y-44460000D01*
X165565826Y-44460000D01*
X165692993Y-44425925D01*
X165750000Y-44393012D01*
X165750000Y-46066988D01*
G37*
%TD.AperFunction*%
%TA.AperFunction,Conductor*%
G36*
X258265677Y-19019685D02*
G01*
X258286319Y-19036319D01*
X261213681Y-21963681D01*
X261247166Y-22025004D01*
X261250000Y-22051362D01*
X261250000Y-112948638D01*
X261230315Y-113015677D01*
X261213681Y-113036319D01*
X258286319Y-115963681D01*
X258224996Y-115997166D01*
X258198638Y-116000000D01*
X157301362Y-116000000D01*
X157234323Y-115980315D01*
X157213681Y-115963681D01*
X154286319Y-113036319D01*
X154252834Y-112974996D01*
X154250000Y-112948638D01*
X154250000Y-111500000D01*
X154994680Y-111500000D01*
X155013946Y-111879918D01*
X155071551Y-112255935D01*
X155166904Y-112624212D01*
X155299016Y-112980925D01*
X155299022Y-112980940D01*
X155466548Y-113322463D01*
X155466553Y-113322472D01*
X155613378Y-113558030D01*
X155667771Y-113645295D01*
X155900620Y-113946112D01*
X156162709Y-114221829D01*
X156451343Y-114469614D01*
X156451346Y-114469616D01*
X156763571Y-114686931D01*
X157096179Y-114871543D01*
X157445758Y-115021559D01*
X157445761Y-115021560D01*
X157445766Y-115021562D01*
X157808709Y-115135436D01*
X157808712Y-115135436D01*
X157808720Y-115135439D01*
X158181340Y-115212015D01*
X158484104Y-115242803D01*
X158559795Y-115250500D01*
X158559796Y-115250500D01*
X158940205Y-115250500D01*
X159003280Y-115244085D01*
X159318660Y-115212015D01*
X159691280Y-115135439D01*
X159691290Y-115135436D01*
X160054233Y-115021562D01*
X160054234Y-115021561D01*
X160054242Y-115021559D01*
X160403821Y-114871543D01*
X160736429Y-114686931D01*
X161048654Y-114469616D01*
X161337291Y-114221829D01*
X161599380Y-113946112D01*
X161832229Y-113645295D01*
X162033451Y-113322464D01*
X162200981Y-112980932D01*
X162333098Y-112624204D01*
X162428448Y-112255940D01*
X162486053Y-111879919D01*
X162505320Y-111500000D01*
X252994680Y-111500000D01*
X253013946Y-111879918D01*
X253071551Y-112255935D01*
X253166904Y-112624212D01*
X253299016Y-112980925D01*
X253299022Y-112980940D01*
X253466548Y-113322463D01*
X253466553Y-113322472D01*
X253613378Y-113558030D01*
X253667771Y-113645295D01*
X253900620Y-113946112D01*
X254162709Y-114221829D01*
X254451343Y-114469614D01*
X254451346Y-114469616D01*
X254763571Y-114686931D01*
X255096179Y-114871543D01*
X255445758Y-115021559D01*
X255445761Y-115021560D01*
X255445766Y-115021562D01*
X255808709Y-115135436D01*
X255808712Y-115135436D01*
X255808720Y-115135439D01*
X256181340Y-115212015D01*
X256484104Y-115242803D01*
X256559795Y-115250500D01*
X256559796Y-115250500D01*
X256940205Y-115250500D01*
X257003280Y-115244085D01*
X257318660Y-115212015D01*
X257691280Y-115135439D01*
X257691290Y-115135436D01*
X258054233Y-115021562D01*
X258054234Y-115021561D01*
X258054242Y-115021559D01*
X258403821Y-114871543D01*
X258736429Y-114686931D01*
X259048654Y-114469616D01*
X259337291Y-114221829D01*
X259599380Y-113946112D01*
X259832229Y-113645295D01*
X260033451Y-113322464D01*
X260200981Y-112980932D01*
X260333098Y-112624204D01*
X260428448Y-112255940D01*
X260486053Y-111879919D01*
X260505320Y-111500000D01*
X260486053Y-111120081D01*
X260428448Y-110744060D01*
X260333098Y-110375796D01*
X260200981Y-110019068D01*
X260033451Y-109677536D01*
X260033446Y-109677527D01*
X259832228Y-109354704D01*
X259599384Y-109053893D01*
X259599383Y-109053892D01*
X259599380Y-109053888D01*
X259337291Y-108778171D01*
X259305058Y-108750500D01*
X259048656Y-108530385D01*
X258736429Y-108313069D01*
X258736424Y-108313066D01*
X258403820Y-108128456D01*
X258054233Y-107978437D01*
X257691290Y-107864563D01*
X257691284Y-107864562D01*
X257691281Y-107864561D01*
X257691280Y-107864561D01*
X257318660Y-107787985D01*
X257318659Y-107787984D01*
X257318655Y-107787984D01*
X256940205Y-107749500D01*
X256940204Y-107749500D01*
X256559796Y-107749500D01*
X256559795Y-107749500D01*
X256181344Y-107787984D01*
X255808715Y-107864562D01*
X255808709Y-107864563D01*
X255445766Y-107978437D01*
X255096179Y-108128456D01*
X254763575Y-108313066D01*
X254763570Y-108313069D01*
X254451343Y-108530385D01*
X254162709Y-108778170D01*
X253900615Y-109053893D01*
X253667771Y-109354704D01*
X253466553Y-109677527D01*
X253466548Y-109677536D01*
X253299022Y-110019059D01*
X253299016Y-110019074D01*
X253166904Y-110375787D01*
X253071551Y-110744064D01*
X253013946Y-111120081D01*
X252994680Y-111500000D01*
X162505320Y-111500000D01*
X162486053Y-111120081D01*
X162428448Y-110744060D01*
X162333098Y-110375796D01*
X162200981Y-110019068D01*
X162033451Y-109677536D01*
X162033446Y-109677527D01*
X161832228Y-109354704D01*
X161599384Y-109053893D01*
X161599383Y-109053892D01*
X161599380Y-109053888D01*
X161337291Y-108778171D01*
X161305058Y-108750500D01*
X161048656Y-108530385D01*
X160736429Y-108313069D01*
X160736424Y-108313066D01*
X160403820Y-108128456D01*
X160054233Y-107978437D01*
X159691290Y-107864563D01*
X159691284Y-107864562D01*
X159691281Y-107864561D01*
X159691280Y-107864561D01*
X159318660Y-107787985D01*
X159318659Y-107787984D01*
X159318655Y-107787984D01*
X158940205Y-107749500D01*
X158940204Y-107749500D01*
X158559796Y-107749500D01*
X158559795Y-107749500D01*
X158181344Y-107787984D01*
X157808715Y-107864562D01*
X157808709Y-107864563D01*
X157445766Y-107978437D01*
X157096179Y-108128456D01*
X156763575Y-108313066D01*
X156763570Y-108313069D01*
X156451343Y-108530385D01*
X156162709Y-108778170D01*
X155900615Y-109053893D01*
X155667771Y-109354704D01*
X155466553Y-109677527D01*
X155466548Y-109677536D01*
X155299022Y-110019059D01*
X155299016Y-110019074D01*
X155166904Y-110375787D01*
X155071551Y-110744064D01*
X155013946Y-111120081D01*
X154994680Y-111500000D01*
X154250000Y-111500000D01*
X154250000Y-100979998D01*
X183724532Y-100979998D01*
X183724532Y-100980001D01*
X183744364Y-101206686D01*
X183744366Y-101206697D01*
X183803258Y-101426488D01*
X183803261Y-101426497D01*
X183899431Y-101632732D01*
X183899432Y-101632734D01*
X184029954Y-101819141D01*
X184190858Y-101980045D01*
X184190861Y-101980047D01*
X184377266Y-102110568D01*
X184583504Y-102206739D01*
X184803308Y-102265635D01*
X184965230Y-102279801D01*
X185029998Y-102285468D01*
X185030000Y-102285468D01*
X185030002Y-102285468D01*
X185086673Y-102280509D01*
X185256692Y-102265635D01*
X185476496Y-102206739D01*
X185682734Y-102110568D01*
X185869139Y-101980047D01*
X186030047Y-101819139D01*
X186160568Y-101632734D01*
X186256739Y-101426496D01*
X186315635Y-101206692D01*
X186335468Y-100980000D01*
X186335468Y-100979998D01*
X193884532Y-100979998D01*
X193884532Y-100980001D01*
X193904364Y-101206686D01*
X193904366Y-101206697D01*
X193963258Y-101426488D01*
X193963261Y-101426497D01*
X194059431Y-101632732D01*
X194059432Y-101632734D01*
X194189954Y-101819141D01*
X194350858Y-101980045D01*
X194350861Y-101980047D01*
X194537266Y-102110568D01*
X194743504Y-102206739D01*
X194963308Y-102265635D01*
X195125230Y-102279801D01*
X195189998Y-102285468D01*
X195190000Y-102285468D01*
X195190002Y-102285468D01*
X195246673Y-102280509D01*
X195416692Y-102265635D01*
X195636496Y-102206739D01*
X195842734Y-102110568D01*
X196029139Y-101980047D01*
X196190047Y-101819139D01*
X196320568Y-101632734D01*
X196416739Y-101426496D01*
X196475635Y-101206692D01*
X196495468Y-100980000D01*
X196475635Y-100753308D01*
X196416739Y-100533504D01*
X196320568Y-100327266D01*
X196190047Y-100140861D01*
X196190045Y-100140858D01*
X196029141Y-99979954D01*
X195842734Y-99849432D01*
X195842732Y-99849431D01*
X195636497Y-99753261D01*
X195636488Y-99753258D01*
X195416697Y-99694366D01*
X195416693Y-99694365D01*
X195416692Y-99694365D01*
X195416691Y-99694364D01*
X195416686Y-99694364D01*
X195190002Y-99674532D01*
X195189998Y-99674532D01*
X194963313Y-99694364D01*
X194963302Y-99694366D01*
X194743511Y-99753258D01*
X194743502Y-99753261D01*
X194537267Y-99849431D01*
X194537265Y-99849432D01*
X194350858Y-99979954D01*
X194189954Y-100140858D01*
X194059432Y-100327265D01*
X194059431Y-100327267D01*
X193963261Y-100533502D01*
X193963258Y-100533511D01*
X193904366Y-100753302D01*
X193904364Y-100753313D01*
X193884532Y-100979998D01*
X186335468Y-100979998D01*
X186315635Y-100753308D01*
X186256739Y-100533504D01*
X186160568Y-100327266D01*
X186030047Y-100140861D01*
X186030045Y-100140858D01*
X185869141Y-99979954D01*
X185682734Y-99849432D01*
X185682732Y-99849431D01*
X185476497Y-99753261D01*
X185476488Y-99753258D01*
X185256697Y-99694366D01*
X185256693Y-99694365D01*
X185256692Y-99694365D01*
X185256691Y-99694364D01*
X185256686Y-99694364D01*
X185030002Y-99674532D01*
X185029998Y-99674532D01*
X184803313Y-99694364D01*
X184803302Y-99694366D01*
X184583511Y-99753258D01*
X184583502Y-99753261D01*
X184377267Y-99849431D01*
X184377265Y-99849432D01*
X184190858Y-99979954D01*
X184029954Y-100140858D01*
X183899432Y-100327265D01*
X183899431Y-100327267D01*
X183803261Y-100533502D01*
X183803258Y-100533511D01*
X183744366Y-100753302D01*
X183744364Y-100753313D01*
X183724532Y-100979998D01*
X154250000Y-100979998D01*
X154250000Y-99157135D01*
X201639500Y-99157135D01*
X201639500Y-100302870D01*
X201639501Y-100302876D01*
X201645908Y-100362483D01*
X201696202Y-100497328D01*
X201696203Y-100497330D01*
X201696204Y-100497331D01*
X201697028Y-100498432D01*
X201697509Y-100499721D01*
X201700454Y-100505114D01*
X201699678Y-100505537D01*
X201721448Y-100563895D01*
X201712325Y-100620198D01*
X201678910Y-100700868D01*
X201678907Y-100700880D01*
X201639500Y-100898992D01*
X201639500Y-101101007D01*
X201678907Y-101299119D01*
X201678909Y-101299127D01*
X201756212Y-101485754D01*
X201810204Y-101566558D01*
X201831081Y-101633235D01*
X201812596Y-101700615D01*
X201810204Y-101704337D01*
X201756655Y-101784479D01*
X201756654Y-101784481D01*
X201679390Y-101971016D01*
X201679387Y-101971025D01*
X201669647Y-102020000D01*
X202524134Y-102020000D01*
X202548326Y-102022383D01*
X202551123Y-102022939D01*
X202563995Y-102025499D01*
X202563996Y-102025500D01*
X202563997Y-102025500D01*
X202604170Y-102025500D01*
X202589925Y-102039745D01*
X202540556Y-102125255D01*
X202515000Y-102220630D01*
X202515000Y-102319370D01*
X202540556Y-102414745D01*
X202589925Y-102500255D01*
X202609670Y-102520000D01*
X201669647Y-102520000D01*
X201679387Y-102568974D01*
X201679390Y-102568983D01*
X201756652Y-102755513D01*
X201756659Y-102755526D01*
X201868829Y-102923399D01*
X201868832Y-102923403D01*
X202011596Y-103066167D01*
X202011600Y-103066170D01*
X202179473Y-103178340D01*
X202179486Y-103178347D01*
X202366016Y-103255609D01*
X202366025Y-103255612D01*
X202564041Y-103294999D01*
X202564045Y-103295000D01*
X202640000Y-103295000D01*
X202640000Y-102550330D01*
X202659745Y-102570075D01*
X202745255Y-102619444D01*
X202840630Y-102645000D01*
X202939370Y-102645000D01*
X203034745Y-102619444D01*
X203120255Y-102570075D01*
X203140000Y-102550330D01*
X203140000Y-103295000D01*
X203215955Y-103295000D01*
X203215958Y-103294999D01*
X203413974Y-103255612D01*
X203413983Y-103255609D01*
X203600513Y-103178347D01*
X203600526Y-103178340D01*
X203768399Y-103066170D01*
X203768403Y-103066167D01*
X203911167Y-102923403D01*
X203911170Y-102923399D01*
X204023340Y-102755526D01*
X204023347Y-102755513D01*
X204100609Y-102568983D01*
X204100612Y-102568974D01*
X204110353Y-102520000D01*
X203170330Y-102520000D01*
X203190075Y-102500255D01*
X203239444Y-102414745D01*
X203265000Y-102319370D01*
X203265000Y-102220630D01*
X203239444Y-102125255D01*
X203190075Y-102039745D01*
X203175830Y-102025500D01*
X203216004Y-102025500D01*
X203216004Y-102025499D01*
X203229473Y-102022820D01*
X203231674Y-102022383D01*
X203255866Y-102020000D01*
X204110353Y-102020000D01*
X204100612Y-101971025D01*
X204100609Y-101971016D01*
X204042198Y-101829997D01*
X240195034Y-101829997D01*
X240195034Y-101830002D01*
X240214858Y-102056599D01*
X240214860Y-102056610D01*
X240273730Y-102276317D01*
X240273735Y-102276331D01*
X240369863Y-102482478D01*
X240420974Y-102555472D01*
X241100000Y-101876446D01*
X241100000Y-101882661D01*
X241127259Y-101984394D01*
X241179920Y-102075606D01*
X241254394Y-102150080D01*
X241345606Y-102202741D01*
X241447339Y-102230000D01*
X241453553Y-102230000D01*
X240774526Y-102909025D01*
X240847513Y-102960132D01*
X240847521Y-102960136D01*
X241053668Y-103056264D01*
X241053682Y-103056269D01*
X241273389Y-103115139D01*
X241273400Y-103115141D01*
X241499998Y-103134966D01*
X241500002Y-103134966D01*
X241726599Y-103115141D01*
X241726610Y-103115139D01*
X241946317Y-103056269D01*
X241946331Y-103056264D01*
X242152478Y-102960136D01*
X242225471Y-102909024D01*
X241546447Y-102230000D01*
X241552661Y-102230000D01*
X241654394Y-102202741D01*
X241745606Y-102150080D01*
X241820080Y-102075606D01*
X241872741Y-101984394D01*
X241900000Y-101882661D01*
X241900000Y-101876447D01*
X242579024Y-102555471D01*
X242630136Y-102482478D01*
X242726264Y-102276331D01*
X242726269Y-102276317D01*
X242785139Y-102056610D01*
X242785141Y-102056599D01*
X242804966Y-101830002D01*
X242804966Y-101829997D01*
X242785141Y-101603400D01*
X242785139Y-101603389D01*
X242726269Y-101383682D01*
X242726264Y-101383668D01*
X242630136Y-101177521D01*
X242630132Y-101177513D01*
X242579025Y-101104526D01*
X241900000Y-101783551D01*
X241900000Y-101777339D01*
X241872741Y-101675606D01*
X241820080Y-101584394D01*
X241745606Y-101509920D01*
X241654394Y-101457259D01*
X241552661Y-101430000D01*
X241546448Y-101430000D01*
X242225472Y-100750974D01*
X242152478Y-100699863D01*
X241946331Y-100603735D01*
X241946317Y-100603730D01*
X241726610Y-100544860D01*
X241726599Y-100544858D01*
X241500002Y-100525034D01*
X241499998Y-100525034D01*
X241273400Y-100544858D01*
X241273389Y-100544860D01*
X241053682Y-100603730D01*
X241053673Y-100603734D01*
X240847516Y-100699866D01*
X240847512Y-100699868D01*
X240774526Y-100750973D01*
X240774526Y-100750974D01*
X241453553Y-101430000D01*
X241447339Y-101430000D01*
X241345606Y-101457259D01*
X241254394Y-101509920D01*
X241179920Y-101584394D01*
X241127259Y-101675606D01*
X241100000Y-101777339D01*
X241100000Y-101783552D01*
X240420974Y-101104526D01*
X240420973Y-101104526D01*
X240369868Y-101177512D01*
X240369866Y-101177516D01*
X240273734Y-101383673D01*
X240273730Y-101383682D01*
X240214860Y-101603389D01*
X240214858Y-101603400D01*
X240195034Y-101829997D01*
X204042198Y-101829997D01*
X204023347Y-101784486D01*
X204023343Y-101784479D01*
X203969795Y-101704340D01*
X203948917Y-101637662D01*
X203967401Y-101570282D01*
X203969733Y-101566652D01*
X204023786Y-101485756D01*
X204101091Y-101299127D01*
X204140500Y-101101003D01*
X204140500Y-100898997D01*
X204101091Y-100700873D01*
X204067673Y-100620198D01*
X204060205Y-100550730D01*
X204079964Y-100505340D01*
X204079547Y-100505112D01*
X204082095Y-100500444D01*
X204082972Y-100498431D01*
X204083796Y-100497331D01*
X204134091Y-100362483D01*
X204140500Y-100302873D01*
X204140499Y-99157128D01*
X204134091Y-99097517D01*
X204129101Y-99084139D01*
X204083797Y-98962671D01*
X204083793Y-98962664D01*
X203997547Y-98847455D01*
X203997544Y-98847452D01*
X203882335Y-98761206D01*
X203882328Y-98761202D01*
X203747482Y-98710908D01*
X203747483Y-98710908D01*
X203687883Y-98704501D01*
X203687881Y-98704500D01*
X203687873Y-98704500D01*
X203687864Y-98704500D01*
X202092129Y-98704500D01*
X202092123Y-98704501D01*
X202032516Y-98710908D01*
X201897671Y-98761202D01*
X201897664Y-98761206D01*
X201782455Y-98847452D01*
X201782452Y-98847455D01*
X201696206Y-98962664D01*
X201696202Y-98962671D01*
X201645908Y-99097517D01*
X201639501Y-99157116D01*
X201639501Y-99157123D01*
X201639500Y-99157135D01*
X154250000Y-99157135D01*
X154250000Y-93042135D01*
X181314500Y-93042135D01*
X181314500Y-94637870D01*
X181314501Y-94637876D01*
X181320908Y-94697483D01*
X181371202Y-94832328D01*
X181371206Y-94832335D01*
X181457452Y-94947544D01*
X181457455Y-94947547D01*
X181572664Y-95033793D01*
X181572671Y-95033797D01*
X181707517Y-95084091D01*
X181707516Y-95084091D01*
X181714444Y-95084835D01*
X181767127Y-95090500D01*
X182912872Y-95090499D01*
X182972483Y-95084091D01*
X183107331Y-95033796D01*
X183108430Y-95032972D01*
X183109717Y-95032492D01*
X183115112Y-95029547D01*
X183115535Y-95030322D01*
X183173887Y-95008552D01*
X183230198Y-95017673D01*
X183310873Y-95051091D01*
X183476777Y-95084091D01*
X183508992Y-95090499D01*
X183508996Y-95090500D01*
X183508997Y-95090500D01*
X183711004Y-95090500D01*
X183711005Y-95090499D01*
X183909127Y-95051091D01*
X184095756Y-94973786D01*
X184176110Y-94920094D01*
X184242786Y-94899217D01*
X184310166Y-94917701D01*
X184313865Y-94920078D01*
X184394244Y-94973786D01*
X184580873Y-95051091D01*
X184746777Y-95084091D01*
X184778992Y-95090499D01*
X184778996Y-95090500D01*
X184778997Y-95090500D01*
X184981004Y-95090500D01*
X184981005Y-95090499D01*
X185179127Y-95051091D01*
X185365756Y-94973786D01*
X185533718Y-94861558D01*
X185538141Y-94857135D01*
X217259500Y-94857135D01*
X217259500Y-96552870D01*
X217259501Y-96552876D01*
X217265908Y-96612483D01*
X217316202Y-96747328D01*
X217316206Y-96747335D01*
X217402452Y-96862544D01*
X217402455Y-96862547D01*
X217517664Y-96948793D01*
X217517671Y-96948797D01*
X217652513Y-96999090D01*
X217652514Y-96999090D01*
X217652517Y-96999091D01*
X217688353Y-97002944D01*
X217752901Y-97029679D01*
X217792751Y-97087070D01*
X217795246Y-97156896D01*
X217759595Y-97216985D01*
X217746223Y-97227805D01*
X217721182Y-97245339D01*
X217560342Y-97406179D01*
X217429865Y-97592517D01*
X217333734Y-97798673D01*
X217333730Y-97798682D01*
X217281127Y-97994999D01*
X217281128Y-97995000D01*
X218244314Y-97995000D01*
X218239920Y-97999394D01*
X218187259Y-98090606D01*
X218160000Y-98192339D01*
X218160000Y-98297661D01*
X218187259Y-98399394D01*
X218239920Y-98490606D01*
X218244314Y-98495000D01*
X217281128Y-98495000D01*
X217333730Y-98691317D01*
X217333734Y-98691326D01*
X217429865Y-98897482D01*
X217560342Y-99083820D01*
X217721179Y-99244657D01*
X217907517Y-99375134D01*
X218113673Y-99471265D01*
X218113682Y-99471269D01*
X218309999Y-99523872D01*
X218310000Y-99523871D01*
X218310000Y-98560686D01*
X218314394Y-98565080D01*
X218405606Y-98617741D01*
X218507339Y-98645000D01*
X218612661Y-98645000D01*
X218714394Y-98617741D01*
X218805606Y-98565080D01*
X218810000Y-98560686D01*
X218810000Y-99523872D01*
X219006317Y-99471269D01*
X219006326Y-99471265D01*
X219212482Y-99375134D01*
X219398820Y-99244657D01*
X219559657Y-99083820D01*
X219690134Y-98897482D01*
X219786265Y-98691326D01*
X219786269Y-98691317D01*
X219838872Y-98495000D01*
X218875686Y-98495000D01*
X218880080Y-98490606D01*
X218932741Y-98399394D01*
X218960000Y-98297661D01*
X218960000Y-98192339D01*
X218932741Y-98090606D01*
X218880080Y-97999394D01*
X218875686Y-97995000D01*
X219838872Y-97995000D01*
X219838872Y-97994999D01*
X219786269Y-97798682D01*
X219786265Y-97798673D01*
X219690134Y-97592517D01*
X219559657Y-97406179D01*
X219398820Y-97245342D01*
X219373779Y-97227808D01*
X219330154Y-97173230D01*
X219322962Y-97103732D01*
X219354484Y-97041377D01*
X219414714Y-97005964D01*
X219431650Y-97002943D01*
X219467483Y-96999091D01*
X219602328Y-96948797D01*
X219602327Y-96948797D01*
X219602331Y-96948796D01*
X219717546Y-96862546D01*
X219803796Y-96747331D01*
X219854091Y-96612483D01*
X219860500Y-96552873D01*
X219860499Y-95704998D01*
X224874532Y-95704998D01*
X224874532Y-95705001D01*
X224894364Y-95931686D01*
X224894366Y-95931697D01*
X224953258Y-96151488D01*
X224953261Y-96151497D01*
X225049431Y-96357732D01*
X225049432Y-96357734D01*
X225179954Y-96544141D01*
X225340858Y-96705045D01*
X225340861Y-96705047D01*
X225527266Y-96835568D01*
X225585275Y-96862618D01*
X225637714Y-96908791D01*
X225656866Y-96975984D01*
X225636650Y-97042865D01*
X225585275Y-97087382D01*
X225527267Y-97114431D01*
X225527265Y-97114432D01*
X225340858Y-97244954D01*
X225179954Y-97405858D01*
X225049432Y-97592265D01*
X225049431Y-97592267D01*
X224953261Y-97798502D01*
X224953258Y-97798511D01*
X224894366Y-98018302D01*
X224894364Y-98018313D01*
X224874532Y-98244998D01*
X224874532Y-98245001D01*
X224894364Y-98471686D01*
X224894366Y-98471697D01*
X224953258Y-98691488D01*
X224953261Y-98691497D01*
X225049431Y-98897732D01*
X225049432Y-98897734D01*
X225179954Y-99084141D01*
X225340858Y-99245045D01*
X225340861Y-99245047D01*
X225527266Y-99375568D01*
X225733504Y-99471739D01*
X225953308Y-99530635D01*
X226115230Y-99544801D01*
X226179998Y-99550468D01*
X226180000Y-99550468D01*
X226180002Y-99550468D01*
X226236673Y-99545509D01*
X226406692Y-99530635D01*
X226626496Y-99471739D01*
X226832734Y-99375568D01*
X227019139Y-99245047D01*
X227180047Y-99084139D01*
X227310568Y-98897734D01*
X227406739Y-98691496D01*
X227465635Y-98471692D01*
X227485468Y-98245000D01*
X227465635Y-98018308D01*
X227406739Y-97798504D01*
X227310568Y-97592266D01*
X227180047Y-97405861D01*
X227180045Y-97405858D01*
X227019141Y-97244954D01*
X226832734Y-97114432D01*
X226832728Y-97114429D01*
X226774725Y-97087382D01*
X226722285Y-97041210D01*
X226703133Y-96974017D01*
X226723348Y-96907135D01*
X226774725Y-96862618D01*
X226832734Y-96835568D01*
X227019139Y-96705047D01*
X227180047Y-96544139D01*
X227310568Y-96357734D01*
X227406739Y-96151496D01*
X227465635Y-95931692D01*
X227485468Y-95705000D01*
X227465635Y-95478308D01*
X227406739Y-95258504D01*
X227310568Y-95052266D01*
X227180047Y-94865861D01*
X227180045Y-94865858D01*
X227019141Y-94704954D01*
X226922284Y-94637135D01*
X232249500Y-94637135D01*
X232249500Y-95782870D01*
X232249501Y-95782876D01*
X232255908Y-95842483D01*
X232306202Y-95977328D01*
X232306203Y-95977330D01*
X232306204Y-95977331D01*
X232307028Y-95978432D01*
X232307509Y-95979721D01*
X232310454Y-95985114D01*
X232309678Y-95985537D01*
X232331448Y-96043895D01*
X232322325Y-96100198D01*
X232288910Y-96180868D01*
X232288907Y-96180880D01*
X232249500Y-96378992D01*
X232249500Y-96581007D01*
X232288907Y-96779119D01*
X232288909Y-96779127D01*
X232366212Y-96965754D01*
X232408926Y-97029679D01*
X232416630Y-97041210D01*
X232420204Y-97046558D01*
X232441081Y-97113235D01*
X232422596Y-97180615D01*
X232420204Y-97184337D01*
X232366655Y-97264479D01*
X232366654Y-97264481D01*
X232289390Y-97451016D01*
X232289387Y-97451025D01*
X232279647Y-97500000D01*
X233134134Y-97500000D01*
X233158326Y-97502383D01*
X233161123Y-97502939D01*
X233173995Y-97505499D01*
X233173996Y-97505500D01*
X233173997Y-97505500D01*
X233214170Y-97505500D01*
X233199925Y-97519745D01*
X233150556Y-97605255D01*
X233125000Y-97700630D01*
X233125000Y-97799370D01*
X233150556Y-97894745D01*
X233199925Y-97980255D01*
X233219670Y-98000000D01*
X232279647Y-98000000D01*
X232289387Y-98048974D01*
X232289390Y-98048983D01*
X232366652Y-98235513D01*
X232366659Y-98235526D01*
X232478829Y-98403399D01*
X232478832Y-98403403D01*
X232621596Y-98546167D01*
X232621600Y-98546170D01*
X232789473Y-98658340D01*
X232789486Y-98658347D01*
X232976016Y-98735609D01*
X232976025Y-98735612D01*
X233174041Y-98774999D01*
X233174045Y-98775000D01*
X233250000Y-98775000D01*
X233250000Y-98030330D01*
X233269745Y-98050075D01*
X233355255Y-98099444D01*
X233450630Y-98125000D01*
X233549370Y-98125000D01*
X233644745Y-98099444D01*
X233730255Y-98050075D01*
X233750000Y-98030330D01*
X233750000Y-98775000D01*
X233825955Y-98775000D01*
X233825958Y-98774999D01*
X234023974Y-98735612D01*
X234023983Y-98735609D01*
X234210513Y-98658347D01*
X234210526Y-98658340D01*
X234378399Y-98546170D01*
X234378403Y-98546167D01*
X234521167Y-98403403D01*
X234521170Y-98403399D01*
X234633340Y-98235526D01*
X234633347Y-98235513D01*
X234710609Y-98048983D01*
X234710612Y-98048974D01*
X234720353Y-98000000D01*
X233780330Y-98000000D01*
X233800075Y-97980255D01*
X233849444Y-97894745D01*
X233875000Y-97799370D01*
X233875000Y-97700630D01*
X233849444Y-97605255D01*
X233800075Y-97519745D01*
X233785830Y-97505500D01*
X233826004Y-97505500D01*
X233826004Y-97505499D01*
X233839473Y-97502820D01*
X233841674Y-97502383D01*
X233865866Y-97500000D01*
X234720353Y-97500000D01*
X234710612Y-97451025D01*
X234710609Y-97451016D01*
X234633347Y-97264486D01*
X234633343Y-97264479D01*
X234579795Y-97184340D01*
X234558917Y-97117662D01*
X234577401Y-97050282D01*
X234579733Y-97046652D01*
X234633786Y-96965756D01*
X234711091Y-96779127D01*
X234750500Y-96581003D01*
X234750500Y-96378997D01*
X234711091Y-96180873D01*
X234677673Y-96100198D01*
X234670205Y-96030730D01*
X234689964Y-95985340D01*
X234689547Y-95985112D01*
X234692095Y-95980444D01*
X234692972Y-95978431D01*
X234693796Y-95977331D01*
X234744091Y-95842483D01*
X234750500Y-95782873D01*
X234750499Y-94637128D01*
X234744091Y-94577517D01*
X234742940Y-94574432D01*
X234693797Y-94442671D01*
X234693793Y-94442664D01*
X234607547Y-94327455D01*
X234607544Y-94327452D01*
X234492335Y-94241206D01*
X234492328Y-94241202D01*
X234357482Y-94190908D01*
X234357483Y-94190908D01*
X234297883Y-94184501D01*
X234297881Y-94184500D01*
X234297873Y-94184500D01*
X234297864Y-94184500D01*
X232702129Y-94184500D01*
X232702123Y-94184501D01*
X232642516Y-94190908D01*
X232507671Y-94241202D01*
X232507664Y-94241206D01*
X232392455Y-94327452D01*
X232392452Y-94327455D01*
X232306206Y-94442664D01*
X232306202Y-94442671D01*
X232255908Y-94577517D01*
X232249501Y-94637116D01*
X232249501Y-94637123D01*
X232249500Y-94637135D01*
X226922284Y-94637135D01*
X226832734Y-94574432D01*
X226832732Y-94574431D01*
X226626497Y-94478261D01*
X226626488Y-94478258D01*
X226406697Y-94419366D01*
X226406693Y-94419365D01*
X226406692Y-94419365D01*
X226406691Y-94419364D01*
X226406686Y-94419364D01*
X226180002Y-94399532D01*
X226179998Y-94399532D01*
X225953313Y-94419364D01*
X225953302Y-94419366D01*
X225733511Y-94478258D01*
X225733502Y-94478261D01*
X225527267Y-94574431D01*
X225527265Y-94574432D01*
X225340858Y-94704954D01*
X225179954Y-94865858D01*
X225049432Y-95052265D01*
X225049431Y-95052267D01*
X224953261Y-95258502D01*
X224953258Y-95258511D01*
X224894366Y-95478302D01*
X224894364Y-95478313D01*
X224874532Y-95704998D01*
X219860499Y-95704998D01*
X219860499Y-94857128D01*
X219854091Y-94797517D01*
X219819567Y-94704954D01*
X219803797Y-94662671D01*
X219803793Y-94662664D01*
X219717547Y-94547455D01*
X219717544Y-94547452D01*
X219602335Y-94461206D01*
X219602328Y-94461202D01*
X219467482Y-94410908D01*
X219467483Y-94410908D01*
X219407883Y-94404501D01*
X219407881Y-94404500D01*
X219407873Y-94404500D01*
X219407864Y-94404500D01*
X217712129Y-94404500D01*
X217712123Y-94404501D01*
X217652516Y-94410908D01*
X217517671Y-94461202D01*
X217517664Y-94461206D01*
X217402455Y-94547452D01*
X217402452Y-94547455D01*
X217316206Y-94662664D01*
X217316202Y-94662671D01*
X217265908Y-94797517D01*
X217259501Y-94857116D01*
X217259501Y-94857123D01*
X217259500Y-94857135D01*
X185538141Y-94857135D01*
X185676558Y-94718718D01*
X185788786Y-94550756D01*
X185866091Y-94364127D01*
X185905500Y-94166003D01*
X185905500Y-93513997D01*
X185866091Y-93315873D01*
X185788786Y-93129244D01*
X185788784Y-93129241D01*
X185788782Y-93129237D01*
X185676558Y-92961281D01*
X185533718Y-92818441D01*
X185365762Y-92706217D01*
X185365752Y-92706212D01*
X185179127Y-92628909D01*
X185179119Y-92628907D01*
X184981007Y-92589500D01*
X184981003Y-92589500D01*
X184778997Y-92589500D01*
X184778992Y-92589500D01*
X184580880Y-92628907D01*
X184580872Y-92628909D01*
X184394244Y-92706213D01*
X184313891Y-92759904D01*
X184247213Y-92780782D01*
X184179833Y-92762297D01*
X184176109Y-92759904D01*
X184095755Y-92706213D01*
X183909127Y-92628909D01*
X183909119Y-92628907D01*
X183711007Y-92589500D01*
X183711003Y-92589500D01*
X183508997Y-92589500D01*
X183508992Y-92589500D01*
X183310880Y-92628907D01*
X183310868Y-92628910D01*
X183230198Y-92662325D01*
X183160729Y-92669794D01*
X183115342Y-92650036D01*
X183115114Y-92650454D01*
X183110447Y-92647905D01*
X183108432Y-92647028D01*
X183107331Y-92646204D01*
X183107330Y-92646203D01*
X183107328Y-92646202D01*
X182972482Y-92595908D01*
X182972483Y-92595908D01*
X182912883Y-92589501D01*
X182912881Y-92589500D01*
X182912873Y-92589500D01*
X182912864Y-92589500D01*
X181767129Y-92589500D01*
X181767123Y-92589501D01*
X181707516Y-92595908D01*
X181572671Y-92646202D01*
X181572664Y-92646206D01*
X181457455Y-92732452D01*
X181457452Y-92732455D01*
X181371206Y-92847664D01*
X181371202Y-92847671D01*
X181320908Y-92982517D01*
X181314501Y-93042116D01*
X181314500Y-93042135D01*
X154250000Y-93042135D01*
X154250000Y-92479998D01*
X194554532Y-92479998D01*
X194554532Y-92480001D01*
X194574364Y-92706686D01*
X194574366Y-92706697D01*
X194633258Y-92926488D01*
X194633261Y-92926497D01*
X194729431Y-93132732D01*
X194729432Y-93132734D01*
X194859954Y-93319141D01*
X195020858Y-93480045D01*
X195020861Y-93480047D01*
X195207266Y-93610568D01*
X195413504Y-93706739D01*
X195633308Y-93765635D01*
X195795230Y-93779801D01*
X195859998Y-93785468D01*
X195860000Y-93785468D01*
X195860002Y-93785468D01*
X195916673Y-93780509D01*
X196086692Y-93765635D01*
X196306496Y-93706739D01*
X196512734Y-93610568D01*
X196699139Y-93480047D01*
X196860047Y-93319139D01*
X196990568Y-93132734D01*
X197086739Y-92926496D01*
X197145635Y-92706692D01*
X197165468Y-92480000D01*
X197165468Y-92479998D01*
X201554532Y-92479998D01*
X201554532Y-92480001D01*
X201574364Y-92706686D01*
X201574366Y-92706697D01*
X201633258Y-92926488D01*
X201633261Y-92926497D01*
X201729431Y-93132732D01*
X201729432Y-93132734D01*
X201859954Y-93319141D01*
X202020858Y-93480045D01*
X202020861Y-93480047D01*
X202207266Y-93610568D01*
X202413504Y-93706739D01*
X202633308Y-93765635D01*
X202795230Y-93779801D01*
X202859998Y-93785468D01*
X202860000Y-93785468D01*
X202860002Y-93785468D01*
X202916673Y-93780509D01*
X203086692Y-93765635D01*
X203306496Y-93706739D01*
X203512734Y-93610568D01*
X203699139Y-93480047D01*
X203860047Y-93319139D01*
X203990568Y-93132734D01*
X204086739Y-92926496D01*
X204145635Y-92706692D01*
X204165468Y-92480000D01*
X204145635Y-92253308D01*
X204086739Y-92033504D01*
X203990568Y-91827266D01*
X203860047Y-91640861D01*
X203860045Y-91640858D01*
X203699141Y-91479954D01*
X203512734Y-91349432D01*
X203512732Y-91349431D01*
X203306497Y-91253261D01*
X203306488Y-91253258D01*
X203086697Y-91194366D01*
X203086693Y-91194365D01*
X203086692Y-91194365D01*
X203086691Y-91194364D01*
X203086686Y-91194364D01*
X202860002Y-91174532D01*
X202859998Y-91174532D01*
X202633313Y-91194364D01*
X202633302Y-91194366D01*
X202413511Y-91253258D01*
X202413502Y-91253261D01*
X202207267Y-91349431D01*
X202207265Y-91349432D01*
X202020858Y-91479954D01*
X201859954Y-91640858D01*
X201729432Y-91827265D01*
X201729431Y-91827267D01*
X201633261Y-92033502D01*
X201633258Y-92033511D01*
X201574366Y-92253302D01*
X201574364Y-92253313D01*
X201554532Y-92479998D01*
X197165468Y-92479998D01*
X197145635Y-92253308D01*
X197086739Y-92033504D01*
X196990568Y-91827266D01*
X196860047Y-91640861D01*
X196860045Y-91640858D01*
X196699141Y-91479954D01*
X196512734Y-91349432D01*
X196512732Y-91349431D01*
X196306497Y-91253261D01*
X196306488Y-91253258D01*
X196086697Y-91194366D01*
X196086693Y-91194365D01*
X196086692Y-91194365D01*
X196086691Y-91194364D01*
X196086686Y-91194364D01*
X195860002Y-91174532D01*
X195859998Y-91174532D01*
X195633313Y-91194364D01*
X195633302Y-91194366D01*
X195413511Y-91253258D01*
X195413502Y-91253261D01*
X195207267Y-91349431D01*
X195207265Y-91349432D01*
X195020858Y-91479954D01*
X194859954Y-91640858D01*
X194729432Y-91827265D01*
X194729431Y-91827267D01*
X194633261Y-92033502D01*
X194633258Y-92033511D01*
X194574366Y-92253302D01*
X194574364Y-92253313D01*
X194554532Y-92479998D01*
X154250000Y-92479998D01*
X154250000Y-91059998D01*
X217304532Y-91059998D01*
X217304532Y-91060001D01*
X217324364Y-91286686D01*
X217324366Y-91286697D01*
X217383258Y-91506488D01*
X217383261Y-91506497D01*
X217479431Y-91712732D01*
X217479432Y-91712734D01*
X217609954Y-91899141D01*
X217770858Y-92060045D01*
X217770861Y-92060047D01*
X217957266Y-92190568D01*
X218163504Y-92286739D01*
X218383308Y-92345635D01*
X218545230Y-92359801D01*
X218609998Y-92365468D01*
X218610000Y-92365468D01*
X218610002Y-92365468D01*
X218666673Y-92360509D01*
X218836692Y-92345635D01*
X219056496Y-92286739D01*
X219262734Y-92190568D01*
X219449139Y-92060047D01*
X219610047Y-91899139D01*
X219740568Y-91712734D01*
X219760496Y-91669998D01*
X240194532Y-91669998D01*
X240194532Y-91670001D01*
X240214364Y-91896686D01*
X240214366Y-91896697D01*
X240273258Y-92116488D01*
X240273261Y-92116497D01*
X240369431Y-92322732D01*
X240369432Y-92322734D01*
X240499954Y-92509141D01*
X240660858Y-92670045D01*
X240707693Y-92702839D01*
X240847266Y-92800568D01*
X241053504Y-92896739D01*
X241273308Y-92955635D01*
X241435230Y-92969801D01*
X241499998Y-92975468D01*
X241500000Y-92975468D01*
X241500002Y-92975468D01*
X241556673Y-92970509D01*
X241726692Y-92955635D01*
X241946496Y-92896739D01*
X242152734Y-92800568D01*
X242339139Y-92670047D01*
X242500047Y-92509139D01*
X242630568Y-92322734D01*
X242726739Y-92116496D01*
X242785635Y-91896692D01*
X242805468Y-91670000D01*
X242785635Y-91443308D01*
X242726739Y-91223504D01*
X242630568Y-91017266D01*
X242500047Y-90830861D01*
X242500045Y-90830858D01*
X242339141Y-90669954D01*
X242152734Y-90539432D01*
X242152732Y-90539431D01*
X241946497Y-90443261D01*
X241946488Y-90443258D01*
X241726697Y-90384366D01*
X241726693Y-90384365D01*
X241726692Y-90384365D01*
X241726691Y-90384364D01*
X241726686Y-90384364D01*
X241500002Y-90364532D01*
X241499998Y-90364532D01*
X241273313Y-90384364D01*
X241273302Y-90384366D01*
X241053511Y-90443258D01*
X241053502Y-90443261D01*
X240847267Y-90539431D01*
X240847265Y-90539432D01*
X240660858Y-90669954D01*
X240499954Y-90830858D01*
X240369432Y-91017265D01*
X240369431Y-91017267D01*
X240273261Y-91223502D01*
X240273258Y-91223511D01*
X240214366Y-91443302D01*
X240214364Y-91443313D01*
X240194532Y-91669998D01*
X219760496Y-91669998D01*
X219836739Y-91506496D01*
X219895635Y-91286692D01*
X219915468Y-91060000D01*
X219895635Y-90833308D01*
X219836739Y-90613504D01*
X219740568Y-90407266D01*
X219610047Y-90220861D01*
X219610045Y-90220858D01*
X219449141Y-90059954D01*
X219262734Y-89929432D01*
X219262732Y-89929431D01*
X219056497Y-89833261D01*
X219056488Y-89833258D01*
X218836697Y-89774366D01*
X218836693Y-89774365D01*
X218836692Y-89774365D01*
X218836691Y-89774364D01*
X218836686Y-89774364D01*
X218610002Y-89754532D01*
X218609998Y-89754532D01*
X218383313Y-89774364D01*
X218383302Y-89774366D01*
X218163511Y-89833258D01*
X218163502Y-89833261D01*
X217957267Y-89929431D01*
X217957265Y-89929432D01*
X217770858Y-90059954D01*
X217609954Y-90220858D01*
X217479432Y-90407265D01*
X217479431Y-90407267D01*
X217383261Y-90613502D01*
X217383258Y-90613511D01*
X217324366Y-90833302D01*
X217324364Y-90833313D01*
X217304532Y-91059998D01*
X154250000Y-91059998D01*
X154250000Y-89309998D01*
X225054532Y-89309998D01*
X225054532Y-89310001D01*
X225074364Y-89536686D01*
X225074366Y-89536697D01*
X225133258Y-89756488D01*
X225133261Y-89756497D01*
X225229431Y-89962732D01*
X225229432Y-89962734D01*
X225359954Y-90149141D01*
X225520858Y-90310045D01*
X225520861Y-90310047D01*
X225707266Y-90440568D01*
X225913504Y-90536739D01*
X225913509Y-90536740D01*
X225913511Y-90536741D01*
X225923554Y-90539432D01*
X226133308Y-90595635D01*
X226295230Y-90609801D01*
X226359998Y-90615468D01*
X226360000Y-90615468D01*
X226360002Y-90615468D01*
X226416673Y-90610509D01*
X226586692Y-90595635D01*
X226806496Y-90536739D01*
X227012734Y-90440568D01*
X227199139Y-90310047D01*
X227360047Y-90149139D01*
X227490568Y-89962734D01*
X227586739Y-89756496D01*
X227645635Y-89536692D01*
X227665468Y-89310000D01*
X227645635Y-89083308D01*
X227586739Y-88863504D01*
X227490568Y-88657266D01*
X227360047Y-88470861D01*
X227360045Y-88470858D01*
X227199141Y-88309954D01*
X227012734Y-88179432D01*
X227012732Y-88179431D01*
X226806497Y-88083261D01*
X226806488Y-88083258D01*
X226586697Y-88024366D01*
X226586693Y-88024365D01*
X226586692Y-88024365D01*
X226586691Y-88024364D01*
X226586686Y-88024364D01*
X226360002Y-88004532D01*
X226359998Y-88004532D01*
X226133313Y-88024364D01*
X226133302Y-88024366D01*
X225913511Y-88083258D01*
X225913502Y-88083261D01*
X225707267Y-88179431D01*
X225707265Y-88179432D01*
X225520858Y-88309954D01*
X225359954Y-88470858D01*
X225229432Y-88657265D01*
X225229431Y-88657267D01*
X225133261Y-88863502D01*
X225133258Y-88863511D01*
X225074366Y-89083302D01*
X225074364Y-89083313D01*
X225054532Y-89309998D01*
X154250000Y-89309998D01*
X154250000Y-87764999D01*
X248644341Y-87764999D01*
X248644341Y-87765000D01*
X248664936Y-88000403D01*
X248664938Y-88000413D01*
X248726094Y-88228655D01*
X248726096Y-88228659D01*
X248726097Y-88228663D01*
X248764004Y-88309954D01*
X248825965Y-88442830D01*
X248825967Y-88442834D01*
X248934281Y-88597521D01*
X248961505Y-88636401D01*
X249128599Y-88803495D01*
X249214298Y-88863502D01*
X249322165Y-88939032D01*
X249322167Y-88939033D01*
X249322170Y-88939035D01*
X249536337Y-89038903D01*
X249764592Y-89100063D01*
X249952918Y-89116539D01*
X249999999Y-89120659D01*
X250000000Y-89120659D01*
X250000001Y-89120659D01*
X250039234Y-89117226D01*
X250235408Y-89100063D01*
X250463663Y-89038903D01*
X250677830Y-88939035D01*
X250871401Y-88803495D01*
X251038495Y-88636401D01*
X251174035Y-88442830D01*
X251273903Y-88228663D01*
X251335063Y-88000408D01*
X251355659Y-87765000D01*
X251335063Y-87529592D01*
X251273903Y-87301337D01*
X251174035Y-87087171D01*
X251138722Y-87036739D01*
X251038496Y-86893600D01*
X251038495Y-86893599D01*
X250916567Y-86771671D01*
X250883084Y-86710351D01*
X250888068Y-86640659D01*
X250929939Y-86584725D01*
X250960915Y-86567810D01*
X251092331Y-86518796D01*
X251207546Y-86432546D01*
X251293796Y-86317331D01*
X251344091Y-86182483D01*
X251350500Y-86122873D01*
X251350499Y-84327128D01*
X251344091Y-84267517D01*
X251308987Y-84173399D01*
X251293797Y-84132671D01*
X251293793Y-84132664D01*
X251207547Y-84017455D01*
X251207544Y-84017452D01*
X251092335Y-83931206D01*
X251092328Y-83931202D01*
X250957482Y-83880908D01*
X250957483Y-83880908D01*
X250897883Y-83874501D01*
X250897881Y-83874500D01*
X250897873Y-83874500D01*
X250897864Y-83874500D01*
X249102129Y-83874500D01*
X249102123Y-83874501D01*
X249042516Y-83880908D01*
X248907671Y-83931202D01*
X248907664Y-83931206D01*
X248792455Y-84017452D01*
X248792452Y-84017455D01*
X248706206Y-84132664D01*
X248706202Y-84132671D01*
X248655908Y-84267517D01*
X248650678Y-84316167D01*
X248649501Y-84327123D01*
X248649500Y-84327135D01*
X248649500Y-86122870D01*
X248649501Y-86122876D01*
X248655908Y-86182483D01*
X248706202Y-86317328D01*
X248706206Y-86317335D01*
X248792452Y-86432544D01*
X248792455Y-86432547D01*
X248907664Y-86518793D01*
X248907671Y-86518797D01*
X249039081Y-86567810D01*
X249095015Y-86609681D01*
X249119432Y-86675145D01*
X249104580Y-86743418D01*
X249083430Y-86771673D01*
X248961503Y-86893600D01*
X248825965Y-87087169D01*
X248825964Y-87087171D01*
X248726098Y-87301335D01*
X248726094Y-87301344D01*
X248664938Y-87529586D01*
X248664936Y-87529596D01*
X248644341Y-87764999D01*
X154250000Y-87764999D01*
X154250000Y-85809998D01*
X180444532Y-85809998D01*
X180444532Y-85810001D01*
X180464364Y-86036686D01*
X180464366Y-86036697D01*
X180523258Y-86256488D01*
X180523261Y-86256497D01*
X180619431Y-86462732D01*
X180619432Y-86462734D01*
X180749954Y-86649141D01*
X180910858Y-86810045D01*
X180910861Y-86810047D01*
X181097266Y-86940568D01*
X181303504Y-87036739D01*
X181523308Y-87095635D01*
X181685230Y-87109801D01*
X181749998Y-87115468D01*
X181750000Y-87115468D01*
X181750002Y-87115468D01*
X181806673Y-87110509D01*
X181976692Y-87095635D01*
X182196496Y-87036739D01*
X182402734Y-86940568D01*
X182589139Y-86810047D01*
X182750047Y-86649139D01*
X182880568Y-86462734D01*
X182976739Y-86256496D01*
X183035635Y-86036692D01*
X183055468Y-85810000D01*
X183055468Y-85809998D01*
X187054532Y-85809998D01*
X187054532Y-85810001D01*
X187074364Y-86036686D01*
X187074366Y-86036697D01*
X187133258Y-86256488D01*
X187133261Y-86256497D01*
X187229431Y-86462732D01*
X187229432Y-86462734D01*
X187359954Y-86649141D01*
X187520858Y-86810045D01*
X187520861Y-86810047D01*
X187707266Y-86940568D01*
X187913504Y-87036739D01*
X188133308Y-87095635D01*
X188295230Y-87109801D01*
X188359998Y-87115468D01*
X188360000Y-87115468D01*
X188360002Y-87115468D01*
X188416673Y-87110509D01*
X188586692Y-87095635D01*
X188806496Y-87036739D01*
X189012734Y-86940568D01*
X189199139Y-86810047D01*
X189360047Y-86649139D01*
X189490568Y-86462734D01*
X189586739Y-86256496D01*
X189645635Y-86036692D01*
X189665468Y-85810000D01*
X189645635Y-85583308D01*
X189586739Y-85363504D01*
X189490568Y-85157266D01*
X189360047Y-84970861D01*
X189360045Y-84970858D01*
X189199141Y-84809954D01*
X189012734Y-84679432D01*
X189012732Y-84679431D01*
X188806497Y-84583261D01*
X188806488Y-84583258D01*
X188586697Y-84524366D01*
X188586693Y-84524365D01*
X188586692Y-84524365D01*
X188586691Y-84524364D01*
X188586686Y-84524364D01*
X188360002Y-84504532D01*
X188359998Y-84504532D01*
X188133313Y-84524364D01*
X188133302Y-84524366D01*
X187913511Y-84583258D01*
X187913502Y-84583261D01*
X187707267Y-84679431D01*
X187707265Y-84679432D01*
X187520858Y-84809954D01*
X187359954Y-84970858D01*
X187229432Y-85157265D01*
X187229431Y-85157267D01*
X187133261Y-85363502D01*
X187133258Y-85363511D01*
X187074366Y-85583302D01*
X187074364Y-85583313D01*
X187054532Y-85809998D01*
X183055468Y-85809998D01*
X183035635Y-85583308D01*
X182976739Y-85363504D01*
X182880568Y-85157266D01*
X182750047Y-84970861D01*
X182750045Y-84970858D01*
X182589141Y-84809954D01*
X182402734Y-84679432D01*
X182402732Y-84679431D01*
X182196497Y-84583261D01*
X182196488Y-84583258D01*
X181976697Y-84524366D01*
X181976693Y-84524365D01*
X181976692Y-84524365D01*
X181976691Y-84524364D01*
X181976686Y-84524364D01*
X181750002Y-84504532D01*
X181749998Y-84504532D01*
X181523313Y-84524364D01*
X181523302Y-84524366D01*
X181303511Y-84583258D01*
X181303502Y-84583261D01*
X181097267Y-84679431D01*
X181097265Y-84679432D01*
X180910858Y-84809954D01*
X180749954Y-84970858D01*
X180619432Y-85157265D01*
X180619431Y-85157267D01*
X180523261Y-85363502D01*
X180523258Y-85363511D01*
X180464366Y-85583302D01*
X180464364Y-85583313D01*
X180444532Y-85809998D01*
X154250000Y-85809998D01*
X154250000Y-82319998D01*
X194554532Y-82319998D01*
X194554532Y-82320001D01*
X194574364Y-82546686D01*
X194574366Y-82546697D01*
X194633258Y-82766488D01*
X194633261Y-82766497D01*
X194729431Y-82972732D01*
X194729432Y-82972734D01*
X194859954Y-83159141D01*
X195020858Y-83320045D01*
X195020861Y-83320047D01*
X195207266Y-83450568D01*
X195413504Y-83546739D01*
X195633308Y-83605635D01*
X195795230Y-83619801D01*
X195859998Y-83625468D01*
X195860000Y-83625468D01*
X195860002Y-83625468D01*
X195916673Y-83620509D01*
X196086692Y-83605635D01*
X196306496Y-83546739D01*
X196512734Y-83450568D01*
X196699139Y-83320047D01*
X196860047Y-83159139D01*
X196990568Y-82972734D01*
X197086739Y-82766496D01*
X197145635Y-82546692D01*
X197162755Y-82351007D01*
X197165468Y-82320001D01*
X197165468Y-82319998D01*
X201554532Y-82319998D01*
X201554532Y-82320001D01*
X201574364Y-82546686D01*
X201574366Y-82546697D01*
X201633258Y-82766488D01*
X201633261Y-82766497D01*
X201729431Y-82972732D01*
X201729432Y-82972734D01*
X201859954Y-83159141D01*
X202020858Y-83320045D01*
X202020861Y-83320047D01*
X202207266Y-83450568D01*
X202413504Y-83546739D01*
X202633308Y-83605635D01*
X202795230Y-83619801D01*
X202859998Y-83625468D01*
X202860000Y-83625468D01*
X202860002Y-83625468D01*
X202916673Y-83620509D01*
X203086692Y-83605635D01*
X203306496Y-83546739D01*
X203512734Y-83450568D01*
X203699139Y-83320047D01*
X203860047Y-83159139D01*
X203990568Y-82972734D01*
X204086739Y-82766496D01*
X204145635Y-82546692D01*
X204162755Y-82351007D01*
X204165468Y-82320001D01*
X204165468Y-82319998D01*
X204155448Y-82205468D01*
X204145635Y-82093308D01*
X204086739Y-81873504D01*
X203990568Y-81667266D01*
X203860047Y-81480861D01*
X203860045Y-81480858D01*
X203699141Y-81319954D01*
X203512734Y-81189432D01*
X203512732Y-81189431D01*
X203306497Y-81093261D01*
X203306488Y-81093258D01*
X203086697Y-81034366D01*
X203086693Y-81034365D01*
X203086692Y-81034365D01*
X203086691Y-81034364D01*
X203086686Y-81034364D01*
X202860002Y-81014532D01*
X202859998Y-81014532D01*
X202633313Y-81034364D01*
X202633302Y-81034366D01*
X202413511Y-81093258D01*
X202413502Y-81093261D01*
X202207267Y-81189431D01*
X202207265Y-81189432D01*
X202020858Y-81319954D01*
X201859954Y-81480858D01*
X201729432Y-81667265D01*
X201729431Y-81667267D01*
X201633261Y-81873502D01*
X201633258Y-81873511D01*
X201574366Y-82093302D01*
X201574364Y-82093313D01*
X201554532Y-82319998D01*
X197165468Y-82319998D01*
X197155448Y-82205468D01*
X197145635Y-82093308D01*
X197086739Y-81873504D01*
X196990568Y-81667266D01*
X196860047Y-81480861D01*
X196860045Y-81480858D01*
X196699141Y-81319954D01*
X196512734Y-81189432D01*
X196512732Y-81189431D01*
X196306497Y-81093261D01*
X196306488Y-81093258D01*
X196086697Y-81034366D01*
X196086693Y-81034365D01*
X196086692Y-81034365D01*
X196086691Y-81034364D01*
X196086686Y-81034364D01*
X195860002Y-81014532D01*
X195859998Y-81014532D01*
X195633313Y-81034364D01*
X195633302Y-81034366D01*
X195413511Y-81093258D01*
X195413502Y-81093261D01*
X195207267Y-81189431D01*
X195207265Y-81189432D01*
X195020858Y-81319954D01*
X194859954Y-81480858D01*
X194729432Y-81667265D01*
X194729431Y-81667267D01*
X194633261Y-81873502D01*
X194633258Y-81873511D01*
X194574366Y-82093302D01*
X194574364Y-82093313D01*
X194554532Y-82319998D01*
X154250000Y-82319998D01*
X154250000Y-80407135D01*
X209359500Y-80407135D01*
X209359500Y-81552870D01*
X209359501Y-81552876D01*
X209365908Y-81612483D01*
X209416202Y-81747328D01*
X209416203Y-81747330D01*
X209416204Y-81747331D01*
X209417028Y-81748432D01*
X209417509Y-81749721D01*
X209420454Y-81755114D01*
X209419678Y-81755537D01*
X209441448Y-81813895D01*
X209432325Y-81870198D01*
X209398910Y-81950868D01*
X209398907Y-81950880D01*
X209359500Y-82148992D01*
X209359500Y-82351007D01*
X209398907Y-82549119D01*
X209398909Y-82549127D01*
X209476212Y-82735754D01*
X209530204Y-82816558D01*
X209551081Y-82883235D01*
X209532596Y-82950615D01*
X209530204Y-82954337D01*
X209476655Y-83034479D01*
X209476654Y-83034481D01*
X209399390Y-83221016D01*
X209399387Y-83221025D01*
X209389647Y-83270000D01*
X210244134Y-83270000D01*
X210268326Y-83272383D01*
X210271123Y-83272939D01*
X210283995Y-83275499D01*
X210283996Y-83275500D01*
X210283997Y-83275500D01*
X210324170Y-83275500D01*
X210309925Y-83289745D01*
X210260556Y-83375255D01*
X210235000Y-83470630D01*
X210235000Y-83569370D01*
X210260556Y-83664745D01*
X210309925Y-83750255D01*
X210329670Y-83770000D01*
X209389647Y-83770000D01*
X209399387Y-83818974D01*
X209399390Y-83818983D01*
X209476652Y-84005513D01*
X209476659Y-84005526D01*
X209588829Y-84173399D01*
X209588832Y-84173403D01*
X209731596Y-84316167D01*
X209731600Y-84316170D01*
X209899473Y-84428340D01*
X209899486Y-84428347D01*
X210086016Y-84505609D01*
X210086025Y-84505612D01*
X210284041Y-84544999D01*
X210284045Y-84545000D01*
X210360000Y-84545000D01*
X210360000Y-83800330D01*
X210379745Y-83820075D01*
X210465255Y-83869444D01*
X210560630Y-83895000D01*
X210659370Y-83895000D01*
X210754745Y-83869444D01*
X210840255Y-83820075D01*
X210860000Y-83800330D01*
X210860000Y-84545000D01*
X210935955Y-84545000D01*
X210935958Y-84544999D01*
X211133974Y-84505612D01*
X211133983Y-84505609D01*
X211320513Y-84428347D01*
X211320526Y-84428340D01*
X211488399Y-84316170D01*
X211488403Y-84316167D01*
X211631167Y-84173403D01*
X211631170Y-84173399D01*
X211743340Y-84005526D01*
X211743347Y-84005513D01*
X211820609Y-83818983D01*
X211820612Y-83818974D01*
X211830353Y-83770000D01*
X210890330Y-83770000D01*
X210910075Y-83750255D01*
X210959444Y-83664745D01*
X210985000Y-83569370D01*
X210985000Y-83470630D01*
X210959444Y-83375255D01*
X210910075Y-83289745D01*
X210895830Y-83275500D01*
X210936004Y-83275500D01*
X210936004Y-83275499D01*
X210949473Y-83272820D01*
X210951674Y-83272383D01*
X210975866Y-83270000D01*
X211830353Y-83270000D01*
X211820612Y-83221025D01*
X211820609Y-83221016D01*
X211743347Y-83034486D01*
X211743343Y-83034479D01*
X211689795Y-82954340D01*
X211668917Y-82887662D01*
X211687401Y-82820282D01*
X211689733Y-82816652D01*
X211743786Y-82735756D01*
X211821091Y-82549127D01*
X211860500Y-82351003D01*
X211860500Y-82148997D01*
X211821091Y-81950873D01*
X211787673Y-81870198D01*
X211780205Y-81800730D01*
X211799964Y-81755340D01*
X211799547Y-81755112D01*
X211802095Y-81750444D01*
X211802972Y-81748431D01*
X211803796Y-81747331D01*
X211854091Y-81612483D01*
X211860500Y-81552873D01*
X211860499Y-80899998D01*
X217304532Y-80899998D01*
X217304532Y-80900001D01*
X217324364Y-81126686D01*
X217324366Y-81126697D01*
X217383258Y-81346488D01*
X217383261Y-81346497D01*
X217479431Y-81552732D01*
X217479432Y-81552734D01*
X217609954Y-81739141D01*
X217770858Y-81900045D01*
X217770861Y-81900047D01*
X217957266Y-82030568D01*
X218163504Y-82126739D01*
X218383308Y-82185635D01*
X218545230Y-82199801D01*
X218609998Y-82205468D01*
X218610000Y-82205468D01*
X218610002Y-82205468D01*
X218666673Y-82200509D01*
X218836692Y-82185635D01*
X219056496Y-82126739D01*
X219262734Y-82030568D01*
X219449139Y-81900047D01*
X219610047Y-81739139D01*
X219740568Y-81552734D01*
X219836739Y-81346496D01*
X219895635Y-81126692D01*
X219915468Y-80900000D01*
X219895635Y-80673308D01*
X219842965Y-80476739D01*
X219836741Y-80453511D01*
X219836738Y-80453502D01*
X219828406Y-80435635D01*
X219740568Y-80247266D01*
X219610047Y-80060861D01*
X219610045Y-80060858D01*
X219449141Y-79899954D01*
X219262734Y-79769432D01*
X219262732Y-79769431D01*
X219056497Y-79673261D01*
X219056488Y-79673258D01*
X218836697Y-79614366D01*
X218836693Y-79614365D01*
X218836692Y-79614365D01*
X218836691Y-79614364D01*
X218836686Y-79614364D01*
X218610002Y-79594532D01*
X218609998Y-79594532D01*
X218383313Y-79614364D01*
X218383302Y-79614366D01*
X218163511Y-79673258D01*
X218163502Y-79673261D01*
X217957267Y-79769431D01*
X217957265Y-79769432D01*
X217770858Y-79899954D01*
X217609954Y-80060858D01*
X217479432Y-80247265D01*
X217479431Y-80247267D01*
X217383261Y-80453502D01*
X217383258Y-80453511D01*
X217324366Y-80673302D01*
X217324364Y-80673313D01*
X217304532Y-80899998D01*
X211860499Y-80899998D01*
X211860499Y-80407128D01*
X211854091Y-80347517D01*
X211829120Y-80280567D01*
X211803797Y-80212671D01*
X211803793Y-80212664D01*
X211717547Y-80097455D01*
X211717544Y-80097452D01*
X211602335Y-80011206D01*
X211602328Y-80011202D01*
X211467482Y-79960908D01*
X211467483Y-79960908D01*
X211407883Y-79954501D01*
X211407881Y-79954500D01*
X211407873Y-79954500D01*
X211407864Y-79954500D01*
X209812129Y-79954500D01*
X209812123Y-79954501D01*
X209752516Y-79960908D01*
X209617671Y-80011202D01*
X209617664Y-80011206D01*
X209502455Y-80097452D01*
X209502452Y-80097455D01*
X209416206Y-80212664D01*
X209416202Y-80212671D01*
X209365908Y-80347517D01*
X209359501Y-80407116D01*
X209359501Y-80407123D01*
X209359500Y-80407135D01*
X154250000Y-80407135D01*
X154250000Y-79149998D01*
X225054532Y-79149998D01*
X225054532Y-79150001D01*
X225074364Y-79376686D01*
X225074366Y-79376697D01*
X225133258Y-79596488D01*
X225133261Y-79596497D01*
X225229431Y-79802732D01*
X225229432Y-79802734D01*
X225359954Y-79989141D01*
X225520858Y-80150045D01*
X225520861Y-80150047D01*
X225707266Y-80280568D01*
X225913504Y-80376739D01*
X226133308Y-80435635D01*
X226295230Y-80449801D01*
X226359998Y-80455468D01*
X226360000Y-80455468D01*
X226360002Y-80455468D01*
X226416673Y-80450509D01*
X226586692Y-80435635D01*
X226806496Y-80376739D01*
X227012734Y-80280568D01*
X227199139Y-80150047D01*
X227360047Y-79989139D01*
X227490568Y-79802734D01*
X227586739Y-79596496D01*
X227645635Y-79376692D01*
X227656719Y-79249998D01*
X233114532Y-79249998D01*
X233114532Y-79250001D01*
X233134364Y-79476686D01*
X233134366Y-79476697D01*
X233193258Y-79696488D01*
X233193261Y-79696497D01*
X233289431Y-79902732D01*
X233289432Y-79902734D01*
X233419954Y-80089141D01*
X233580858Y-80250045D01*
X233580861Y-80250047D01*
X233767266Y-80380568D01*
X233973504Y-80476739D01*
X234193308Y-80535635D01*
X234355230Y-80549801D01*
X234419998Y-80555468D01*
X234420000Y-80555468D01*
X234420002Y-80555468D01*
X234476673Y-80550509D01*
X234646692Y-80535635D01*
X234866496Y-80476739D01*
X235072734Y-80380568D01*
X235259139Y-80250047D01*
X235420047Y-80089139D01*
X235550568Y-79902734D01*
X235646739Y-79696496D01*
X235705635Y-79476692D01*
X235725468Y-79250000D01*
X235725468Y-79249998D01*
X243274532Y-79249998D01*
X243274532Y-79250001D01*
X243294364Y-79476686D01*
X243294366Y-79476697D01*
X243353258Y-79696488D01*
X243353261Y-79696497D01*
X243449431Y-79902732D01*
X243449432Y-79902734D01*
X243579954Y-80089141D01*
X243740858Y-80250045D01*
X243740861Y-80250047D01*
X243927266Y-80380568D01*
X244133504Y-80476739D01*
X244353308Y-80535635D01*
X244515230Y-80549801D01*
X244579998Y-80555468D01*
X244580000Y-80555468D01*
X244580002Y-80555468D01*
X244636673Y-80550509D01*
X244806692Y-80535635D01*
X245026496Y-80476739D01*
X245232734Y-80380568D01*
X245419139Y-80250047D01*
X245580047Y-80089139D01*
X245710568Y-79902734D01*
X245806739Y-79696496D01*
X245865635Y-79476692D01*
X245885468Y-79250000D01*
X245865635Y-79023308D01*
X245806739Y-78803504D01*
X245710568Y-78597266D01*
X245580047Y-78410861D01*
X245580045Y-78410858D01*
X245419141Y-78249954D01*
X245232734Y-78119432D01*
X245232732Y-78119431D01*
X245026497Y-78023261D01*
X245026488Y-78023258D01*
X244806697Y-77964366D01*
X244806693Y-77964365D01*
X244806692Y-77964365D01*
X244806691Y-77964364D01*
X244806686Y-77964364D01*
X244580002Y-77944532D01*
X244579998Y-77944532D01*
X244353313Y-77964364D01*
X244353302Y-77964366D01*
X244133511Y-78023258D01*
X244133502Y-78023261D01*
X243927267Y-78119431D01*
X243927265Y-78119432D01*
X243740858Y-78249954D01*
X243579954Y-78410858D01*
X243449432Y-78597265D01*
X243449431Y-78597267D01*
X243353261Y-78803502D01*
X243353258Y-78803511D01*
X243294366Y-79023302D01*
X243294364Y-79023313D01*
X243274532Y-79249998D01*
X235725468Y-79249998D01*
X235705635Y-79023308D01*
X235646739Y-78803504D01*
X235550568Y-78597266D01*
X235420047Y-78410861D01*
X235420045Y-78410858D01*
X235259141Y-78249954D01*
X235072734Y-78119432D01*
X235072732Y-78119431D01*
X234866497Y-78023261D01*
X234866488Y-78023258D01*
X234646697Y-77964366D01*
X234646693Y-77964365D01*
X234646692Y-77964365D01*
X234646691Y-77964364D01*
X234646686Y-77964364D01*
X234420002Y-77944532D01*
X234419998Y-77944532D01*
X234193313Y-77964364D01*
X234193302Y-77964366D01*
X233973511Y-78023258D01*
X233973502Y-78023261D01*
X233767267Y-78119431D01*
X233767265Y-78119432D01*
X233580858Y-78249954D01*
X233419954Y-78410858D01*
X233289432Y-78597265D01*
X233289431Y-78597267D01*
X233193261Y-78803502D01*
X233193258Y-78803511D01*
X233134366Y-79023302D01*
X233134364Y-79023313D01*
X233114532Y-79249998D01*
X227656719Y-79249998D01*
X227665468Y-79150000D01*
X227645635Y-78923308D01*
X227586739Y-78703504D01*
X227490568Y-78497266D01*
X227360047Y-78310861D01*
X227360045Y-78310858D01*
X227199141Y-78149954D01*
X227012734Y-78019432D01*
X227012732Y-78019431D01*
X226806497Y-77923261D01*
X226806488Y-77923258D01*
X226586697Y-77864366D01*
X226586693Y-77864365D01*
X226586692Y-77864365D01*
X226586691Y-77864364D01*
X226586686Y-77864364D01*
X226360002Y-77844532D01*
X226359998Y-77844532D01*
X226133313Y-77864364D01*
X226133302Y-77864366D01*
X225913511Y-77923258D01*
X225913502Y-77923261D01*
X225707267Y-78019431D01*
X225707265Y-78019432D01*
X225520858Y-78149954D01*
X225359954Y-78310858D01*
X225229432Y-78497265D01*
X225229431Y-78497267D01*
X225133261Y-78703502D01*
X225133258Y-78703511D01*
X225074366Y-78923302D01*
X225074364Y-78923313D01*
X225054532Y-79149998D01*
X154250000Y-79149998D01*
X154250000Y-75749998D01*
X169944532Y-75749998D01*
X169944532Y-75750001D01*
X169964364Y-75976686D01*
X169964366Y-75976697D01*
X170023258Y-76196488D01*
X170023261Y-76196497D01*
X170119431Y-76402732D01*
X170119432Y-76402734D01*
X170249954Y-76589141D01*
X170410858Y-76750045D01*
X170410861Y-76750047D01*
X170597266Y-76880568D01*
X170803504Y-76976739D01*
X171023308Y-77035635D01*
X171185230Y-77049801D01*
X171249998Y-77055468D01*
X171250000Y-77055468D01*
X171250002Y-77055468D01*
X171306673Y-77050509D01*
X171476692Y-77035635D01*
X171696496Y-76976739D01*
X171902734Y-76880568D01*
X172089139Y-76750047D01*
X172250047Y-76589139D01*
X172380568Y-76402734D01*
X172476739Y-76196496D01*
X172535635Y-75976692D01*
X172555468Y-75750000D01*
X172546719Y-75649998D01*
X180444532Y-75649998D01*
X180444532Y-75650001D01*
X180464364Y-75876686D01*
X180464366Y-75876697D01*
X180523258Y-76096488D01*
X180523261Y-76096497D01*
X180619431Y-76302732D01*
X180619432Y-76302734D01*
X180749954Y-76489141D01*
X180910858Y-76650045D01*
X180910861Y-76650047D01*
X181097266Y-76780568D01*
X181303504Y-76876739D01*
X181523308Y-76935635D01*
X181685230Y-76949801D01*
X181749998Y-76955468D01*
X181750000Y-76955468D01*
X181750002Y-76955468D01*
X181806673Y-76950509D01*
X181976692Y-76935635D01*
X182196496Y-76876739D01*
X182402734Y-76780568D01*
X182589139Y-76650047D01*
X182750047Y-76489139D01*
X182880568Y-76302734D01*
X182976739Y-76096496D01*
X183035635Y-75876692D01*
X183055468Y-75650000D01*
X183055468Y-75649998D01*
X187054532Y-75649998D01*
X187054532Y-75650001D01*
X187074364Y-75876686D01*
X187074366Y-75876697D01*
X187133258Y-76096488D01*
X187133261Y-76096497D01*
X187229431Y-76302732D01*
X187229432Y-76302734D01*
X187359954Y-76489141D01*
X187520858Y-76650045D01*
X187520861Y-76650047D01*
X187707266Y-76780568D01*
X187913504Y-76876739D01*
X188133308Y-76935635D01*
X188295230Y-76949801D01*
X188359998Y-76955468D01*
X188360000Y-76955468D01*
X188360002Y-76955468D01*
X188416673Y-76950509D01*
X188586692Y-76935635D01*
X188806496Y-76876739D01*
X189012734Y-76780568D01*
X189199139Y-76650047D01*
X189360047Y-76489139D01*
X189490568Y-76302734D01*
X189586739Y-76096496D01*
X189645635Y-75876692D01*
X189665468Y-75650000D01*
X189645635Y-75423308D01*
X189586739Y-75203504D01*
X189490568Y-74997266D01*
X189360047Y-74810861D01*
X189360045Y-74810858D01*
X189199141Y-74649954D01*
X189012734Y-74519432D01*
X189012732Y-74519431D01*
X188806497Y-74423261D01*
X188806488Y-74423258D01*
X188586697Y-74364366D01*
X188586693Y-74364365D01*
X188586692Y-74364365D01*
X188586691Y-74364364D01*
X188586686Y-74364364D01*
X188360002Y-74344532D01*
X188359998Y-74344532D01*
X188133313Y-74364364D01*
X188133302Y-74364366D01*
X187913511Y-74423258D01*
X187913502Y-74423261D01*
X187707267Y-74519431D01*
X187707265Y-74519432D01*
X187520858Y-74649954D01*
X187359954Y-74810858D01*
X187229432Y-74997265D01*
X187229431Y-74997267D01*
X187133261Y-75203502D01*
X187133258Y-75203511D01*
X187074366Y-75423302D01*
X187074364Y-75423313D01*
X187054532Y-75649998D01*
X183055468Y-75649998D01*
X183035635Y-75423308D01*
X182976739Y-75203504D01*
X182880568Y-74997266D01*
X182750047Y-74810861D01*
X182750045Y-74810858D01*
X182589141Y-74649954D01*
X182402734Y-74519432D01*
X182402732Y-74519431D01*
X182196497Y-74423261D01*
X182196488Y-74423258D01*
X181976697Y-74364366D01*
X181976693Y-74364365D01*
X181976692Y-74364365D01*
X181976691Y-74364364D01*
X181976686Y-74364364D01*
X181750002Y-74344532D01*
X181749998Y-74344532D01*
X181523313Y-74364364D01*
X181523302Y-74364366D01*
X181303511Y-74423258D01*
X181303502Y-74423261D01*
X181097267Y-74519431D01*
X181097265Y-74519432D01*
X180910858Y-74649954D01*
X180749954Y-74810858D01*
X180619432Y-74997265D01*
X180619431Y-74997267D01*
X180523261Y-75203502D01*
X180523258Y-75203511D01*
X180464366Y-75423302D01*
X180464364Y-75423313D01*
X180444532Y-75649998D01*
X172546719Y-75649998D01*
X172535635Y-75523308D01*
X172476739Y-75303504D01*
X172380568Y-75097266D01*
X172250047Y-74910861D01*
X172250045Y-74910858D01*
X172089141Y-74749954D01*
X171902734Y-74619432D01*
X171902732Y-74619431D01*
X171696497Y-74523261D01*
X171696488Y-74523258D01*
X171476697Y-74464366D01*
X171476693Y-74464365D01*
X171476692Y-74464365D01*
X171476691Y-74464364D01*
X171476686Y-74464364D01*
X171250002Y-74444532D01*
X171249998Y-74444532D01*
X171023313Y-74464364D01*
X171023302Y-74464366D01*
X170803511Y-74523258D01*
X170803502Y-74523261D01*
X170597267Y-74619431D01*
X170597265Y-74619432D01*
X170410858Y-74749954D01*
X170249954Y-74910858D01*
X170119432Y-75097265D01*
X170119431Y-75097267D01*
X170023261Y-75303502D01*
X170023258Y-75303511D01*
X169964366Y-75523302D01*
X169964364Y-75523313D01*
X169944532Y-75749998D01*
X154250000Y-75749998D01*
X154250000Y-73729999D01*
X217254341Y-73729999D01*
X217254341Y-73730000D01*
X217274936Y-73965403D01*
X217274938Y-73965413D01*
X217336094Y-74193655D01*
X217336096Y-74193659D01*
X217336097Y-74193663D01*
X217415697Y-74364365D01*
X217435965Y-74407830D01*
X217435967Y-74407834D01*
X217516791Y-74523261D01*
X217571505Y-74601401D01*
X217738599Y-74768495D01*
X217799100Y-74810858D01*
X217932165Y-74904032D01*
X217932167Y-74904033D01*
X217932170Y-74904035D01*
X218146337Y-75003903D01*
X218374592Y-75065063D01*
X218562918Y-75081539D01*
X218609999Y-75085659D01*
X218610000Y-75085659D01*
X218610001Y-75085659D01*
X218649234Y-75082226D01*
X218845408Y-75065063D01*
X219073663Y-75003903D01*
X219287830Y-74904035D01*
X219481401Y-74768495D01*
X219648495Y-74601401D01*
X219784035Y-74407830D01*
X219883903Y-74193663D01*
X219945063Y-73965408D01*
X219965659Y-73730000D01*
X219945063Y-73494592D01*
X219883903Y-73266337D01*
X219784035Y-73052171D01*
X219648495Y-72858599D01*
X219526567Y-72736671D01*
X219493084Y-72675351D01*
X219498068Y-72605659D01*
X219539939Y-72549725D01*
X219570915Y-72532810D01*
X219702331Y-72483796D01*
X219817546Y-72397546D01*
X219903796Y-72282331D01*
X219954091Y-72147483D01*
X219960500Y-72087873D01*
X219960499Y-70292128D01*
X219954091Y-70232517D01*
X219953152Y-70230000D01*
X219953150Y-70229995D01*
X237959816Y-70229995D01*
X237959816Y-70230004D01*
X237978524Y-70479663D01*
X237978525Y-70479668D01*
X238034236Y-70723755D01*
X238034238Y-70723764D01*
X238034240Y-70723769D01*
X238125711Y-70956835D01*
X238250898Y-71173665D01*
X238341034Y-71286692D01*
X238407006Y-71369418D01*
X238554733Y-71506488D01*
X238590540Y-71539712D01*
X238797408Y-71680752D01*
X238797413Y-71680754D01*
X238797414Y-71680755D01*
X238797415Y-71680756D01*
X238863815Y-71712732D01*
X239022983Y-71789383D01*
X239022984Y-71789383D01*
X239022987Y-71789385D01*
X239262236Y-71863184D01*
X239262237Y-71863184D01*
X239262240Y-71863185D01*
X239509805Y-71900499D01*
X239509810Y-71900499D01*
X239509813Y-71900500D01*
X239509814Y-71900500D01*
X239760186Y-71900500D01*
X239760187Y-71900500D01*
X239760194Y-71900499D01*
X240007759Y-71863185D01*
X240007760Y-71863184D01*
X240007764Y-71863184D01*
X240247013Y-71789385D01*
X240472592Y-71680752D01*
X240679460Y-71539712D01*
X240862997Y-71369414D01*
X241019102Y-71173665D01*
X241144289Y-70956835D01*
X241235760Y-70723769D01*
X241291474Y-70479673D01*
X241295401Y-70427267D01*
X241310184Y-70230004D01*
X241310184Y-70229995D01*
X241291475Y-69980336D01*
X241291474Y-69980331D01*
X241291474Y-69980327D01*
X241235760Y-69736231D01*
X241144289Y-69503165D01*
X241019102Y-69286335D01*
X240862997Y-69090586D01*
X240862996Y-69090585D01*
X240862993Y-69090581D01*
X240679460Y-68920288D01*
X240472592Y-68779248D01*
X240472588Y-68779246D01*
X240472585Y-68779244D01*
X240472584Y-68779243D01*
X240247015Y-68670616D01*
X240247017Y-68670616D01*
X240007765Y-68596816D01*
X240007759Y-68596814D01*
X239760194Y-68559500D01*
X239760187Y-68559500D01*
X239509813Y-68559500D01*
X239509805Y-68559500D01*
X239262240Y-68596814D01*
X239262234Y-68596816D01*
X239022983Y-68670616D01*
X238797415Y-68779243D01*
X238797414Y-68779244D01*
X238590539Y-68920288D01*
X238407006Y-69090581D01*
X238250898Y-69286335D01*
X238125711Y-69503164D01*
X238034242Y-69736225D01*
X238034236Y-69736244D01*
X237978525Y-69980331D01*
X237978524Y-69980336D01*
X237959816Y-70229995D01*
X219953150Y-70229995D01*
X219903797Y-70097671D01*
X219903793Y-70097664D01*
X219817547Y-69982455D01*
X219817544Y-69982452D01*
X219702335Y-69896206D01*
X219702328Y-69896202D01*
X219567482Y-69845908D01*
X219567483Y-69845908D01*
X219507883Y-69839501D01*
X219507881Y-69839500D01*
X219507873Y-69839500D01*
X219507864Y-69839500D01*
X217712129Y-69839500D01*
X217712123Y-69839501D01*
X217652516Y-69845908D01*
X217517671Y-69896202D01*
X217517664Y-69896206D01*
X217402455Y-69982452D01*
X217402452Y-69982455D01*
X217316206Y-70097664D01*
X217316202Y-70097671D01*
X217265908Y-70232517D01*
X217259501Y-70292116D01*
X217259501Y-70292123D01*
X217259500Y-70292135D01*
X217259500Y-72087870D01*
X217259501Y-72087876D01*
X217265908Y-72147483D01*
X217316202Y-72282328D01*
X217316206Y-72282335D01*
X217402452Y-72397544D01*
X217402455Y-72397547D01*
X217517664Y-72483793D01*
X217517671Y-72483797D01*
X217649081Y-72532810D01*
X217705015Y-72574681D01*
X217729432Y-72640145D01*
X217714580Y-72708418D01*
X217693430Y-72736673D01*
X217571503Y-72858600D01*
X217435965Y-73052169D01*
X217435964Y-73052171D01*
X217336098Y-73266335D01*
X217336094Y-73266344D01*
X217274938Y-73494586D01*
X217274936Y-73494596D01*
X217254341Y-73729999D01*
X154250000Y-73729999D01*
X154250000Y-70749998D01*
X169944532Y-70749998D01*
X169944532Y-70750001D01*
X169964364Y-70976686D01*
X169964366Y-70976697D01*
X170023258Y-71196488D01*
X170023261Y-71196497D01*
X170119431Y-71402732D01*
X170119432Y-71402734D01*
X170249954Y-71589141D01*
X170410858Y-71750045D01*
X170410861Y-71750047D01*
X170597266Y-71880568D01*
X170803504Y-71976739D01*
X171023308Y-72035635D01*
X171185230Y-72049801D01*
X171249998Y-72055468D01*
X171250000Y-72055468D01*
X171250002Y-72055468D01*
X171306673Y-72050509D01*
X171476692Y-72035635D01*
X171696496Y-71976739D01*
X171902734Y-71880568D01*
X172089139Y-71750047D01*
X172250047Y-71589139D01*
X172380568Y-71402734D01*
X172476739Y-71196496D01*
X172507954Y-71079998D01*
X198944532Y-71079998D01*
X198944532Y-71080001D01*
X198964364Y-71306686D01*
X198964366Y-71306697D01*
X199023258Y-71526488D01*
X199023261Y-71526497D01*
X199119431Y-71732732D01*
X199119432Y-71732734D01*
X199249954Y-71919141D01*
X199410858Y-72080045D01*
X199422036Y-72087872D01*
X199597266Y-72210568D01*
X199803504Y-72306739D01*
X200023308Y-72365635D01*
X200185230Y-72379801D01*
X200249998Y-72385468D01*
X200250000Y-72385468D01*
X200250002Y-72385468D01*
X200306673Y-72380509D01*
X200476692Y-72365635D01*
X200696496Y-72306739D01*
X200902734Y-72210568D01*
X201089139Y-72080047D01*
X201250047Y-71919139D01*
X201380568Y-71732734D01*
X201476739Y-71526496D01*
X201535635Y-71306692D01*
X201555468Y-71080000D01*
X201553718Y-71059998D01*
X207554532Y-71059998D01*
X207554532Y-71060001D01*
X207574364Y-71286686D01*
X207574366Y-71286697D01*
X207633258Y-71506488D01*
X207633261Y-71506497D01*
X207729431Y-71712732D01*
X207729432Y-71712734D01*
X207859954Y-71899141D01*
X208020858Y-72060045D01*
X208020861Y-72060047D01*
X208207266Y-72190568D01*
X208413504Y-72286739D01*
X208633308Y-72345635D01*
X208795230Y-72359801D01*
X208859998Y-72365468D01*
X208860000Y-72365468D01*
X208860002Y-72365468D01*
X208916673Y-72360509D01*
X209086692Y-72345635D01*
X209306496Y-72286739D01*
X209512734Y-72190568D01*
X209699139Y-72060047D01*
X209860047Y-71899139D01*
X209990568Y-71712734D01*
X210086739Y-71506496D01*
X210145635Y-71286692D01*
X210165468Y-71060000D01*
X210145635Y-70833308D01*
X210086739Y-70613504D01*
X209990568Y-70407266D01*
X209860047Y-70220861D01*
X209860045Y-70220858D01*
X209699141Y-70059954D01*
X209512734Y-69929432D01*
X209512732Y-69929431D01*
X209306497Y-69833261D01*
X209306488Y-69833258D01*
X209086697Y-69774366D01*
X209086693Y-69774365D01*
X209086692Y-69774365D01*
X209086691Y-69774364D01*
X209086686Y-69774364D01*
X208860002Y-69754532D01*
X208859998Y-69754532D01*
X208633313Y-69774364D01*
X208633302Y-69774366D01*
X208413511Y-69833258D01*
X208413502Y-69833261D01*
X208207267Y-69929431D01*
X208207265Y-69929432D01*
X208020858Y-70059954D01*
X207859954Y-70220858D01*
X207729432Y-70407265D01*
X207729431Y-70407267D01*
X207633261Y-70613502D01*
X207633258Y-70613511D01*
X207574366Y-70833302D01*
X207574364Y-70833313D01*
X207554532Y-71059998D01*
X201553718Y-71059998D01*
X201535635Y-70853308D01*
X201476739Y-70633504D01*
X201380568Y-70427266D01*
X201250047Y-70240861D01*
X201250045Y-70240858D01*
X201089141Y-70079954D01*
X200902734Y-69949432D01*
X200902732Y-69949431D01*
X200696497Y-69853261D01*
X200696488Y-69853258D01*
X200476697Y-69794366D01*
X200476693Y-69794365D01*
X200476692Y-69794365D01*
X200476691Y-69794364D01*
X200476686Y-69794364D01*
X200250002Y-69774532D01*
X200249998Y-69774532D01*
X200023313Y-69794364D01*
X200023302Y-69794366D01*
X199803511Y-69853258D01*
X199803502Y-69853261D01*
X199597267Y-69949431D01*
X199597265Y-69949432D01*
X199410858Y-70079954D01*
X199249954Y-70240858D01*
X199119432Y-70427265D01*
X199119431Y-70427267D01*
X199023261Y-70633502D01*
X199023258Y-70633511D01*
X198964366Y-70853302D01*
X198964364Y-70853313D01*
X198944532Y-71079998D01*
X172507954Y-71079998D01*
X172535635Y-70976692D01*
X172555468Y-70750000D01*
X172535635Y-70523308D01*
X172476739Y-70303504D01*
X172380568Y-70097266D01*
X172250047Y-69910861D01*
X172250045Y-69910858D01*
X172089141Y-69749954D01*
X171902734Y-69619432D01*
X171902732Y-69619431D01*
X171696497Y-69523261D01*
X171696488Y-69523258D01*
X171476697Y-69464366D01*
X171476693Y-69464365D01*
X171476692Y-69464365D01*
X171476691Y-69464364D01*
X171476686Y-69464364D01*
X171250002Y-69444532D01*
X171249998Y-69444532D01*
X171023313Y-69464364D01*
X171023302Y-69464366D01*
X170803511Y-69523258D01*
X170803502Y-69523261D01*
X170597267Y-69619431D01*
X170597265Y-69619432D01*
X170410858Y-69749954D01*
X170249954Y-69910858D01*
X170119432Y-70097265D01*
X170119431Y-70097267D01*
X170023261Y-70303502D01*
X170023258Y-70303511D01*
X169964366Y-70523302D01*
X169964364Y-70523313D01*
X169944532Y-70749998D01*
X154250000Y-70749998D01*
X154250000Y-67059998D01*
X225304532Y-67059998D01*
X225304532Y-67060001D01*
X225324364Y-67286686D01*
X225324366Y-67286697D01*
X225383258Y-67506488D01*
X225383261Y-67506497D01*
X225479431Y-67712732D01*
X225479432Y-67712734D01*
X225609954Y-67899141D01*
X225770858Y-68060045D01*
X225770861Y-68060047D01*
X225957266Y-68190568D01*
X226163504Y-68286739D01*
X226383308Y-68345635D01*
X226545230Y-68359801D01*
X226609998Y-68365468D01*
X226610000Y-68365468D01*
X226610002Y-68365468D01*
X226666673Y-68360509D01*
X226836692Y-68345635D01*
X227056496Y-68286739D01*
X227262734Y-68190568D01*
X227449139Y-68060047D01*
X227610047Y-67899139D01*
X227740568Y-67712734D01*
X227836739Y-67506496D01*
X227895635Y-67286692D01*
X227915468Y-67060000D01*
X227895635Y-66833308D01*
X227836739Y-66613504D01*
X227740568Y-66407266D01*
X227610047Y-66220861D01*
X227610045Y-66220858D01*
X227449141Y-66059954D01*
X227262734Y-65929432D01*
X227262732Y-65929431D01*
X227056497Y-65833261D01*
X227056488Y-65833258D01*
X226836697Y-65774366D01*
X226836693Y-65774365D01*
X226836692Y-65774365D01*
X226836691Y-65774364D01*
X226836686Y-65774364D01*
X226610002Y-65754532D01*
X226609998Y-65754532D01*
X226383313Y-65774364D01*
X226383302Y-65774366D01*
X226163511Y-65833258D01*
X226163502Y-65833261D01*
X225957267Y-65929431D01*
X225957265Y-65929432D01*
X225770858Y-66059954D01*
X225609954Y-66220858D01*
X225479432Y-66407265D01*
X225479431Y-66407267D01*
X225383261Y-66613502D01*
X225383258Y-66613511D01*
X225324366Y-66833302D01*
X225324364Y-66833313D01*
X225304532Y-67059998D01*
X154250000Y-67059998D01*
X154250000Y-60919998D01*
X198944532Y-60919998D01*
X198944532Y-60920001D01*
X198964364Y-61146686D01*
X198964366Y-61146697D01*
X199023258Y-61366488D01*
X199023261Y-61366497D01*
X199119431Y-61572732D01*
X199119432Y-61572734D01*
X199249954Y-61759141D01*
X199410858Y-61920045D01*
X199410861Y-61920047D01*
X199597266Y-62050568D01*
X199803504Y-62146739D01*
X200023308Y-62205635D01*
X200185230Y-62219801D01*
X200249998Y-62225468D01*
X200250000Y-62225468D01*
X200250002Y-62225468D01*
X200306673Y-62220509D01*
X200476692Y-62205635D01*
X200696496Y-62146739D01*
X200902734Y-62050568D01*
X201089139Y-61920047D01*
X201250047Y-61759139D01*
X201380568Y-61572734D01*
X201476739Y-61366496D01*
X201535635Y-61146692D01*
X201555468Y-60920000D01*
X201553718Y-60899998D01*
X207554532Y-60899998D01*
X207554532Y-60900001D01*
X207574364Y-61126686D01*
X207574366Y-61126697D01*
X207633258Y-61346488D01*
X207633261Y-61346497D01*
X207729431Y-61552732D01*
X207729432Y-61552734D01*
X207859954Y-61739141D01*
X208020858Y-61900045D01*
X208021508Y-61900500D01*
X208207266Y-62030568D01*
X208413504Y-62126739D01*
X208633308Y-62185635D01*
X208795230Y-62199801D01*
X208859998Y-62205468D01*
X208860000Y-62205468D01*
X208860002Y-62205468D01*
X208916673Y-62200509D01*
X209086692Y-62185635D01*
X209306496Y-62126739D01*
X209512734Y-62030568D01*
X209699139Y-61900047D01*
X209860047Y-61739139D01*
X209990568Y-61552734D01*
X210086739Y-61346496D01*
X210145635Y-61126692D01*
X210165468Y-60900000D01*
X210145635Y-60673308D01*
X210086739Y-60453504D01*
X209990568Y-60247266D01*
X209978475Y-60229995D01*
X235459816Y-60229995D01*
X235459816Y-60230004D01*
X235478524Y-60479663D01*
X235478525Y-60479668D01*
X235534236Y-60723755D01*
X235534238Y-60723764D01*
X235534240Y-60723769D01*
X235625711Y-60956835D01*
X235750898Y-61173665D01*
X235876981Y-61331768D01*
X235907006Y-61369418D01*
X236080264Y-61530177D01*
X236090540Y-61539712D01*
X236297408Y-61680752D01*
X236297413Y-61680754D01*
X236297414Y-61680755D01*
X236297415Y-61680756D01*
X236417218Y-61738449D01*
X236522983Y-61789383D01*
X236522984Y-61789383D01*
X236522987Y-61789385D01*
X236762236Y-61863184D01*
X236762237Y-61863184D01*
X236762240Y-61863185D01*
X237009805Y-61900499D01*
X237009810Y-61900499D01*
X237009813Y-61900500D01*
X237009814Y-61900500D01*
X237260186Y-61900500D01*
X237260187Y-61900500D01*
X237260194Y-61900499D01*
X237507759Y-61863185D01*
X237507760Y-61863184D01*
X237507764Y-61863184D01*
X237747013Y-61789385D01*
X237972592Y-61680752D01*
X238179460Y-61539712D01*
X238362997Y-61369414D01*
X238519102Y-61173665D01*
X238644289Y-60956835D01*
X238735760Y-60723769D01*
X238791474Y-60479673D01*
X238791936Y-60473511D01*
X238810184Y-60230004D01*
X238810184Y-60229995D01*
X240459816Y-60229995D01*
X240459816Y-60230004D01*
X240478524Y-60479663D01*
X240478525Y-60479668D01*
X240534236Y-60723755D01*
X240534238Y-60723764D01*
X240534240Y-60723769D01*
X240625711Y-60956835D01*
X240750898Y-61173665D01*
X240876981Y-61331768D01*
X240907006Y-61369418D01*
X241080264Y-61530177D01*
X241090540Y-61539712D01*
X241297408Y-61680752D01*
X241297413Y-61680754D01*
X241297414Y-61680755D01*
X241297415Y-61680756D01*
X241417218Y-61738449D01*
X241522983Y-61789383D01*
X241522984Y-61789383D01*
X241522987Y-61789385D01*
X241762236Y-61863184D01*
X241762237Y-61863184D01*
X241762240Y-61863185D01*
X242009805Y-61900499D01*
X242009810Y-61900499D01*
X242009813Y-61900500D01*
X242009814Y-61900500D01*
X242260186Y-61900500D01*
X242260187Y-61900500D01*
X242260194Y-61900499D01*
X242507759Y-61863185D01*
X242507760Y-61863184D01*
X242507764Y-61863184D01*
X242747013Y-61789385D01*
X242972592Y-61680752D01*
X243179460Y-61539712D01*
X243362997Y-61369414D01*
X243519102Y-61173665D01*
X243644289Y-60956835D01*
X243735760Y-60723769D01*
X243791474Y-60479673D01*
X243791936Y-60473511D01*
X243810184Y-60230004D01*
X243810184Y-60229995D01*
X243791475Y-59980336D01*
X243791474Y-59980331D01*
X243791474Y-59980327D01*
X243735760Y-59736231D01*
X243644289Y-59503165D01*
X243519102Y-59286335D01*
X243362997Y-59090586D01*
X243362996Y-59090585D01*
X243362993Y-59090581D01*
X243179460Y-58920288D01*
X242972592Y-58779248D01*
X242972588Y-58779246D01*
X242972585Y-58779244D01*
X242972584Y-58779243D01*
X242747015Y-58670616D01*
X242747017Y-58670616D01*
X242507765Y-58596816D01*
X242507759Y-58596814D01*
X242260194Y-58559500D01*
X242260187Y-58559500D01*
X242009813Y-58559500D01*
X242009805Y-58559500D01*
X241762240Y-58596814D01*
X241762234Y-58596816D01*
X241522983Y-58670616D01*
X241297415Y-58779243D01*
X241297414Y-58779244D01*
X241090539Y-58920288D01*
X240907006Y-59090581D01*
X240750898Y-59286335D01*
X240625711Y-59503164D01*
X240534242Y-59736225D01*
X240534236Y-59736244D01*
X240478525Y-59980331D01*
X240478524Y-59980336D01*
X240459816Y-60229995D01*
X238810184Y-60229995D01*
X238791475Y-59980336D01*
X238791474Y-59980331D01*
X238791474Y-59980327D01*
X238735760Y-59736231D01*
X238644289Y-59503165D01*
X238519102Y-59286335D01*
X238362997Y-59090586D01*
X238362996Y-59090585D01*
X238362993Y-59090581D01*
X238179460Y-58920288D01*
X237972592Y-58779248D01*
X237972588Y-58779246D01*
X237972585Y-58779244D01*
X237972584Y-58779243D01*
X237747015Y-58670616D01*
X237747017Y-58670616D01*
X237507765Y-58596816D01*
X237507759Y-58596814D01*
X237260194Y-58559500D01*
X237260187Y-58559500D01*
X237009813Y-58559500D01*
X237009805Y-58559500D01*
X236762240Y-58596814D01*
X236762234Y-58596816D01*
X236522983Y-58670616D01*
X236297415Y-58779243D01*
X236297414Y-58779244D01*
X236090539Y-58920288D01*
X235907006Y-59090581D01*
X235750898Y-59286335D01*
X235625711Y-59503164D01*
X235534242Y-59736225D01*
X235534236Y-59736244D01*
X235478525Y-59980331D01*
X235478524Y-59980336D01*
X235459816Y-60229995D01*
X209978475Y-60229995D01*
X209860047Y-60060861D01*
X209860045Y-60060858D01*
X209699141Y-59899954D01*
X209512734Y-59769432D01*
X209512732Y-59769431D01*
X209306497Y-59673261D01*
X209306488Y-59673258D01*
X209086697Y-59614366D01*
X209086693Y-59614365D01*
X209086692Y-59614365D01*
X209086691Y-59614364D01*
X209086686Y-59614364D01*
X208860002Y-59594532D01*
X208859998Y-59594532D01*
X208633313Y-59614364D01*
X208633302Y-59614366D01*
X208413511Y-59673258D01*
X208413502Y-59673261D01*
X208207267Y-59769431D01*
X208207265Y-59769432D01*
X208020858Y-59899954D01*
X207859954Y-60060858D01*
X207729432Y-60247265D01*
X207729431Y-60247267D01*
X207633261Y-60453502D01*
X207633258Y-60453511D01*
X207574366Y-60673302D01*
X207574364Y-60673313D01*
X207554532Y-60899998D01*
X201553718Y-60899998D01*
X201535635Y-60693308D01*
X201476739Y-60473504D01*
X201380568Y-60267266D01*
X201250047Y-60080861D01*
X201250045Y-60080858D01*
X201089141Y-59919954D01*
X200902734Y-59789432D01*
X200902732Y-59789431D01*
X200696497Y-59693261D01*
X200696488Y-59693258D01*
X200476697Y-59634366D01*
X200476693Y-59634365D01*
X200476692Y-59634365D01*
X200476691Y-59634364D01*
X200476686Y-59634364D01*
X200250002Y-59614532D01*
X200249998Y-59614532D01*
X200023313Y-59634364D01*
X200023302Y-59634366D01*
X199803511Y-59693258D01*
X199803502Y-59693261D01*
X199597267Y-59789431D01*
X199597265Y-59789432D01*
X199410858Y-59919954D01*
X199249954Y-60080858D01*
X199119432Y-60267265D01*
X199119431Y-60267267D01*
X199023261Y-60473502D01*
X199023258Y-60473511D01*
X198964366Y-60693302D01*
X198964364Y-60693313D01*
X198944532Y-60919998D01*
X154250000Y-60919998D01*
X154250000Y-55079998D01*
X165364532Y-55079998D01*
X165364532Y-55080001D01*
X165384364Y-55306686D01*
X165384366Y-55306697D01*
X165443258Y-55526488D01*
X165443261Y-55526497D01*
X165539431Y-55732732D01*
X165539432Y-55732734D01*
X165669954Y-55919141D01*
X165830858Y-56080045D01*
X165830861Y-56080047D01*
X166017266Y-56210568D01*
X166223504Y-56306739D01*
X166443308Y-56365635D01*
X166605230Y-56379801D01*
X166669998Y-56385468D01*
X166670000Y-56385468D01*
X166670002Y-56385468D01*
X166726673Y-56380509D01*
X166896692Y-56365635D01*
X167116496Y-56306739D01*
X167322734Y-56210568D01*
X167509139Y-56080047D01*
X167670047Y-55919139D01*
X167800568Y-55732734D01*
X167896739Y-55526496D01*
X167955635Y-55306692D01*
X167975468Y-55080000D01*
X167975468Y-55079998D01*
X175524532Y-55079998D01*
X175524532Y-55080001D01*
X175544364Y-55306686D01*
X175544366Y-55306697D01*
X175603258Y-55526488D01*
X175603261Y-55526497D01*
X175699431Y-55732732D01*
X175699432Y-55732734D01*
X175829954Y-55919141D01*
X175990858Y-56080045D01*
X175990861Y-56080047D01*
X176177266Y-56210568D01*
X176383504Y-56306739D01*
X176603308Y-56365635D01*
X176765230Y-56379801D01*
X176829998Y-56385468D01*
X176830000Y-56385468D01*
X176830002Y-56385468D01*
X176886673Y-56380509D01*
X177056692Y-56365635D01*
X177276496Y-56306739D01*
X177482734Y-56210568D01*
X177669139Y-56080047D01*
X177830047Y-55919139D01*
X177960568Y-55732734D01*
X178056739Y-55526496D01*
X178115635Y-55306692D01*
X178135468Y-55080000D01*
X178115635Y-54853308D01*
X178056739Y-54633504D01*
X178015415Y-54544885D01*
X193945034Y-54544885D01*
X193945034Y-54544890D01*
X193964858Y-54771487D01*
X193964860Y-54771498D01*
X194023730Y-54991205D01*
X194023735Y-54991219D01*
X194119863Y-55197366D01*
X194170974Y-55270360D01*
X194850000Y-54591334D01*
X194850000Y-54597549D01*
X194877259Y-54699282D01*
X194929920Y-54790494D01*
X195004394Y-54864968D01*
X195095606Y-54917629D01*
X195197339Y-54944888D01*
X195203553Y-54944888D01*
X194524526Y-55623913D01*
X194597513Y-55675020D01*
X194597521Y-55675024D01*
X194803668Y-55771152D01*
X194803682Y-55771157D01*
X195023389Y-55830027D01*
X195023400Y-55830029D01*
X195249998Y-55849854D01*
X195250002Y-55849854D01*
X195476599Y-55830029D01*
X195476610Y-55830027D01*
X195696317Y-55771157D01*
X195696331Y-55771152D01*
X195741698Y-55749997D01*
X201945034Y-55749997D01*
X201945034Y-55750002D01*
X201964858Y-55976599D01*
X201964860Y-55976610D01*
X202023730Y-56196317D01*
X202023735Y-56196331D01*
X202119863Y-56402478D01*
X202170974Y-56475472D01*
X202850000Y-55796446D01*
X202850000Y-55802661D01*
X202877259Y-55904394D01*
X202929920Y-55995606D01*
X203004394Y-56070080D01*
X203095606Y-56122741D01*
X203197339Y-56150000D01*
X203203553Y-56150000D01*
X202524526Y-56829025D01*
X202597513Y-56880132D01*
X202597521Y-56880136D01*
X202803668Y-56976264D01*
X202803682Y-56976269D01*
X203023389Y-57035139D01*
X203023400Y-57035141D01*
X203249998Y-57054966D01*
X203250002Y-57054966D01*
X203476599Y-57035141D01*
X203476610Y-57035139D01*
X203696317Y-56976269D01*
X203696331Y-56976264D01*
X203859884Y-56899998D01*
X225304532Y-56899998D01*
X225304532Y-56900001D01*
X225324364Y-57126686D01*
X225324366Y-57126697D01*
X225383258Y-57346488D01*
X225383261Y-57346497D01*
X225479431Y-57552732D01*
X225479432Y-57552734D01*
X225609954Y-57739141D01*
X225770858Y-57900045D01*
X225770861Y-57900047D01*
X225957266Y-58030568D01*
X226163504Y-58126739D01*
X226383308Y-58185635D01*
X226545230Y-58199801D01*
X226609998Y-58205468D01*
X226610000Y-58205468D01*
X226610002Y-58205468D01*
X226666673Y-58200509D01*
X226836692Y-58185635D01*
X227056496Y-58126739D01*
X227262734Y-58030568D01*
X227449139Y-57900047D01*
X227610047Y-57739139D01*
X227740568Y-57552734D01*
X227836739Y-57346496D01*
X227895635Y-57126692D01*
X227915468Y-56900000D01*
X227895635Y-56673308D01*
X227836739Y-56453504D01*
X227740568Y-56247266D01*
X227610047Y-56060861D01*
X227610045Y-56060858D01*
X227449141Y-55899954D01*
X227262734Y-55769432D01*
X227262732Y-55769431D01*
X227056497Y-55673261D01*
X227056488Y-55673258D01*
X226836697Y-55614366D01*
X226836693Y-55614365D01*
X226836692Y-55614365D01*
X226836691Y-55614364D01*
X226836686Y-55614364D01*
X226610002Y-55594532D01*
X226609998Y-55594532D01*
X226383313Y-55614364D01*
X226383302Y-55614366D01*
X226163511Y-55673258D01*
X226163502Y-55673261D01*
X225957267Y-55769431D01*
X225957265Y-55769432D01*
X225770858Y-55899954D01*
X225609954Y-56060858D01*
X225479432Y-56247265D01*
X225479431Y-56247267D01*
X225383261Y-56453502D01*
X225383258Y-56453511D01*
X225324366Y-56673302D01*
X225324364Y-56673313D01*
X225304532Y-56899998D01*
X203859884Y-56899998D01*
X203902478Y-56880136D01*
X203975471Y-56829024D01*
X203296447Y-56150000D01*
X203302661Y-56150000D01*
X203404394Y-56122741D01*
X203495606Y-56070080D01*
X203570080Y-55995606D01*
X203622741Y-55904394D01*
X203650000Y-55802661D01*
X203650000Y-55796447D01*
X204329024Y-56475471D01*
X204380136Y-56402478D01*
X204476264Y-56196331D01*
X204476269Y-56196317D01*
X204535139Y-55976610D01*
X204535141Y-55976599D01*
X204554966Y-55750002D01*
X204554966Y-55749997D01*
X204535141Y-55523400D01*
X204535139Y-55523389D01*
X204476269Y-55303682D01*
X204476264Y-55303668D01*
X204380136Y-55097521D01*
X204380132Y-55097513D01*
X204329025Y-55024526D01*
X203650000Y-55703551D01*
X203650000Y-55697339D01*
X203622741Y-55595606D01*
X203570080Y-55504394D01*
X203495606Y-55429920D01*
X203404394Y-55377259D01*
X203302661Y-55350000D01*
X203296448Y-55350000D01*
X203975472Y-54670974D01*
X203902478Y-54619863D01*
X203696331Y-54523735D01*
X203696317Y-54523730D01*
X203476610Y-54464860D01*
X203476599Y-54464858D01*
X203250002Y-54445034D01*
X203249998Y-54445034D01*
X203023400Y-54464858D01*
X203023389Y-54464860D01*
X202803682Y-54523730D01*
X202803673Y-54523734D01*
X202597516Y-54619866D01*
X202597512Y-54619868D01*
X202524526Y-54670973D01*
X202524526Y-54670974D01*
X203203553Y-55350000D01*
X203197339Y-55350000D01*
X203095606Y-55377259D01*
X203004394Y-55429920D01*
X202929920Y-55504394D01*
X202877259Y-55595606D01*
X202850000Y-55697339D01*
X202850000Y-55703552D01*
X202170974Y-55024526D01*
X202170973Y-55024526D01*
X202119868Y-55097512D01*
X202119866Y-55097516D01*
X202023734Y-55303673D01*
X202023730Y-55303682D01*
X201964860Y-55523389D01*
X201964858Y-55523400D01*
X201945034Y-55749997D01*
X195741698Y-55749997D01*
X195902478Y-55675024D01*
X195975471Y-55623912D01*
X195296447Y-54944888D01*
X195302661Y-54944888D01*
X195404394Y-54917629D01*
X195495606Y-54864968D01*
X195570080Y-54790494D01*
X195622741Y-54699282D01*
X195650000Y-54597549D01*
X195650000Y-54591335D01*
X196329024Y-55270359D01*
X196380136Y-55197366D01*
X196476264Y-54991219D01*
X196476269Y-54991205D01*
X196535139Y-54771498D01*
X196535141Y-54771487D01*
X196554966Y-54544890D01*
X196554966Y-54544885D01*
X196542202Y-54398992D01*
X237609500Y-54398992D01*
X237609500Y-54601007D01*
X237648907Y-54799119D01*
X237648909Y-54799127D01*
X237682325Y-54879800D01*
X237689794Y-54949270D01*
X237670038Y-54994660D01*
X237670454Y-54994887D01*
X237667919Y-54999528D01*
X237667037Y-55001556D01*
X237666206Y-55002665D01*
X237666202Y-55002672D01*
X237615908Y-55137517D01*
X237609501Y-55197116D01*
X237609501Y-55197123D01*
X237609500Y-55197135D01*
X237609500Y-56342870D01*
X237609501Y-56342876D01*
X237615908Y-56402483D01*
X237666202Y-56537328D01*
X237666206Y-56537335D01*
X237752452Y-56652544D01*
X237752455Y-56652547D01*
X237867664Y-56738793D01*
X237867671Y-56738797D01*
X238002517Y-56789091D01*
X238002516Y-56789091D01*
X238009444Y-56789835D01*
X238062127Y-56795500D01*
X239657872Y-56795499D01*
X239717483Y-56789091D01*
X239852331Y-56738796D01*
X239967546Y-56652546D01*
X240053796Y-56537331D01*
X240104091Y-56402483D01*
X240110500Y-56342873D01*
X240110499Y-55197128D01*
X240104091Y-55137517D01*
X240089173Y-55097521D01*
X240053797Y-55002671D01*
X240053796Y-55002670D01*
X240053796Y-55002669D01*
X240052967Y-55001562D01*
X240052485Y-55000268D01*
X240049546Y-54994886D01*
X240050319Y-54994463D01*
X240028551Y-54936099D01*
X240037675Y-54879798D01*
X240071089Y-54799132D01*
X240071089Y-54799131D01*
X240071091Y-54799127D01*
X240110500Y-54601003D01*
X240110500Y-54398997D01*
X240071091Y-54200873D01*
X239993786Y-54014244D01*
X239939794Y-53933439D01*
X239918917Y-53866764D01*
X239937401Y-53799384D01*
X239939796Y-53795658D01*
X239993344Y-53715518D01*
X239993346Y-53715515D01*
X240070609Y-53528983D01*
X240070612Y-53528974D01*
X240080353Y-53480000D01*
X239225866Y-53480000D01*
X239201674Y-53477617D01*
X239186004Y-53474500D01*
X239186003Y-53474500D01*
X239145830Y-53474500D01*
X239160075Y-53460255D01*
X239209444Y-53374745D01*
X239235000Y-53279370D01*
X239235000Y-53180630D01*
X239209444Y-53085255D01*
X239160075Y-52999745D01*
X239140330Y-52980000D01*
X240080353Y-52980000D01*
X240070612Y-52931025D01*
X240070609Y-52931016D01*
X239993347Y-52744486D01*
X239993340Y-52744473D01*
X239881170Y-52576600D01*
X239881167Y-52576596D01*
X239738403Y-52433832D01*
X239738399Y-52433829D01*
X239570526Y-52321659D01*
X239570513Y-52321652D01*
X239383983Y-52244390D01*
X239383974Y-52244387D01*
X239185958Y-52205000D01*
X239110000Y-52205000D01*
X239110000Y-52949670D01*
X239090255Y-52929925D01*
X239004745Y-52880556D01*
X238909370Y-52855000D01*
X238810630Y-52855000D01*
X238715255Y-52880556D01*
X238629745Y-52929925D01*
X238610000Y-52949670D01*
X238610000Y-52205000D01*
X238534041Y-52205000D01*
X238336025Y-52244387D01*
X238336016Y-52244390D01*
X238149486Y-52321652D01*
X238149473Y-52321659D01*
X237981600Y-52433829D01*
X237981596Y-52433832D01*
X237838832Y-52576596D01*
X237838829Y-52576600D01*
X237726659Y-52744473D01*
X237726652Y-52744486D01*
X237649390Y-52931016D01*
X237649387Y-52931025D01*
X237639647Y-52980000D01*
X238579670Y-52980000D01*
X238559925Y-52999745D01*
X238510556Y-53085255D01*
X238485000Y-53180630D01*
X238485000Y-53279370D01*
X238510556Y-53374745D01*
X238559925Y-53460255D01*
X238574170Y-53474500D01*
X238533997Y-53474500D01*
X238533996Y-53474500D01*
X238518326Y-53477617D01*
X238494134Y-53480000D01*
X237639647Y-53480000D01*
X237649387Y-53528974D01*
X237649390Y-53528983D01*
X237726652Y-53715513D01*
X237726659Y-53715526D01*
X237780203Y-53795659D01*
X237801081Y-53862336D01*
X237782597Y-53929716D01*
X237780204Y-53933439D01*
X237726214Y-54014243D01*
X237648909Y-54200872D01*
X237648907Y-54200880D01*
X237609500Y-54398992D01*
X196542202Y-54398992D01*
X196535141Y-54318288D01*
X196535139Y-54318277D01*
X196476269Y-54098570D01*
X196476265Y-54098561D01*
X196380134Y-53892406D01*
X196380130Y-53892400D01*
X196371188Y-53879628D01*
X196348861Y-53813422D01*
X196365873Y-53745655D01*
X196398454Y-53709239D01*
X196407546Y-53702434D01*
X196493796Y-53587219D01*
X196544091Y-53452371D01*
X196550500Y-53392761D01*
X196550499Y-51697016D01*
X196544091Y-51637405D01*
X196493796Y-51502557D01*
X196493795Y-51502556D01*
X196493793Y-51502552D01*
X196407547Y-51387343D01*
X196407544Y-51387340D01*
X196292335Y-51301094D01*
X196292328Y-51301090D01*
X196157482Y-51250796D01*
X196157483Y-51250796D01*
X196097883Y-51244389D01*
X196097881Y-51244388D01*
X196097873Y-51244388D01*
X196097864Y-51244388D01*
X194402129Y-51244388D01*
X194402123Y-51244389D01*
X194342516Y-51250796D01*
X194207671Y-51301090D01*
X194207664Y-51301094D01*
X194092455Y-51387340D01*
X194092452Y-51387343D01*
X194006206Y-51502552D01*
X194006202Y-51502559D01*
X193955908Y-51637405D01*
X193949501Y-51697004D01*
X193949501Y-51697011D01*
X193949500Y-51697023D01*
X193949500Y-53392758D01*
X193949501Y-53392764D01*
X193955908Y-53452371D01*
X194006202Y-53587216D01*
X194006206Y-53587223D01*
X194092452Y-53702432D01*
X194092453Y-53702432D01*
X194092454Y-53702434D01*
X194101545Y-53709239D01*
X194143416Y-53765170D01*
X194148402Y-53834862D01*
X194128813Y-53879624D01*
X194119871Y-53892395D01*
X194119868Y-53892400D01*
X194023734Y-54098561D01*
X194023730Y-54098570D01*
X193964860Y-54318277D01*
X193964858Y-54318288D01*
X193945034Y-54544885D01*
X178015415Y-54544885D01*
X177960568Y-54427266D01*
X177830047Y-54240861D01*
X177830045Y-54240858D01*
X177669141Y-54079954D01*
X177482734Y-53949432D01*
X177482732Y-53949431D01*
X177276497Y-53853261D01*
X177276488Y-53853258D01*
X177056697Y-53794366D01*
X177056693Y-53794365D01*
X177056692Y-53794365D01*
X177056691Y-53794364D01*
X177056686Y-53794364D01*
X176830002Y-53774532D01*
X176829998Y-53774532D01*
X176603313Y-53794364D01*
X176603302Y-53794366D01*
X176383511Y-53853258D01*
X176383502Y-53853261D01*
X176177267Y-53949431D01*
X176177265Y-53949432D01*
X175990858Y-54079954D01*
X175829954Y-54240858D01*
X175699432Y-54427265D01*
X175699431Y-54427267D01*
X175603261Y-54633502D01*
X175603258Y-54633511D01*
X175544366Y-54853302D01*
X175544364Y-54853313D01*
X175524532Y-55079998D01*
X167975468Y-55079998D01*
X167955635Y-54853308D01*
X167896739Y-54633504D01*
X167800568Y-54427266D01*
X167670047Y-54240861D01*
X167670045Y-54240858D01*
X167509141Y-54079954D01*
X167322734Y-53949432D01*
X167322732Y-53949431D01*
X167116497Y-53853261D01*
X167116488Y-53853258D01*
X166896697Y-53794366D01*
X166896693Y-53794365D01*
X166896692Y-53794365D01*
X166896691Y-53794364D01*
X166896686Y-53794364D01*
X166670002Y-53774532D01*
X166669998Y-53774532D01*
X166443313Y-53794364D01*
X166443302Y-53794366D01*
X166223511Y-53853258D01*
X166223502Y-53853261D01*
X166017267Y-53949431D01*
X166017265Y-53949432D01*
X165830858Y-54079954D01*
X165669954Y-54240858D01*
X165539432Y-54427265D01*
X165539431Y-54427267D01*
X165443261Y-54633502D01*
X165443258Y-54633511D01*
X165384366Y-54853302D01*
X165384364Y-54853313D01*
X165364532Y-55079998D01*
X154250000Y-55079998D01*
X154250000Y-50749998D01*
X201944532Y-50749998D01*
X201944532Y-50750001D01*
X201964364Y-50976686D01*
X201964366Y-50976697D01*
X202023258Y-51196488D01*
X202023261Y-51196497D01*
X202119431Y-51402732D01*
X202119432Y-51402734D01*
X202249954Y-51589141D01*
X202410858Y-51750045D01*
X202410861Y-51750047D01*
X202597266Y-51880568D01*
X202803504Y-51976739D01*
X202803509Y-51976740D01*
X202803511Y-51976741D01*
X202856415Y-51990916D01*
X203023308Y-52035635D01*
X203185230Y-52049801D01*
X203249998Y-52055468D01*
X203250000Y-52055468D01*
X203250002Y-52055468D01*
X203306673Y-52050509D01*
X203476692Y-52035635D01*
X203696496Y-51976739D01*
X203902734Y-51880568D01*
X204089139Y-51750047D01*
X204250047Y-51589139D01*
X204380568Y-51402734D01*
X204435470Y-51284998D01*
X225304532Y-51284998D01*
X225304532Y-51285001D01*
X225324364Y-51511686D01*
X225324366Y-51511697D01*
X225383258Y-51731488D01*
X225383261Y-51731497D01*
X225479431Y-51937732D01*
X225479432Y-51937734D01*
X225609954Y-52124141D01*
X225770858Y-52285045D01*
X225770861Y-52285047D01*
X225957266Y-52415568D01*
X226163504Y-52511739D01*
X226383308Y-52570635D01*
X226545230Y-52584801D01*
X226609998Y-52590468D01*
X226610000Y-52590468D01*
X226610002Y-52590468D01*
X226666673Y-52585509D01*
X226836692Y-52570635D01*
X227056496Y-52511739D01*
X227262734Y-52415568D01*
X227449139Y-52285047D01*
X227610047Y-52124139D01*
X227740568Y-51937734D01*
X227836739Y-51731496D01*
X227895635Y-51511692D01*
X227911531Y-51329998D01*
X231694532Y-51329998D01*
X231694532Y-51330001D01*
X231714364Y-51556686D01*
X231714366Y-51556697D01*
X231773258Y-51776488D01*
X231773261Y-51776497D01*
X231869431Y-51982732D01*
X231869432Y-51982734D01*
X231999954Y-52169141D01*
X232160858Y-52330045D01*
X232160861Y-52330047D01*
X232347266Y-52460568D01*
X232553504Y-52556739D01*
X232773308Y-52615635D01*
X232935230Y-52629801D01*
X232999998Y-52635468D01*
X233000000Y-52635468D01*
X233000002Y-52635468D01*
X233056673Y-52630509D01*
X233226692Y-52615635D01*
X233446496Y-52556739D01*
X233652734Y-52460568D01*
X233839139Y-52330047D01*
X234000047Y-52169139D01*
X234130568Y-51982734D01*
X234226739Y-51776496D01*
X234285635Y-51556692D01*
X234305468Y-51330000D01*
X234285635Y-51103308D01*
X234226739Y-50883504D01*
X234130568Y-50677266D01*
X234000047Y-50490861D01*
X234000045Y-50490858D01*
X233839141Y-50329954D01*
X233652734Y-50199432D01*
X233652732Y-50199431D01*
X233446497Y-50103261D01*
X233446488Y-50103258D01*
X233226697Y-50044366D01*
X233226693Y-50044365D01*
X233226692Y-50044365D01*
X233226691Y-50044364D01*
X233226686Y-50044364D01*
X233000002Y-50024532D01*
X232999998Y-50024532D01*
X232773313Y-50044364D01*
X232773302Y-50044366D01*
X232553511Y-50103258D01*
X232553502Y-50103261D01*
X232347267Y-50199431D01*
X232347265Y-50199432D01*
X232160858Y-50329954D01*
X231999954Y-50490858D01*
X231869432Y-50677265D01*
X231869431Y-50677267D01*
X231773261Y-50883502D01*
X231773258Y-50883511D01*
X231714366Y-51103302D01*
X231714364Y-51103313D01*
X231694532Y-51329998D01*
X227911531Y-51329998D01*
X227915468Y-51285000D01*
X227895635Y-51058308D01*
X227836739Y-50838504D01*
X227740568Y-50632266D01*
X227610047Y-50445861D01*
X227610045Y-50445858D01*
X227449141Y-50284954D01*
X227262734Y-50154432D01*
X227262732Y-50154431D01*
X227056497Y-50058261D01*
X227056488Y-50058258D01*
X226836697Y-49999366D01*
X226836693Y-49999365D01*
X226836692Y-49999365D01*
X226836691Y-49999364D01*
X226836686Y-49999364D01*
X226610002Y-49979532D01*
X226609998Y-49979532D01*
X226383313Y-49999364D01*
X226383302Y-49999366D01*
X226163511Y-50058258D01*
X226163502Y-50058261D01*
X225957267Y-50154431D01*
X225957265Y-50154432D01*
X225770858Y-50284954D01*
X225609954Y-50445858D01*
X225479432Y-50632265D01*
X225479431Y-50632267D01*
X225383261Y-50838502D01*
X225383258Y-50838511D01*
X225324366Y-51058302D01*
X225324364Y-51058313D01*
X225304532Y-51284998D01*
X204435470Y-51284998D01*
X204476739Y-51196496D01*
X204535635Y-50976692D01*
X204555468Y-50750000D01*
X204535635Y-50523308D01*
X204476739Y-50303504D01*
X204380568Y-50097266D01*
X204250047Y-49910861D01*
X204250045Y-49910858D01*
X204089141Y-49749954D01*
X203902734Y-49619432D01*
X203902732Y-49619431D01*
X203696497Y-49523261D01*
X203696488Y-49523258D01*
X203476697Y-49464366D01*
X203476693Y-49464365D01*
X203476692Y-49464365D01*
X203476691Y-49464364D01*
X203476686Y-49464364D01*
X203250002Y-49444532D01*
X203249998Y-49444532D01*
X203023313Y-49464364D01*
X203023302Y-49464366D01*
X202803511Y-49523258D01*
X202803502Y-49523261D01*
X202597267Y-49619431D01*
X202597265Y-49619432D01*
X202410858Y-49749954D01*
X202249954Y-49910858D01*
X202119432Y-50097265D01*
X202119431Y-50097267D01*
X202023261Y-50303502D01*
X202023258Y-50303511D01*
X201964366Y-50523302D01*
X201964364Y-50523313D01*
X201944532Y-50749998D01*
X154250000Y-50749998D01*
X154250000Y-45602155D01*
X164150000Y-45602155D01*
X164150000Y-46250000D01*
X165066988Y-46250000D01*
X165034075Y-46307007D01*
X165000000Y-46434174D01*
X165000000Y-46565826D01*
X165034075Y-46692993D01*
X165066988Y-46750000D01*
X164150000Y-46750000D01*
X164150000Y-47397844D01*
X164156401Y-47457372D01*
X164156403Y-47457379D01*
X164206645Y-47592086D01*
X164206649Y-47592093D01*
X164292809Y-47707187D01*
X164292812Y-47707190D01*
X164407906Y-47793350D01*
X164407913Y-47793354D01*
X164542620Y-47843596D01*
X164542627Y-47843598D01*
X164602155Y-47849999D01*
X164602172Y-47850000D01*
X165250000Y-47850000D01*
X165250000Y-46933012D01*
X165307007Y-46965925D01*
X165434174Y-47000000D01*
X165565826Y-47000000D01*
X165692993Y-46965925D01*
X165750000Y-46933012D01*
X165750000Y-47850000D01*
X166397828Y-47850000D01*
X166397844Y-47849999D01*
X166457372Y-47843598D01*
X166457379Y-47843596D01*
X166592086Y-47793354D01*
X166592093Y-47793350D01*
X166707187Y-47707190D01*
X166707190Y-47707187D01*
X166793350Y-47592093D01*
X166793354Y-47592086D01*
X166843596Y-47457379D01*
X166843598Y-47457372D01*
X166849999Y-47397844D01*
X166850000Y-47397827D01*
X166850000Y-47329998D01*
X175944532Y-47329998D01*
X175944532Y-47330001D01*
X175964364Y-47556686D01*
X175964366Y-47556697D01*
X176023258Y-47776488D01*
X176023261Y-47776497D01*
X176119431Y-47982732D01*
X176119432Y-47982734D01*
X176249954Y-48169141D01*
X176410858Y-48330045D01*
X176430497Y-48343796D01*
X176597266Y-48460568D01*
X176803504Y-48556739D01*
X177023308Y-48615635D01*
X177185230Y-48629801D01*
X177249998Y-48635468D01*
X177250000Y-48635468D01*
X177250002Y-48635468D01*
X177306673Y-48630509D01*
X177476692Y-48615635D01*
X177696496Y-48556739D01*
X177902734Y-48460568D01*
X178089139Y-48330047D01*
X178250047Y-48169139D01*
X178380568Y-47982734D01*
X178476739Y-47776496D01*
X178535635Y-47556692D01*
X178555468Y-47330000D01*
X178552762Y-47299075D01*
X178535635Y-47103313D01*
X178535635Y-47103308D01*
X178476739Y-46883504D01*
X178380568Y-46677266D01*
X178250047Y-46490861D01*
X178250045Y-46490858D01*
X178089141Y-46329954D01*
X177902734Y-46199432D01*
X177902732Y-46199431D01*
X177696497Y-46103261D01*
X177696488Y-46103258D01*
X177476697Y-46044366D01*
X177476693Y-46044365D01*
X177476692Y-46044365D01*
X177476691Y-46044364D01*
X177476686Y-46044364D01*
X177250002Y-46024532D01*
X177249998Y-46024532D01*
X177023313Y-46044364D01*
X177023302Y-46044366D01*
X176803511Y-46103258D01*
X176803502Y-46103261D01*
X176597267Y-46199431D01*
X176597265Y-46199432D01*
X176410858Y-46329954D01*
X176249954Y-46490858D01*
X176119432Y-46677265D01*
X176119431Y-46677267D01*
X176023261Y-46883502D01*
X176023258Y-46883511D01*
X175964366Y-47103302D01*
X175964364Y-47103313D01*
X175944532Y-47329998D01*
X166850000Y-47329998D01*
X166850000Y-46750000D01*
X165933012Y-46750000D01*
X165965925Y-46692993D01*
X166000000Y-46565826D01*
X166000000Y-46434174D01*
X165965925Y-46307007D01*
X165933012Y-46250000D01*
X166850000Y-46250000D01*
X166850000Y-45602172D01*
X166849999Y-45602155D01*
X166843598Y-45542627D01*
X166843596Y-45542620D01*
X166793354Y-45407913D01*
X166793350Y-45407906D01*
X166707190Y-45292812D01*
X166707187Y-45292809D01*
X166592093Y-45206649D01*
X166592086Y-45206645D01*
X166460013Y-45157385D01*
X166404079Y-45115514D01*
X166380440Y-45052135D01*
X206519500Y-45052135D01*
X206519500Y-47947870D01*
X206519501Y-47947876D01*
X206525908Y-48007483D01*
X206576202Y-48142328D01*
X206576206Y-48142335D01*
X206662452Y-48257544D01*
X206662455Y-48257547D01*
X206777664Y-48343793D01*
X206777671Y-48343797D01*
X206912517Y-48394091D01*
X206912516Y-48394091D01*
X206919444Y-48394835D01*
X206972127Y-48400500D01*
X209867872Y-48400499D01*
X209927483Y-48394091D01*
X210062331Y-48343796D01*
X210177546Y-48257546D01*
X210263796Y-48142331D01*
X210314091Y-48007483D01*
X210320500Y-47947873D01*
X210320499Y-46499998D01*
X216674645Y-46499998D01*
X216674645Y-46500001D01*
X216694039Y-46771160D01*
X216694040Y-46771167D01*
X216751823Y-47036793D01*
X216751825Y-47036801D01*
X216776633Y-47103313D01*
X216846830Y-47291519D01*
X216977109Y-47530107D01*
X216977110Y-47530108D01*
X216977113Y-47530113D01*
X217140029Y-47747742D01*
X217140033Y-47747746D01*
X217140038Y-47747752D01*
X217332247Y-47939961D01*
X217332253Y-47939966D01*
X217332258Y-47939971D01*
X217549887Y-48102887D01*
X217549891Y-48102889D01*
X217549892Y-48102890D01*
X217788481Y-48233169D01*
X217788480Y-48233169D01*
X217788484Y-48233170D01*
X217788487Y-48233172D01*
X218043199Y-48328175D01*
X218308840Y-48385961D01*
X218560605Y-48403967D01*
X218579999Y-48405355D01*
X218580000Y-48405355D01*
X218580001Y-48405355D01*
X218598100Y-48404060D01*
X218851160Y-48385961D01*
X219116801Y-48328175D01*
X219371513Y-48233172D01*
X219371517Y-48233169D01*
X219371519Y-48233169D01*
X219537882Y-48142328D01*
X219610113Y-48102887D01*
X219827742Y-47939971D01*
X220019971Y-47747742D01*
X220182887Y-47530113D01*
X220313172Y-47291513D01*
X220408175Y-47036801D01*
X220465961Y-46771160D01*
X220485355Y-46500000D01*
X220465961Y-46228840D01*
X220408175Y-45963199D01*
X220313172Y-45708487D01*
X220313170Y-45708484D01*
X220313169Y-45708480D01*
X220182890Y-45469892D01*
X220182889Y-45469891D01*
X220182887Y-45469887D01*
X220019971Y-45252258D01*
X220019966Y-45252253D01*
X220019961Y-45252247D01*
X219827752Y-45060038D01*
X219827746Y-45060033D01*
X219827742Y-45060029D01*
X219610113Y-44897113D01*
X219610108Y-44897110D01*
X219610107Y-44897109D01*
X219371518Y-44766830D01*
X219371519Y-44766830D01*
X219321920Y-44748330D01*
X219116801Y-44671825D01*
X219116794Y-44671823D01*
X219116793Y-44671823D01*
X218851167Y-44614040D01*
X218851160Y-44614039D01*
X218580001Y-44594645D01*
X218579999Y-44594645D01*
X218308839Y-44614039D01*
X218308832Y-44614040D01*
X218043206Y-44671823D01*
X218043202Y-44671824D01*
X218043199Y-44671825D01*
X217935154Y-44712124D01*
X217788480Y-44766830D01*
X217549892Y-44897109D01*
X217549891Y-44897110D01*
X217332259Y-45060028D01*
X217332247Y-45060038D01*
X217140038Y-45252247D01*
X217140028Y-45252259D01*
X216977110Y-45469891D01*
X216977109Y-45469892D01*
X216846830Y-45708480D01*
X216799326Y-45835843D01*
X216751825Y-45963199D01*
X216751824Y-45963202D01*
X216751823Y-45963206D01*
X216694040Y-46228832D01*
X216694039Y-46228839D01*
X216674645Y-46499998D01*
X210320499Y-46499998D01*
X210320499Y-45052128D01*
X210314091Y-44992517D01*
X210299546Y-44953521D01*
X210263797Y-44857671D01*
X210263793Y-44857664D01*
X210177547Y-44742455D01*
X210177544Y-44742452D01*
X210062335Y-44656206D01*
X210062328Y-44656202D01*
X209927482Y-44605908D01*
X209927483Y-44605908D01*
X209867883Y-44599501D01*
X209867881Y-44599500D01*
X209867873Y-44599500D01*
X209867864Y-44599500D01*
X206972129Y-44599500D01*
X206972123Y-44599501D01*
X206912516Y-44605908D01*
X206777671Y-44656202D01*
X206777664Y-44656206D01*
X206662455Y-44742452D01*
X206662452Y-44742455D01*
X206576206Y-44857664D01*
X206576202Y-44857671D01*
X206525908Y-44992517D01*
X206523508Y-45014845D01*
X206519501Y-45052123D01*
X206519500Y-45052135D01*
X166380440Y-45052135D01*
X166379662Y-45050049D01*
X166394514Y-44981776D01*
X166415665Y-44953521D01*
X166538108Y-44831078D01*
X166673600Y-44637578D01*
X166773429Y-44423492D01*
X166773432Y-44423486D01*
X166830636Y-44210000D01*
X165933012Y-44210000D01*
X165965925Y-44152993D01*
X166000000Y-44025826D01*
X166000000Y-43894174D01*
X165965925Y-43767007D01*
X165956105Y-43749999D01*
X240294357Y-43749999D01*
X240294357Y-43750000D01*
X240314884Y-43971535D01*
X240314885Y-43971537D01*
X240375769Y-44185523D01*
X240375775Y-44185538D01*
X240474938Y-44384683D01*
X240474943Y-44384691D01*
X240609020Y-44562238D01*
X240773437Y-44712123D01*
X240773439Y-44712125D01*
X240962595Y-44829245D01*
X240962596Y-44829245D01*
X240962599Y-44829247D01*
X241170060Y-44909618D01*
X241388757Y-44950500D01*
X241388759Y-44950500D01*
X241611241Y-44950500D01*
X241611243Y-44950500D01*
X241829940Y-44909618D01*
X242037401Y-44829247D01*
X242154280Y-44756879D01*
X243346672Y-44756879D01*
X243346672Y-44756880D01*
X243462821Y-44828797D01*
X243462822Y-44828798D01*
X243670195Y-44909134D01*
X243888807Y-44950000D01*
X244111193Y-44950000D01*
X244329809Y-44909133D01*
X244537168Y-44828801D01*
X244537181Y-44828795D01*
X244653326Y-44756879D01*
X244000001Y-44103553D01*
X244000000Y-44103553D01*
X243346672Y-44756879D01*
X242154280Y-44756879D01*
X242226562Y-44712124D01*
X242390981Y-44562236D01*
X242525058Y-44384689D01*
X242624229Y-44185528D01*
X242630994Y-44161750D01*
X242668271Y-44102661D01*
X242731580Y-44073102D01*
X242800820Y-44082463D01*
X242854007Y-44127772D01*
X242869525Y-44161753D01*
X242876236Y-44185342D01*
X242876239Y-44185348D01*
X242975369Y-44384428D01*
X242991137Y-44405308D01*
X242991138Y-44405308D01*
X243646447Y-43750000D01*
X243600369Y-43703922D01*
X243650000Y-43703922D01*
X243650000Y-43796078D01*
X243673852Y-43885095D01*
X243719930Y-43964905D01*
X243785095Y-44030070D01*
X243864905Y-44076148D01*
X243953922Y-44100000D01*
X244046078Y-44100000D01*
X244135095Y-44076148D01*
X244214905Y-44030070D01*
X244280070Y-43964905D01*
X244326148Y-43885095D01*
X244350000Y-43796078D01*
X244350000Y-43749999D01*
X244353553Y-43749999D01*
X244353553Y-43750000D01*
X245008861Y-44405308D01*
X245024631Y-44384425D01*
X245024633Y-44384422D01*
X245053149Y-44327155D01*
X249775000Y-44327155D01*
X249775000Y-44975000D01*
X250691988Y-44975000D01*
X250659075Y-45032007D01*
X250625000Y-45159174D01*
X250625000Y-45290826D01*
X250659075Y-45417993D01*
X250691988Y-45475000D01*
X249775000Y-45475000D01*
X249775000Y-46122844D01*
X249781401Y-46182372D01*
X249781403Y-46182379D01*
X249831645Y-46317086D01*
X249831649Y-46317093D01*
X249917809Y-46432187D01*
X249917812Y-46432190D01*
X250032906Y-46518350D01*
X250032913Y-46518354D01*
X250164986Y-46567614D01*
X250220920Y-46609485D01*
X250245337Y-46674949D01*
X250230486Y-46743222D01*
X250209335Y-46771477D01*
X250086886Y-46893926D01*
X249951400Y-47087420D01*
X249951399Y-47087422D01*
X249851570Y-47301507D01*
X249851567Y-47301513D01*
X249794364Y-47514999D01*
X249794364Y-47515000D01*
X250691988Y-47515000D01*
X250659075Y-47572007D01*
X250625000Y-47699174D01*
X250625000Y-47830826D01*
X250659075Y-47957993D01*
X250691988Y-48015000D01*
X249794364Y-48015000D01*
X249851567Y-48228486D01*
X249851570Y-48228492D01*
X249951399Y-48442578D01*
X250086894Y-48636082D01*
X250253917Y-48803105D01*
X250447421Y-48938600D01*
X250661507Y-49038429D01*
X250661516Y-49038433D01*
X250875000Y-49095634D01*
X250875000Y-48198012D01*
X250932007Y-48230925D01*
X251059174Y-48265000D01*
X251190826Y-48265000D01*
X251317993Y-48230925D01*
X251375000Y-48198012D01*
X251375000Y-49095633D01*
X251588483Y-49038433D01*
X251588492Y-49038429D01*
X251802578Y-48938600D01*
X251996082Y-48803105D01*
X252163105Y-48636082D01*
X252298600Y-48442578D01*
X252398429Y-48228492D01*
X252398432Y-48228486D01*
X252455636Y-48015000D01*
X251558012Y-48015000D01*
X251590925Y-47957993D01*
X251625000Y-47830826D01*
X251625000Y-47699174D01*
X251590925Y-47572007D01*
X251558012Y-47515000D01*
X252455636Y-47515000D01*
X252455635Y-47514999D01*
X252398432Y-47301513D01*
X252398429Y-47301507D01*
X252298600Y-47087422D01*
X252298599Y-47087420D01*
X252163113Y-46893926D01*
X252163108Y-46893920D01*
X252040665Y-46771477D01*
X252007180Y-46710154D01*
X252012164Y-46640462D01*
X252054036Y-46584529D01*
X252085013Y-46567614D01*
X252217086Y-46518354D01*
X252217093Y-46518350D01*
X252332187Y-46432190D01*
X252332190Y-46432187D01*
X252418350Y-46317093D01*
X252418354Y-46317086D01*
X252468596Y-46182379D01*
X252468598Y-46182372D01*
X252474999Y-46122844D01*
X252475000Y-46122827D01*
X252475000Y-45475000D01*
X251558012Y-45475000D01*
X251590925Y-45417993D01*
X251625000Y-45290826D01*
X251625000Y-45159174D01*
X251590925Y-45032007D01*
X251558012Y-44975000D01*
X252475000Y-44975000D01*
X252475000Y-44327172D01*
X252474999Y-44327155D01*
X252468598Y-44267627D01*
X252468596Y-44267620D01*
X252418354Y-44132913D01*
X252418350Y-44132906D01*
X252332190Y-44017812D01*
X252332187Y-44017809D01*
X252217093Y-43931649D01*
X252217086Y-43931645D01*
X252082379Y-43881403D01*
X252082372Y-43881401D01*
X252022844Y-43875000D01*
X251375000Y-43875000D01*
X251375000Y-44791988D01*
X251317993Y-44759075D01*
X251190826Y-44725000D01*
X251059174Y-44725000D01*
X250932007Y-44759075D01*
X250875000Y-44791988D01*
X250875000Y-43875000D01*
X250227155Y-43875000D01*
X250167627Y-43881401D01*
X250167620Y-43881403D01*
X250032913Y-43931645D01*
X250032906Y-43931649D01*
X249917812Y-44017809D01*
X249917809Y-44017812D01*
X249831649Y-44132906D01*
X249831645Y-44132913D01*
X249781403Y-44267620D01*
X249781401Y-44267627D01*
X249775000Y-44327155D01*
X245053149Y-44327155D01*
X245123759Y-44185350D01*
X245184621Y-43971439D01*
X245205141Y-43750000D01*
X245205141Y-43749999D01*
X245184621Y-43528560D01*
X245123759Y-43314649D01*
X245024635Y-43115580D01*
X245024630Y-43115572D01*
X245008860Y-43094690D01*
X244353553Y-43749999D01*
X244350000Y-43749999D01*
X244350000Y-43703922D01*
X244326148Y-43614905D01*
X244280070Y-43535095D01*
X244214905Y-43469930D01*
X244135095Y-43423852D01*
X244046078Y-43400000D01*
X243953922Y-43400000D01*
X243864905Y-43423852D01*
X243785095Y-43469930D01*
X243719930Y-43535095D01*
X243673852Y-43614905D01*
X243650000Y-43703922D01*
X243600369Y-43703922D01*
X242991138Y-43094691D01*
X242991137Y-43094691D01*
X242975368Y-43115574D01*
X242876239Y-43314651D01*
X242876238Y-43314652D01*
X242869525Y-43338248D01*
X242832245Y-43397340D01*
X242768935Y-43426898D01*
X242699696Y-43417535D01*
X242646510Y-43372224D01*
X242630995Y-43338253D01*
X242624229Y-43314472D01*
X242525188Y-43115572D01*
X242525061Y-43115316D01*
X242525056Y-43115308D01*
X242390979Y-42937761D01*
X242226562Y-42787876D01*
X242226560Y-42787874D01*
X242154278Y-42743119D01*
X243346671Y-42743119D01*
X244000000Y-43396447D01*
X244000001Y-43396447D01*
X244653327Y-42743119D01*
X244537178Y-42671202D01*
X244537177Y-42671201D01*
X244329804Y-42590865D01*
X244111193Y-42550000D01*
X243888807Y-42550000D01*
X243670195Y-42590865D01*
X243462824Y-42671200D01*
X243462823Y-42671201D01*
X243346671Y-42743119D01*
X242154278Y-42743119D01*
X242037404Y-42670754D01*
X242037398Y-42670752D01*
X241829940Y-42590382D01*
X241611243Y-42549500D01*
X241388757Y-42549500D01*
X241170060Y-42590382D01*
X241069436Y-42629364D01*
X240962601Y-42670752D01*
X240962595Y-42670754D01*
X240773439Y-42787874D01*
X240773437Y-42787876D01*
X240609020Y-42937761D01*
X240474943Y-43115308D01*
X240474938Y-43115316D01*
X240375775Y-43314461D01*
X240375769Y-43314476D01*
X240314885Y-43528462D01*
X240314884Y-43528464D01*
X240294357Y-43749999D01*
X165956105Y-43749999D01*
X165933012Y-43710000D01*
X166830636Y-43710000D01*
X166830635Y-43709999D01*
X166773432Y-43496513D01*
X166773429Y-43496507D01*
X166673600Y-43282422D01*
X166673599Y-43282420D01*
X166538113Y-43088926D01*
X166538108Y-43088920D01*
X166371082Y-42921894D01*
X166177578Y-42786399D01*
X165963492Y-42686570D01*
X165963486Y-42686567D01*
X165750000Y-42629364D01*
X165750000Y-43526988D01*
X165692993Y-43494075D01*
X165565826Y-43460000D01*
X165434174Y-43460000D01*
X165307007Y-43494075D01*
X165250000Y-43526988D01*
X165250000Y-42629364D01*
X165249999Y-42629364D01*
X165036513Y-42686567D01*
X165036507Y-42686570D01*
X164822422Y-42786399D01*
X164822420Y-42786400D01*
X164628926Y-42921886D01*
X164628920Y-42921891D01*
X164461891Y-43088920D01*
X164461886Y-43088926D01*
X164326400Y-43282420D01*
X164326399Y-43282422D01*
X164226570Y-43496507D01*
X164226567Y-43496513D01*
X164169364Y-43709999D01*
X164169364Y-43710000D01*
X165066988Y-43710000D01*
X165034075Y-43767007D01*
X165000000Y-43894174D01*
X165000000Y-44025826D01*
X165034075Y-44152993D01*
X165066988Y-44210000D01*
X164169364Y-44210000D01*
X164226567Y-44423486D01*
X164226570Y-44423492D01*
X164326399Y-44637578D01*
X164461894Y-44831082D01*
X164584334Y-44953522D01*
X164617819Y-45014845D01*
X164612835Y-45084537D01*
X164570963Y-45140470D01*
X164539987Y-45157385D01*
X164407911Y-45206646D01*
X164407906Y-45206649D01*
X164292812Y-45292809D01*
X164292809Y-45292812D01*
X164206649Y-45407906D01*
X164206645Y-45407913D01*
X164156403Y-45542620D01*
X164156401Y-45542627D01*
X164150000Y-45602155D01*
X154250000Y-45602155D01*
X154250000Y-41124998D01*
X225304532Y-41124998D01*
X225304532Y-41125001D01*
X225324364Y-41351686D01*
X225324366Y-41351697D01*
X225383258Y-41571488D01*
X225383261Y-41571497D01*
X225479431Y-41777732D01*
X225479432Y-41777734D01*
X225609954Y-41964141D01*
X225770858Y-42125045D01*
X225770861Y-42125047D01*
X225957266Y-42255568D01*
X226163504Y-42351739D01*
X226383308Y-42410635D01*
X226545230Y-42424801D01*
X226609998Y-42430468D01*
X226610000Y-42430468D01*
X226610002Y-42430468D01*
X226666673Y-42425509D01*
X226836692Y-42410635D01*
X227056496Y-42351739D01*
X227262734Y-42255568D01*
X227449139Y-42125047D01*
X227610047Y-41964139D01*
X227740568Y-41777734D01*
X227836739Y-41571496D01*
X227895635Y-41351692D01*
X227911531Y-41169998D01*
X231694532Y-41169998D01*
X231694532Y-41170001D01*
X231714364Y-41396686D01*
X231714366Y-41396697D01*
X231773258Y-41616488D01*
X231773261Y-41616497D01*
X231869431Y-41822732D01*
X231869432Y-41822734D01*
X231999954Y-42009141D01*
X232160858Y-42170045D01*
X232160861Y-42170047D01*
X232347266Y-42300568D01*
X232553504Y-42396739D01*
X232773308Y-42455635D01*
X232935230Y-42469801D01*
X232999998Y-42475468D01*
X233000000Y-42475468D01*
X233000002Y-42475468D01*
X233056673Y-42470509D01*
X233226692Y-42455635D01*
X233446496Y-42396739D01*
X233652734Y-42300568D01*
X233839139Y-42170047D01*
X234000047Y-42009139D01*
X234130568Y-41822734D01*
X234226739Y-41616496D01*
X234285635Y-41396692D01*
X234305468Y-41170000D01*
X234285635Y-40943308D01*
X234226739Y-40723504D01*
X234130568Y-40517266D01*
X234000047Y-40330861D01*
X234000045Y-40330858D01*
X233839141Y-40169954D01*
X233652734Y-40039432D01*
X233652732Y-40039431D01*
X233446497Y-39943261D01*
X233446488Y-39943258D01*
X233226697Y-39884366D01*
X233226693Y-39884365D01*
X233226692Y-39884365D01*
X233226691Y-39884364D01*
X233226686Y-39884364D01*
X233000002Y-39864532D01*
X232999998Y-39864532D01*
X232773313Y-39884364D01*
X232773302Y-39884366D01*
X232553511Y-39943258D01*
X232553502Y-39943261D01*
X232347267Y-40039431D01*
X232347265Y-40039432D01*
X232160858Y-40169954D01*
X231999954Y-40330858D01*
X231869432Y-40517265D01*
X231869431Y-40517267D01*
X231773261Y-40723502D01*
X231773258Y-40723511D01*
X231714366Y-40943302D01*
X231714364Y-40943313D01*
X231694532Y-41169998D01*
X227911531Y-41169998D01*
X227915468Y-41125000D01*
X227895635Y-40898308D01*
X227836739Y-40678504D01*
X227740568Y-40472266D01*
X227610047Y-40285861D01*
X227610045Y-40285858D01*
X227449141Y-40124954D01*
X227262734Y-39994432D01*
X227262732Y-39994431D01*
X227056497Y-39898261D01*
X227056488Y-39898258D01*
X226836697Y-39839366D01*
X226836693Y-39839365D01*
X226836692Y-39839365D01*
X226836691Y-39839364D01*
X226836686Y-39839364D01*
X226610002Y-39819532D01*
X226609998Y-39819532D01*
X226383313Y-39839364D01*
X226383302Y-39839366D01*
X226163511Y-39898258D01*
X226163502Y-39898261D01*
X225957267Y-39994431D01*
X225957265Y-39994432D01*
X225770858Y-40124954D01*
X225609954Y-40285858D01*
X225479432Y-40472265D01*
X225479431Y-40472267D01*
X225383261Y-40678502D01*
X225383258Y-40678511D01*
X225324366Y-40898302D01*
X225324364Y-40898313D01*
X225304532Y-41124998D01*
X154250000Y-41124998D01*
X154250000Y-34249999D01*
X164144341Y-34249999D01*
X164144341Y-34250000D01*
X164164936Y-34485403D01*
X164164938Y-34485413D01*
X164226094Y-34713655D01*
X164226096Y-34713659D01*
X164226097Y-34713663D01*
X164325965Y-34927830D01*
X164325967Y-34927834D01*
X164434281Y-35082521D01*
X164461501Y-35121396D01*
X164461506Y-35121402D01*
X164583430Y-35243326D01*
X164616915Y-35304649D01*
X164611931Y-35374341D01*
X164570059Y-35430274D01*
X164539083Y-35447189D01*
X164407669Y-35496203D01*
X164407664Y-35496206D01*
X164292455Y-35582452D01*
X164292452Y-35582455D01*
X164206206Y-35697664D01*
X164206202Y-35697671D01*
X164155908Y-35832517D01*
X164150334Y-35884366D01*
X164149501Y-35892123D01*
X164149500Y-35892135D01*
X164149500Y-37687870D01*
X164149501Y-37687876D01*
X164155908Y-37747483D01*
X164206202Y-37882328D01*
X164206206Y-37882335D01*
X164292452Y-37997544D01*
X164292455Y-37997547D01*
X164407664Y-38083793D01*
X164407671Y-38083797D01*
X164542517Y-38134091D01*
X164542516Y-38134091D01*
X164549444Y-38134835D01*
X164602127Y-38140500D01*
X166397872Y-38140499D01*
X166457483Y-38134091D01*
X166592331Y-38083796D01*
X166707546Y-37997546D01*
X166793796Y-37882331D01*
X166844091Y-37747483D01*
X166850500Y-37687873D01*
X166850500Y-37169998D01*
X175944532Y-37169998D01*
X175944532Y-37170001D01*
X175964364Y-37396686D01*
X175964366Y-37396697D01*
X176023258Y-37616488D01*
X176023261Y-37616497D01*
X176119431Y-37822732D01*
X176119432Y-37822734D01*
X176249954Y-38009141D01*
X176410858Y-38170045D01*
X176410861Y-38170047D01*
X176597266Y-38300568D01*
X176803504Y-38396739D01*
X177023308Y-38455635D01*
X177185230Y-38469801D01*
X177249998Y-38475468D01*
X177250000Y-38475468D01*
X177250002Y-38475468D01*
X177306673Y-38470509D01*
X177476692Y-38455635D01*
X177696496Y-38396739D01*
X177902734Y-38300568D01*
X178089139Y-38170047D01*
X178250047Y-38009139D01*
X178380568Y-37822734D01*
X178476739Y-37616496D01*
X178535635Y-37396692D01*
X178555468Y-37170000D01*
X178535635Y-36943308D01*
X178476739Y-36723504D01*
X178402357Y-36563992D01*
X240454500Y-36563992D01*
X240454500Y-37216007D01*
X240493907Y-37414119D01*
X240493909Y-37414127D01*
X240571212Y-37600752D01*
X240571217Y-37600762D01*
X240683441Y-37768718D01*
X240826281Y-37911558D01*
X240994237Y-38023782D01*
X240994241Y-38023784D01*
X240994244Y-38023786D01*
X241180873Y-38101091D01*
X241344288Y-38133596D01*
X241378992Y-38140499D01*
X241378996Y-38140500D01*
X241378997Y-38140500D01*
X241581004Y-38140500D01*
X241581005Y-38140499D01*
X241779127Y-38101091D01*
X241965756Y-38023786D01*
X242046110Y-37970094D01*
X242112786Y-37949217D01*
X242180166Y-37967701D01*
X242183865Y-37970078D01*
X242264244Y-38023786D01*
X242450873Y-38101091D01*
X242614288Y-38133596D01*
X242648992Y-38140499D01*
X242648996Y-38140500D01*
X242648997Y-38140500D01*
X242851004Y-38140500D01*
X242851005Y-38140499D01*
X243049127Y-38101091D01*
X243130338Y-38067451D01*
X243199804Y-38059983D01*
X243244859Y-38079594D01*
X243245128Y-38079103D01*
X243250613Y-38082098D01*
X243252099Y-38082745D01*
X243252911Y-38083353D01*
X243252913Y-38083354D01*
X243387620Y-38133596D01*
X243387627Y-38133598D01*
X243447155Y-38139999D01*
X243447172Y-38140000D01*
X243770000Y-38140000D01*
X243770000Y-37255865D01*
X243772383Y-37231671D01*
X243775500Y-37216002D01*
X243775500Y-37175830D01*
X243789745Y-37190075D01*
X243875255Y-37239444D01*
X243970630Y-37265000D01*
X244069370Y-37265000D01*
X244164745Y-37239444D01*
X244250255Y-37190075D01*
X244270000Y-37170330D01*
X244270000Y-38140000D01*
X244592828Y-38140000D01*
X244592844Y-38139999D01*
X244652372Y-38133598D01*
X244652379Y-38133596D01*
X244787086Y-38083354D01*
X244787093Y-38083350D01*
X244878397Y-38014999D01*
X249769341Y-38014999D01*
X249769341Y-38015000D01*
X249789936Y-38250403D01*
X249789938Y-38250413D01*
X249851094Y-38478655D01*
X249851096Y-38478659D01*
X249851097Y-38478663D01*
X249950965Y-38692830D01*
X249950967Y-38692834D01*
X250059281Y-38847521D01*
X250086505Y-38886401D01*
X250253599Y-39053495D01*
X250350384Y-39121265D01*
X250447165Y-39189032D01*
X250447167Y-39189033D01*
X250447170Y-39189035D01*
X250661337Y-39288903D01*
X250889592Y-39350063D01*
X251077918Y-39366539D01*
X251124999Y-39370659D01*
X251125000Y-39370659D01*
X251125001Y-39370659D01*
X251164234Y-39367226D01*
X251360408Y-39350063D01*
X251588663Y-39288903D01*
X251802830Y-39189035D01*
X251996401Y-39053495D01*
X252163495Y-38886401D01*
X252299035Y-38692830D01*
X252398903Y-38478663D01*
X252460063Y-38250408D01*
X252480659Y-38015000D01*
X252460063Y-37779592D01*
X252398903Y-37551337D01*
X252299035Y-37337171D01*
X252242104Y-37255865D01*
X252163496Y-37143600D01*
X252140151Y-37120255D01*
X252041567Y-37021671D01*
X252008084Y-36960351D01*
X252013068Y-36890659D01*
X252054939Y-36834725D01*
X252085915Y-36817810D01*
X252217331Y-36768796D01*
X252332546Y-36682546D01*
X252418796Y-36567331D01*
X252469091Y-36432483D01*
X252475500Y-36372873D01*
X252475499Y-34577128D01*
X252469091Y-34517517D01*
X252457113Y-34485403D01*
X252418797Y-34382671D01*
X252418793Y-34382664D01*
X252332547Y-34267455D01*
X252332544Y-34267452D01*
X252217335Y-34181206D01*
X252217328Y-34181202D01*
X252082482Y-34130908D01*
X252082483Y-34130908D01*
X252022883Y-34124501D01*
X252022881Y-34124500D01*
X252022873Y-34124500D01*
X252022864Y-34124500D01*
X250227129Y-34124500D01*
X250227123Y-34124501D01*
X250167516Y-34130908D01*
X250032671Y-34181202D01*
X250032664Y-34181206D01*
X249917455Y-34267452D01*
X249917452Y-34267455D01*
X249831206Y-34382664D01*
X249831202Y-34382671D01*
X249780908Y-34517517D01*
X249774501Y-34577116D01*
X249774501Y-34577123D01*
X249774500Y-34577135D01*
X249774500Y-36372870D01*
X249774501Y-36372876D01*
X249780908Y-36432483D01*
X249831202Y-36567328D01*
X249831206Y-36567335D01*
X249917452Y-36682544D01*
X249917455Y-36682547D01*
X250032664Y-36768793D01*
X250032671Y-36768797D01*
X250164081Y-36817810D01*
X250220015Y-36859681D01*
X250244432Y-36925145D01*
X250229580Y-36993418D01*
X250208430Y-37021673D01*
X250086503Y-37143600D01*
X249950965Y-37337169D01*
X249950964Y-37337171D01*
X249851098Y-37551335D01*
X249851094Y-37551344D01*
X249789938Y-37779586D01*
X249789936Y-37779596D01*
X249769341Y-38014999D01*
X244878397Y-38014999D01*
X244902187Y-37997190D01*
X244902190Y-37997187D01*
X244988350Y-37882093D01*
X244988354Y-37882086D01*
X245038596Y-37747379D01*
X245038598Y-37747372D01*
X245044999Y-37687844D01*
X245045000Y-37687827D01*
X245045000Y-37140000D01*
X244300330Y-37140000D01*
X244320075Y-37120255D01*
X244369444Y-37034745D01*
X244395000Y-36939370D01*
X244395000Y-36840630D01*
X244369444Y-36745255D01*
X244320075Y-36659745D01*
X244300330Y-36640000D01*
X245045000Y-36640000D01*
X245045000Y-36092172D01*
X245044999Y-36092155D01*
X245038598Y-36032627D01*
X245038596Y-36032620D01*
X244988354Y-35897913D01*
X244988350Y-35897906D01*
X244902190Y-35782812D01*
X244902187Y-35782809D01*
X244787093Y-35696649D01*
X244787086Y-35696645D01*
X244652379Y-35646403D01*
X244652372Y-35646401D01*
X244592844Y-35640000D01*
X244270000Y-35640000D01*
X244270000Y-36609670D01*
X244250255Y-36589925D01*
X244164745Y-36540556D01*
X244069370Y-36515000D01*
X243970630Y-36515000D01*
X243875255Y-36540556D01*
X243789745Y-36589925D01*
X243775500Y-36604170D01*
X243775500Y-36563996D01*
X243775499Y-36563995D01*
X243772383Y-36548326D01*
X243770000Y-36524134D01*
X243770000Y-35640000D01*
X243447155Y-35640000D01*
X243387627Y-35646401D01*
X243387620Y-35646403D01*
X243252913Y-35696645D01*
X243252911Y-35696646D01*
X243252092Y-35697260D01*
X243251134Y-35697616D01*
X243245132Y-35700895D01*
X243244660Y-35700031D01*
X243186625Y-35721671D01*
X243130338Y-35712547D01*
X243049131Y-35678910D01*
X243049119Y-35678907D01*
X242851007Y-35639500D01*
X242851003Y-35639500D01*
X242648997Y-35639500D01*
X242648992Y-35639500D01*
X242450880Y-35678907D01*
X242450872Y-35678909D01*
X242264244Y-35756213D01*
X242183891Y-35809904D01*
X242117213Y-35830782D01*
X242049833Y-35812297D01*
X242046109Y-35809904D01*
X241965755Y-35756213D01*
X241779127Y-35678909D01*
X241779119Y-35678907D01*
X241581007Y-35639500D01*
X241581003Y-35639500D01*
X241378997Y-35639500D01*
X241378992Y-35639500D01*
X241180880Y-35678907D01*
X241180872Y-35678909D01*
X240994247Y-35756212D01*
X240994237Y-35756217D01*
X240826281Y-35868441D01*
X240683441Y-36011281D01*
X240571217Y-36179237D01*
X240571212Y-36179247D01*
X240493909Y-36365872D01*
X240493907Y-36365880D01*
X240454500Y-36563992D01*
X178402357Y-36563992D01*
X178380568Y-36517266D01*
X178250047Y-36330861D01*
X178250045Y-36330858D01*
X178089141Y-36169954D01*
X177902734Y-36039432D01*
X177902732Y-36039431D01*
X177696497Y-35943261D01*
X177696488Y-35943258D01*
X177476697Y-35884366D01*
X177476693Y-35884365D01*
X177476692Y-35884365D01*
X177476691Y-35884364D01*
X177476686Y-35884364D01*
X177250002Y-35864532D01*
X177249998Y-35864532D01*
X177023313Y-35884364D01*
X177023302Y-35884366D01*
X176803511Y-35943258D01*
X176803502Y-35943261D01*
X176597267Y-36039431D01*
X176597265Y-36039432D01*
X176410858Y-36169954D01*
X176249954Y-36330858D01*
X176119432Y-36517265D01*
X176119431Y-36517267D01*
X176023261Y-36723502D01*
X176023258Y-36723511D01*
X175964366Y-36943302D01*
X175964364Y-36943313D01*
X175944532Y-37169998D01*
X166850500Y-37169998D01*
X166850499Y-35892128D01*
X166844091Y-35832517D01*
X166836549Y-35812297D01*
X166793797Y-35697671D01*
X166793793Y-35697664D01*
X166707547Y-35582455D01*
X166707544Y-35582452D01*
X166592335Y-35496206D01*
X166592328Y-35496202D01*
X166460917Y-35447189D01*
X166404983Y-35405318D01*
X166380566Y-35339853D01*
X166395418Y-35271580D01*
X166416563Y-35243332D01*
X166538495Y-35121401D01*
X166674035Y-34927830D01*
X166773903Y-34713663D01*
X166835063Y-34485408D01*
X166855659Y-34250000D01*
X166835063Y-34014592D01*
X166773903Y-33786337D01*
X166674035Y-33572171D01*
X166538495Y-33378599D01*
X166538494Y-33378597D01*
X166371402Y-33211506D01*
X166371395Y-33211501D01*
X166177834Y-33075967D01*
X166177830Y-33075965D01*
X166177828Y-33075964D01*
X165963663Y-32976097D01*
X165963659Y-32976096D01*
X165963655Y-32976094D01*
X165735413Y-32914938D01*
X165735403Y-32914936D01*
X165500001Y-32894341D01*
X165499999Y-32894341D01*
X165264596Y-32914936D01*
X165264586Y-32914938D01*
X165036344Y-32976094D01*
X165036335Y-32976098D01*
X164822171Y-33075964D01*
X164822169Y-33075965D01*
X164628597Y-33211505D01*
X164461505Y-33378597D01*
X164325965Y-33572169D01*
X164325964Y-33572171D01*
X164226098Y-33786335D01*
X164226094Y-33786344D01*
X164164938Y-34014586D01*
X164164936Y-34014596D01*
X164144341Y-34249999D01*
X154250000Y-34249999D01*
X154250000Y-29772135D01*
X175904500Y-29772135D01*
X175904500Y-31567870D01*
X175904501Y-31567876D01*
X175910908Y-31627483D01*
X175961202Y-31762328D01*
X175961206Y-31762335D01*
X176047452Y-31877544D01*
X176047455Y-31877547D01*
X176162664Y-31963793D01*
X176162671Y-31963797D01*
X176297517Y-32014091D01*
X176297516Y-32014091D01*
X176304444Y-32014835D01*
X176357127Y-32020500D01*
X178152872Y-32020499D01*
X178212483Y-32014091D01*
X178347331Y-31963796D01*
X178462546Y-31877546D01*
X178548796Y-31762331D01*
X178599091Y-31627483D01*
X178605500Y-31567873D01*
X178605499Y-29772155D01*
X188730000Y-29772155D01*
X188730000Y-30420000D01*
X189646988Y-30420000D01*
X189614075Y-30477007D01*
X189580000Y-30604174D01*
X189580000Y-30735826D01*
X189614075Y-30862993D01*
X189646988Y-30920000D01*
X188730000Y-30920000D01*
X188730000Y-31567844D01*
X188736401Y-31627372D01*
X188736403Y-31627379D01*
X188786645Y-31762086D01*
X188786649Y-31762093D01*
X188872809Y-31877187D01*
X188872812Y-31877190D01*
X188987906Y-31963350D01*
X188987913Y-31963354D01*
X189122620Y-32013596D01*
X189122627Y-32013598D01*
X189182155Y-32019999D01*
X189182172Y-32020000D01*
X189830000Y-32020000D01*
X189830000Y-31103012D01*
X189887007Y-31135925D01*
X190014174Y-31170000D01*
X190145826Y-31170000D01*
X190272993Y-31135925D01*
X190330000Y-31103012D01*
X190330000Y-32020000D01*
X190977828Y-32020000D01*
X190977844Y-32019999D01*
X191037372Y-32013598D01*
X191037379Y-32013596D01*
X191172086Y-31963354D01*
X191172093Y-31963350D01*
X191287187Y-31877190D01*
X191287190Y-31877187D01*
X191373350Y-31762093D01*
X191373354Y-31762086D01*
X191423596Y-31627379D01*
X191423598Y-31627372D01*
X191429999Y-31567844D01*
X191430000Y-31567827D01*
X191430000Y-30920000D01*
X190513012Y-30920000D01*
X190545925Y-30862993D01*
X190580000Y-30735826D01*
X190580000Y-30604174D01*
X190545925Y-30477007D01*
X190513012Y-30420000D01*
X191430000Y-30420000D01*
X191430000Y-29772172D01*
X191429999Y-29772155D01*
X191423598Y-29712627D01*
X191423596Y-29712620D01*
X191373354Y-29577913D01*
X191373350Y-29577906D01*
X191287190Y-29462812D01*
X191287187Y-29462809D01*
X191172093Y-29376649D01*
X191172086Y-29376645D01*
X191037379Y-29326403D01*
X191037372Y-29326401D01*
X190977844Y-29320000D01*
X190330000Y-29320000D01*
X190330000Y-30236988D01*
X190272993Y-30204075D01*
X190145826Y-30170000D01*
X190014174Y-30170000D01*
X189887007Y-30204075D01*
X189830000Y-30236988D01*
X189830000Y-29320000D01*
X189182155Y-29320000D01*
X189122627Y-29326401D01*
X189122620Y-29326403D01*
X188987913Y-29376645D01*
X188987906Y-29376649D01*
X188872812Y-29462809D01*
X188872809Y-29462812D01*
X188786649Y-29577906D01*
X188786645Y-29577913D01*
X188736403Y-29712620D01*
X188736401Y-29712627D01*
X188730000Y-29772155D01*
X178605499Y-29772155D01*
X178605499Y-29772128D01*
X178599091Y-29712517D01*
X178570214Y-29635095D01*
X178548797Y-29577671D01*
X178548793Y-29577664D01*
X178462547Y-29462455D01*
X178462544Y-29462452D01*
X178347335Y-29376206D01*
X178347328Y-29376202D01*
X178212482Y-29325908D01*
X178212483Y-29325908D01*
X178152883Y-29319501D01*
X178152881Y-29319500D01*
X178152873Y-29319500D01*
X178152864Y-29319500D01*
X176357129Y-29319500D01*
X176357123Y-29319501D01*
X176297516Y-29325908D01*
X176162671Y-29376202D01*
X176162664Y-29376206D01*
X176047455Y-29462452D01*
X176047452Y-29462455D01*
X175961206Y-29577664D01*
X175961202Y-29577671D01*
X175910908Y-29712517D01*
X175904501Y-29772116D01*
X175904501Y-29772123D01*
X175904500Y-29772135D01*
X154250000Y-29772135D01*
X154250000Y-27977135D01*
X207399500Y-27977135D01*
X207399500Y-29772870D01*
X207399501Y-29772876D01*
X207405908Y-29832483D01*
X207456202Y-29967328D01*
X207456206Y-29967335D01*
X207542452Y-30082544D01*
X207542455Y-30082547D01*
X207657664Y-30168793D01*
X207657671Y-30168797D01*
X207792517Y-30219091D01*
X207792516Y-30219091D01*
X207799444Y-30219835D01*
X207852127Y-30225500D01*
X209647872Y-30225499D01*
X209707483Y-30219091D01*
X209842331Y-30168796D01*
X209957546Y-30082546D01*
X210043796Y-29967331D01*
X210094091Y-29832483D01*
X210100500Y-29772873D01*
X210100499Y-27977135D01*
X211899500Y-27977135D01*
X211899500Y-29772870D01*
X211899501Y-29772876D01*
X211905908Y-29832483D01*
X211956202Y-29967328D01*
X211956206Y-29967335D01*
X212042452Y-30082544D01*
X212042455Y-30082547D01*
X212157664Y-30168793D01*
X212157671Y-30168797D01*
X212292517Y-30219091D01*
X212292516Y-30219091D01*
X212299444Y-30219835D01*
X212352127Y-30225500D01*
X214147872Y-30225499D01*
X214207483Y-30219091D01*
X214342331Y-30168796D01*
X214457546Y-30082546D01*
X214543796Y-29967331D01*
X214594091Y-29832483D01*
X214600500Y-29772873D01*
X214600499Y-27977135D01*
X224899500Y-27977135D01*
X224899500Y-29772870D01*
X224899501Y-29772876D01*
X224905908Y-29832483D01*
X224956202Y-29967328D01*
X224956206Y-29967335D01*
X225042452Y-30082544D01*
X225042455Y-30082547D01*
X225157664Y-30168793D01*
X225157671Y-30168797D01*
X225292517Y-30219091D01*
X225292516Y-30219091D01*
X225299444Y-30219835D01*
X225352127Y-30225500D01*
X227147872Y-30225499D01*
X227207483Y-30219091D01*
X227342331Y-30168796D01*
X227457546Y-30082546D01*
X227543796Y-29967331D01*
X227594091Y-29832483D01*
X227600500Y-29772873D01*
X227600499Y-27977135D01*
X230899500Y-27977135D01*
X230899500Y-29772870D01*
X230899501Y-29772876D01*
X230905908Y-29832483D01*
X230956202Y-29967328D01*
X230956206Y-29967335D01*
X231042452Y-30082544D01*
X231042455Y-30082547D01*
X231157664Y-30168793D01*
X231157671Y-30168797D01*
X231292517Y-30219091D01*
X231292516Y-30219091D01*
X231299444Y-30219835D01*
X231352127Y-30225500D01*
X233147872Y-30225499D01*
X233207483Y-30219091D01*
X233342331Y-30168796D01*
X233457546Y-30082546D01*
X233543796Y-29967331D01*
X233594091Y-29832483D01*
X233600500Y-29772873D01*
X233600500Y-29499999D01*
X240294357Y-29499999D01*
X240294357Y-29500000D01*
X240314884Y-29721535D01*
X240314885Y-29721537D01*
X240375769Y-29935523D01*
X240375775Y-29935538D01*
X240474938Y-30134683D01*
X240474943Y-30134691D01*
X240609020Y-30312238D01*
X240773437Y-30462123D01*
X240773439Y-30462125D01*
X240962595Y-30579245D01*
X240962596Y-30579245D01*
X240962599Y-30579247D01*
X241170060Y-30659618D01*
X241388757Y-30700500D01*
X241388759Y-30700500D01*
X241611241Y-30700500D01*
X241611243Y-30700500D01*
X241829940Y-30659618D01*
X242037401Y-30579247D01*
X242154280Y-30506879D01*
X243346672Y-30506879D01*
X243346672Y-30506880D01*
X243462821Y-30578797D01*
X243462822Y-30578798D01*
X243670195Y-30659134D01*
X243888807Y-30700000D01*
X244111193Y-30700000D01*
X244329809Y-30659133D01*
X244537168Y-30578801D01*
X244537181Y-30578795D01*
X244653326Y-30506879D01*
X244000001Y-29853553D01*
X244000000Y-29853553D01*
X243346672Y-30506879D01*
X242154280Y-30506879D01*
X242226562Y-30462124D01*
X242390981Y-30312236D01*
X242525058Y-30134689D01*
X242624229Y-29935528D01*
X242630994Y-29911750D01*
X242668271Y-29852661D01*
X242731580Y-29823102D01*
X242800820Y-29832463D01*
X242854007Y-29877772D01*
X242869525Y-29911753D01*
X242876236Y-29935342D01*
X242876239Y-29935348D01*
X242975369Y-30134428D01*
X242991137Y-30155308D01*
X242991138Y-30155308D01*
X243646447Y-29500000D01*
X243600369Y-29453922D01*
X243650000Y-29453922D01*
X243650000Y-29546078D01*
X243673852Y-29635095D01*
X243719930Y-29714905D01*
X243785095Y-29780070D01*
X243864905Y-29826148D01*
X243953922Y-29850000D01*
X244046078Y-29850000D01*
X244135095Y-29826148D01*
X244214905Y-29780070D01*
X244280070Y-29714905D01*
X244326148Y-29635095D01*
X244350000Y-29546078D01*
X244350000Y-29499999D01*
X244353553Y-29499999D01*
X244353553Y-29500000D01*
X245008861Y-30155308D01*
X245024631Y-30134425D01*
X245024633Y-30134422D01*
X245123759Y-29935350D01*
X245184621Y-29721439D01*
X245205141Y-29500000D01*
X245205141Y-29499999D01*
X245184621Y-29278560D01*
X245123759Y-29064649D01*
X245024635Y-28865580D01*
X245024630Y-28865572D01*
X245008860Y-28844690D01*
X244353553Y-29499999D01*
X244350000Y-29499999D01*
X244350000Y-29453922D01*
X244326148Y-29364905D01*
X244280070Y-29285095D01*
X244214905Y-29219930D01*
X244135095Y-29173852D01*
X244046078Y-29150000D01*
X243953922Y-29150000D01*
X243864905Y-29173852D01*
X243785095Y-29219930D01*
X243719930Y-29285095D01*
X243673852Y-29364905D01*
X243650000Y-29453922D01*
X243600369Y-29453922D01*
X242991138Y-28844691D01*
X242991137Y-28844691D01*
X242975368Y-28865574D01*
X242876239Y-29064651D01*
X242876238Y-29064652D01*
X242869525Y-29088248D01*
X242832245Y-29147340D01*
X242768935Y-29176898D01*
X242699696Y-29167535D01*
X242646510Y-29122224D01*
X242630995Y-29088253D01*
X242624229Y-29064472D01*
X242525188Y-28865572D01*
X242525061Y-28865316D01*
X242525056Y-28865308D01*
X242390979Y-28687761D01*
X242226562Y-28537876D01*
X242226560Y-28537874D01*
X242154278Y-28493119D01*
X243346671Y-28493119D01*
X244000000Y-29146447D01*
X244000001Y-29146447D01*
X244653327Y-28493119D01*
X244537178Y-28421202D01*
X244537177Y-28421201D01*
X244329804Y-28340865D01*
X244111193Y-28300000D01*
X243888807Y-28300000D01*
X243670195Y-28340865D01*
X243462824Y-28421200D01*
X243462823Y-28421201D01*
X243346671Y-28493119D01*
X242154278Y-28493119D01*
X242037404Y-28420754D01*
X242037398Y-28420752D01*
X241829940Y-28340382D01*
X241611243Y-28299500D01*
X241388757Y-28299500D01*
X241170060Y-28340382D01*
X241038864Y-28391207D01*
X240962601Y-28420752D01*
X240962595Y-28420754D01*
X240773439Y-28537874D01*
X240773437Y-28537876D01*
X240609020Y-28687761D01*
X240474943Y-28865308D01*
X240474938Y-28865316D01*
X240375775Y-29064461D01*
X240375769Y-29064476D01*
X240314885Y-29278462D01*
X240314884Y-29278464D01*
X240294357Y-29499999D01*
X233600500Y-29499999D01*
X233600499Y-27977128D01*
X233594091Y-27917517D01*
X233543796Y-27782669D01*
X233543795Y-27782668D01*
X233543793Y-27782664D01*
X233457547Y-27667455D01*
X233457544Y-27667452D01*
X233342335Y-27581206D01*
X233342328Y-27581202D01*
X233207482Y-27530908D01*
X233207483Y-27530908D01*
X233147883Y-27524501D01*
X233147881Y-27524500D01*
X233147873Y-27524500D01*
X233147864Y-27524500D01*
X231352129Y-27524500D01*
X231352123Y-27524501D01*
X231292516Y-27530908D01*
X231157671Y-27581202D01*
X231157664Y-27581206D01*
X231042455Y-27667452D01*
X231042452Y-27667455D01*
X230956206Y-27782664D01*
X230956202Y-27782671D01*
X230905908Y-27917517D01*
X230899501Y-27977116D01*
X230899501Y-27977123D01*
X230899500Y-27977135D01*
X227600499Y-27977135D01*
X227600499Y-27977128D01*
X227594091Y-27917517D01*
X227543796Y-27782669D01*
X227543795Y-27782668D01*
X227543793Y-27782664D01*
X227457547Y-27667455D01*
X227457544Y-27667452D01*
X227342335Y-27581206D01*
X227342328Y-27581202D01*
X227207482Y-27530908D01*
X227207483Y-27530908D01*
X227147883Y-27524501D01*
X227147881Y-27524500D01*
X227147873Y-27524500D01*
X227147864Y-27524500D01*
X225352129Y-27524500D01*
X225352123Y-27524501D01*
X225292516Y-27530908D01*
X225157671Y-27581202D01*
X225157664Y-27581206D01*
X225042455Y-27667452D01*
X225042452Y-27667455D01*
X224956206Y-27782664D01*
X224956202Y-27782671D01*
X224905908Y-27917517D01*
X224899501Y-27977116D01*
X224899501Y-27977123D01*
X224899500Y-27977135D01*
X214600499Y-27977135D01*
X214600499Y-27977128D01*
X214594091Y-27917517D01*
X214543796Y-27782669D01*
X214543795Y-27782668D01*
X214543793Y-27782664D01*
X214457547Y-27667455D01*
X214457544Y-27667452D01*
X214342335Y-27581206D01*
X214342328Y-27581202D01*
X214207482Y-27530908D01*
X214207483Y-27530908D01*
X214147883Y-27524501D01*
X214147881Y-27524500D01*
X214147873Y-27524500D01*
X214147864Y-27524500D01*
X212352129Y-27524500D01*
X212352123Y-27524501D01*
X212292516Y-27530908D01*
X212157671Y-27581202D01*
X212157664Y-27581206D01*
X212042455Y-27667452D01*
X212042452Y-27667455D01*
X211956206Y-27782664D01*
X211956202Y-27782671D01*
X211905908Y-27917517D01*
X211899501Y-27977116D01*
X211899501Y-27977123D01*
X211899500Y-27977135D01*
X210100499Y-27977135D01*
X210100499Y-27977128D01*
X210094091Y-27917517D01*
X210043796Y-27782669D01*
X210043795Y-27782668D01*
X210043793Y-27782664D01*
X209957547Y-27667455D01*
X209957544Y-27667452D01*
X209842335Y-27581206D01*
X209842328Y-27581202D01*
X209707482Y-27530908D01*
X209707483Y-27530908D01*
X209647883Y-27524501D01*
X209647881Y-27524500D01*
X209647873Y-27524500D01*
X209647864Y-27524500D01*
X207852129Y-27524500D01*
X207852123Y-27524501D01*
X207792516Y-27530908D01*
X207657671Y-27581202D01*
X207657664Y-27581206D01*
X207542455Y-27667452D01*
X207542452Y-27667455D01*
X207456206Y-27782664D01*
X207456202Y-27782671D01*
X207405908Y-27917517D01*
X207399501Y-27977116D01*
X207399501Y-27977123D01*
X207399500Y-27977135D01*
X154250000Y-27977135D01*
X154250000Y-23500000D01*
X154994680Y-23500000D01*
X155013946Y-23879918D01*
X155071551Y-24255935D01*
X155166904Y-24624212D01*
X155299016Y-24980925D01*
X155299022Y-24980940D01*
X155466548Y-25322463D01*
X155466553Y-25322472D01*
X155613378Y-25558030D01*
X155667771Y-25645295D01*
X155900620Y-25946112D01*
X156019171Y-26070827D01*
X156162709Y-26221829D01*
X156451343Y-26469614D01*
X156451346Y-26469616D01*
X156763571Y-26686931D01*
X157096179Y-26871543D01*
X157445758Y-27021559D01*
X157445761Y-27021560D01*
X157445766Y-27021562D01*
X157808709Y-27135436D01*
X157808712Y-27135436D01*
X157808720Y-27135439D01*
X158181340Y-27212015D01*
X158484104Y-27242803D01*
X158559795Y-27250500D01*
X158559796Y-27250500D01*
X158940205Y-27250500D01*
X159003280Y-27244085D01*
X159318660Y-27212015D01*
X159691280Y-27135439D01*
X159691290Y-27135436D01*
X160054233Y-27021562D01*
X160054234Y-27021561D01*
X160054242Y-27021559D01*
X160403821Y-26871543D01*
X160736429Y-26686931D01*
X161048654Y-26469616D01*
X161337291Y-26221829D01*
X161599380Y-25946112D01*
X161832229Y-25645295D01*
X162033451Y-25322464D01*
X162200981Y-24980932D01*
X162333098Y-24624204D01*
X162428448Y-24255940D01*
X162486053Y-23879919D01*
X162505320Y-23500000D01*
X252994680Y-23500000D01*
X253013946Y-23879918D01*
X253071551Y-24255935D01*
X253166904Y-24624212D01*
X253299016Y-24980925D01*
X253299022Y-24980940D01*
X253466548Y-25322463D01*
X253466553Y-25322472D01*
X253613378Y-25558030D01*
X253667771Y-25645295D01*
X253900620Y-25946112D01*
X254019171Y-26070827D01*
X254162709Y-26221829D01*
X254451343Y-26469614D01*
X254451346Y-26469616D01*
X254763571Y-26686931D01*
X255096179Y-26871543D01*
X255445758Y-27021559D01*
X255445761Y-27021560D01*
X255445766Y-27021562D01*
X255808709Y-27135436D01*
X255808712Y-27135436D01*
X255808720Y-27135439D01*
X256181340Y-27212015D01*
X256484104Y-27242803D01*
X256559795Y-27250500D01*
X256559796Y-27250500D01*
X256940205Y-27250500D01*
X257003280Y-27244085D01*
X257318660Y-27212015D01*
X257691280Y-27135439D01*
X257691290Y-27135436D01*
X258054233Y-27021562D01*
X258054234Y-27021561D01*
X258054242Y-27021559D01*
X258403821Y-26871543D01*
X258736429Y-26686931D01*
X259048654Y-26469616D01*
X259337291Y-26221829D01*
X259599380Y-25946112D01*
X259832229Y-25645295D01*
X260033451Y-25322464D01*
X260200981Y-24980932D01*
X260333098Y-24624204D01*
X260428448Y-24255940D01*
X260486053Y-23879919D01*
X260505320Y-23500000D01*
X260486053Y-23120081D01*
X260428448Y-22744060D01*
X260333098Y-22375796D01*
X260200981Y-22019068D01*
X260173812Y-21963681D01*
X260033451Y-21677536D01*
X260033446Y-21677527D01*
X259832228Y-21354704D01*
X259599384Y-21053893D01*
X259599383Y-21053892D01*
X259599380Y-21053888D01*
X259337291Y-20778171D01*
X259305058Y-20750500D01*
X259048656Y-20530385D01*
X258736429Y-20313069D01*
X258736424Y-20313066D01*
X258403820Y-20128456D01*
X258054233Y-19978437D01*
X257691290Y-19864563D01*
X257691284Y-19864562D01*
X257691281Y-19864561D01*
X257691280Y-19864561D01*
X257318660Y-19787985D01*
X257318659Y-19787984D01*
X257318655Y-19787984D01*
X256940205Y-19749500D01*
X256940204Y-19749500D01*
X256559796Y-19749500D01*
X256559795Y-19749500D01*
X256181344Y-19787984D01*
X255808715Y-19864562D01*
X255808709Y-19864563D01*
X255445766Y-19978437D01*
X255096179Y-20128456D01*
X254763575Y-20313066D01*
X254763570Y-20313069D01*
X254451343Y-20530385D01*
X254162709Y-20778170D01*
X253900615Y-21053893D01*
X253667771Y-21354704D01*
X253466553Y-21677527D01*
X253466548Y-21677536D01*
X253299022Y-22019059D01*
X253299016Y-22019074D01*
X253166904Y-22375787D01*
X253071551Y-22744064D01*
X253013946Y-23120081D01*
X252994680Y-23500000D01*
X162505320Y-23500000D01*
X162486053Y-23120081D01*
X162428448Y-22744060D01*
X162333098Y-22375796D01*
X162200981Y-22019068D01*
X162173812Y-21963681D01*
X162033451Y-21677536D01*
X162033446Y-21677527D01*
X161832228Y-21354704D01*
X161599384Y-21053893D01*
X161599383Y-21053892D01*
X161599380Y-21053888D01*
X161337291Y-20778171D01*
X161305058Y-20750500D01*
X161048656Y-20530385D01*
X160736429Y-20313069D01*
X160736424Y-20313066D01*
X160403820Y-20128456D01*
X160054233Y-19978437D01*
X159691290Y-19864563D01*
X159691284Y-19864562D01*
X159691281Y-19864561D01*
X159691280Y-19864561D01*
X159318660Y-19787985D01*
X159318659Y-19787984D01*
X159318655Y-19787984D01*
X158940205Y-19749500D01*
X158940204Y-19749500D01*
X158559796Y-19749500D01*
X158559795Y-19749500D01*
X158181344Y-19787984D01*
X157808715Y-19864562D01*
X157808709Y-19864563D01*
X157445766Y-19978437D01*
X157096179Y-20128456D01*
X156763575Y-20313066D01*
X156763570Y-20313069D01*
X156451343Y-20530385D01*
X156162709Y-20778170D01*
X155900615Y-21053893D01*
X155667771Y-21354704D01*
X155466553Y-21677527D01*
X155466548Y-21677536D01*
X155299022Y-22019059D01*
X155299016Y-22019074D01*
X155166904Y-22375787D01*
X155071551Y-22744064D01*
X155013946Y-23120081D01*
X154994680Y-23500000D01*
X154250000Y-23500000D01*
X154250000Y-22051362D01*
X154269685Y-21984323D01*
X154286319Y-21963681D01*
X157213681Y-19036319D01*
X157275004Y-19002834D01*
X157301362Y-19000000D01*
X258198638Y-19000000D01*
X258265677Y-19019685D01*
G37*
%TD.AperFunction*%
%TD*%
M02*
