%TF.GenerationSoftware,KiCad,Pcbnew,8.0.2*%
%TF.CreationDate,2024-12-11T18:52:05+01:00*%
%TF.ProjectId,Driver_Lampy_Dozymetrycznej,44726976-6572-45f4-9c61-6d70795f446f,rev?*%
%TF.SameCoordinates,Original*%
%TF.FileFunction,Soldermask,Top*%
%TF.FilePolarity,Negative*%
%FSLAX46Y46*%
G04 Gerber Fmt 4.6, Leading zero omitted, Abs format (unit mm)*
G04 Created by KiCad (PCBNEW 8.0.2) date 2024-12-11 18:52:05*
%MOMM*%
%LPD*%
G01*
G04 APERTURE LIST*
%ADD10R,1.700000X1.700000*%
%ADD11C,1.600000*%
%ADD12O,1.600000X1.600000*%
%ADD13R,1.500000X1.050000*%
%ADD14O,1.500000X1.050000*%
%ADD15R,2.800000X2.800000*%
%ADD16O,2.800000X2.800000*%
%ADD17C,1.400000*%
%ADD18O,1.700000X1.700000*%
%ADD19R,1.050000X1.500000*%
%ADD20O,1.050000X1.500000*%
%ADD21C,2.340000*%
%ADD22R,1.600000X1.600000*%
G04 APERTURE END LIST*
D10*
%TO.C,L_GND1*%
X190080000Y-30670000D03*
%TD*%
D11*
%TO.C,R6*%
X195860000Y-92480000D03*
D12*
X195860000Y-82320000D03*
%TD*%
D13*
%TO.C,Q5*%
X233500000Y-95210000D03*
D14*
X233500000Y-96480000D03*
X233500000Y-97750000D03*
%TD*%
D11*
%TO.C,R12*%
X177250000Y-47330000D03*
D12*
X177250000Y-37170000D03*
%TD*%
D15*
%TO.C,D2*%
X208420000Y-46500000D03*
D16*
X218580000Y-46500000D03*
%TD*%
D11*
%TO.C,R1*%
X185030000Y-100980000D03*
D12*
X195190000Y-100980000D03*
%TD*%
D11*
%TO.C,R8*%
X208860000Y-71060000D03*
D12*
X208860000Y-60900000D03*
%TD*%
D11*
%TO.C,C2*%
X203250000Y-50750000D03*
X203250000Y-55750000D03*
%TD*%
D10*
%TO.C,L_+1*%
X177255000Y-30670000D03*
%TD*%
D17*
%TO.C,C5*%
X241500000Y-43750000D03*
X244000000Y-43750000D03*
%TD*%
D11*
%TO.C,R15*%
X244580000Y-79250000D03*
D12*
X234420000Y-79250000D03*
%TD*%
D10*
%TO.C,GLED1*%
X213250000Y-28875000D03*
%TD*%
D11*
%TO.C,R3*%
X181750000Y-85810000D03*
D12*
X181750000Y-75650000D03*
%TD*%
D11*
%TO.C,R13*%
X176830000Y-55080000D03*
D12*
X166670000Y-55080000D03*
%TD*%
D10*
%TO.C,+3.3V1*%
X251125000Y-35475000D03*
D18*
X251125000Y-38015000D03*
%TD*%
D10*
%TO.C,+400V1*%
X165500000Y-36790000D03*
D18*
X165500000Y-34250000D03*
%TD*%
D10*
%TO.C,G400V1*%
X165500000Y-46500000D03*
D18*
X165500000Y-43960000D03*
%TD*%
D10*
%TO.C,PULSE1*%
X218610000Y-71190000D03*
D18*
X218610000Y-73730000D03*
%TD*%
D11*
%TO.C,R2*%
X188360000Y-85810000D03*
D12*
X188360000Y-75650000D03*
%TD*%
D10*
%TO.C,+SPEAK1*%
X232250000Y-28875000D03*
%TD*%
%TO.C,GSPEAK1*%
X208750000Y-28875000D03*
%TD*%
D13*
%TO.C,Q4*%
X210610000Y-80980000D03*
D14*
X210610000Y-82250000D03*
X210610000Y-83520000D03*
%TD*%
D11*
%TO.C,R7*%
X233000000Y-51330000D03*
D12*
X233000000Y-41170000D03*
%TD*%
D17*
%TO.C,C4*%
X241500000Y-29500000D03*
X244000000Y-29500000D03*
%TD*%
D11*
%TO.C,R10*%
X226610000Y-51285000D03*
D12*
X226610000Y-41125000D03*
%TD*%
D13*
%TO.C,Q3*%
X238860000Y-55770000D03*
D14*
X238860000Y-54500000D03*
X238860000Y-53230000D03*
%TD*%
D19*
%TO.C,U2*%
X244020000Y-36890000D03*
D20*
X242750000Y-36890000D03*
X241480000Y-36890000D03*
%TD*%
D10*
%TO.C,+LED1*%
X226250000Y-28875000D03*
%TD*%
%TO.C,IPULSE1*%
X250000000Y-85225000D03*
D18*
X250000000Y-87765000D03*
%TD*%
D10*
%TO.C,G3.3V1*%
X251125000Y-45225000D03*
D18*
X251125000Y-47765000D03*
%TD*%
D19*
%TO.C,Q1*%
X182340000Y-93840000D03*
D20*
X183610000Y-93840000D03*
X184880000Y-93840000D03*
%TD*%
D21*
%TO.C,RV1*%
X237135000Y-60230000D03*
X239635000Y-70230000D03*
X242135000Y-60230000D03*
%TD*%
D11*
%TO.C,R11*%
X218610000Y-91060000D03*
D12*
X218610000Y-80900000D03*
%TD*%
D11*
%TO.C,R16*%
X241500000Y-101830000D03*
D12*
X241500000Y-91670000D03*
%TD*%
D11*
%TO.C,C1*%
X171250000Y-70750000D03*
X171250000Y-75750000D03*
%TD*%
D13*
%TO.C,Q2*%
X202890000Y-99730000D03*
D14*
X202890000Y-101000000D03*
X202890000Y-102270000D03*
%TD*%
D22*
%TO.C,C3*%
X195250000Y-52544888D03*
D11*
X195250000Y-54544888D03*
%TD*%
%TO.C,R9*%
X226610000Y-67060000D03*
D12*
X226610000Y-56900000D03*
%TD*%
D11*
%TO.C,R4*%
X200250000Y-71080000D03*
D12*
X200250000Y-60920000D03*
%TD*%
D22*
%TO.C,U1*%
X218560000Y-95705000D03*
D12*
X218560000Y-98245000D03*
X226180000Y-98245000D03*
X226180000Y-95705000D03*
%TD*%
D11*
%TO.C,R5*%
X202860000Y-92480000D03*
D12*
X202860000Y-82320000D03*
%TD*%
D11*
%TO.C,R14*%
X226360000Y-89310000D03*
D12*
X226360000Y-79150000D03*
%TD*%
M02*
