M48
; DRILL file {KiCad 8.0.2} date 2024-12-11T18:52:17+0100
; FORMAT={-:-/ absolute / metric / decimal}
; #@! TF.CreationDate,2024-12-11T18:52:17+01:00
; #@! TF.GenerationSoftware,Kicad,Pcbnew,8.0.2
; #@! TF.FileFunction,Plated,1,2,PTH
FMAT,2
METRIC
; #@! TA.AperFunction,Plated,PTH,ComponentDrill
T1C0.700
; #@! TA.AperFunction,Plated,PTH,ComponentDrill
T2C0.750
; #@! TA.AperFunction,Plated,PTH,ComponentDrill
T3C0.800
; #@! TA.AperFunction,Plated,PTH,ComponentDrill
T4C1.000
; #@! TA.AperFunction,Plated,PTH,ComponentDrill
T5C1.300
; #@! TA.AperFunction,Plated,PTH,ComponentDrill
T6C1.400
%
G90
G05
T1
X241.5Y-29.5
X241.5Y-43.75
X244.0Y-29.5
X244.0Y-43.75
T2
X182.34Y-93.84
X183.61Y-93.84
X184.88Y-93.84
X202.89Y-99.73
X202.89Y-101.0
X202.89Y-102.27
X210.61Y-80.98
X210.61Y-82.25
X210.61Y-83.52
X233.5Y-95.21
X233.5Y-96.48
X233.5Y-97.75
X238.86Y-53.23
X238.86Y-54.5
X238.86Y-55.77
X241.48Y-36.89
X242.75Y-36.89
X244.02Y-36.89
T3
X166.67Y-55.08
X171.25Y-70.75
X171.25Y-75.75
X176.83Y-55.08
X177.25Y-37.17
X177.25Y-47.33
X181.75Y-75.65
X181.75Y-85.81
X185.03Y-100.98
X188.36Y-75.65
X188.36Y-85.81
X195.19Y-100.98
X195.25Y-52.545
X195.25Y-54.545
X195.86Y-82.32
X195.86Y-92.48
X200.25Y-60.92
X200.25Y-71.08
X202.86Y-82.32
X202.86Y-92.48
X203.25Y-50.75
X203.25Y-55.75
X208.86Y-60.9
X208.86Y-71.06
X218.56Y-95.705
X218.56Y-98.245
X218.61Y-80.9
X218.61Y-91.06
X226.18Y-95.705
X226.18Y-98.245
X226.36Y-79.15
X226.36Y-89.31
X226.61Y-41.125
X226.61Y-51.285
X226.61Y-56.9
X226.61Y-67.06
X233.0Y-41.17
X233.0Y-51.33
X234.42Y-79.25
X241.5Y-91.67
X241.5Y-101.83
X244.58Y-79.25
T4
X165.5Y-34.25
X165.5Y-36.79
X165.5Y-43.96
X165.5Y-46.5
X177.255Y-30.67
X190.08Y-30.67
X208.75Y-28.875
X213.25Y-28.875
X218.61Y-71.19
X218.61Y-73.73
X226.25Y-28.875
X232.25Y-28.875
X250.0Y-85.225
X250.0Y-87.765
X251.125Y-35.475
X251.125Y-38.015
X251.125Y-45.225
X251.125Y-47.765
T5
X237.135Y-60.23
X239.635Y-70.23
X242.135Y-60.23
T6
X208.42Y-46.5
X218.58Y-46.5
M30
